  0
SECTION
  2
HEADER
  9
$ANGBASE
  50
0.0
  9
$ANGDIR
  70
1
  9
$MEASUREMENT
  70
1
  0
ENDSEC
  0
SECTION
  2
TABLES
  0
TABLE
  2
LTYPE
  70
4
  0
LTYPE
  5
40F
  2
CONTINUOUS
  70
0
  3
Solid line
  72
65
  73
0
  40
0.0
  0
LTYPE
  5
410
  2
DASHDOT
 70
0
  3
Dash Dot ____ _ ____ _
 72
65
 73
4
 40
2.0
 49
1.25
 49
-0.25
 49
0.25
 49
-0.25
  0
LTYPE
  5
411
  2
DASHED
 70
0
  3
Dashed __ __ __ __ __
 72
65
 73
2
 40
0.75
 49
0.5
 49
-0.25
  0
LTYPE
  5
43B
  2
DOTTED
 70
0
  3
Dotted .  .  .  .
 72
65
 73
2
 40
0.2
 49
0.0
 49
-0.2
  0
ENDTAB
  0
TABLE
  2
STYLE
  70
4
  0
STYLE
  2
KICAD
  70
0
  40
0
  41
1
  42
1
  50
0
  71
0
  3
isocp.shx
  0
STYLE
  2
KICADB
  70
0
  40
0
  41
1
  42
1
  50
0
  71
0
  3
isocp.shx
  0
STYLE
  2
KICADI
  70
0
  40
0
  41
1
  42
1
  50
15
  71
0
  3
isocp.shx
  0
STYLE
  2
KICADBI
  70
0
  40
0
  41
1
  42
1
  50
15
  71
0
  3
isocp.shx
  0
ENDTAB
  0
TABLE
  2
LAYER
  70
1
  0
LAYER
  2
BLACK
  70
0
  62
7
  6
CONTINUOUS
  0
ENDTAB
  0
ENDSEC
  0
SECTION
  2
ENTITIES
0
LINE
8
BLACK
6
CONTINUOUS
10
150.168
20
-75.9401
11
150.17
21
-75.9406
0
LINE
8
BLACK
6
CONTINUOUS
10
150.17
20
-75.9406
11
150.172
21
-75.941
0
LINE
8
BLACK
6
CONTINUOUS
10
150.172
20
-75.941
11
150.299
21
-75.9794
0
LINE
8
BLACK
6
CONTINUOUS
10
150.299
20
-75.9794
11
150.299
21
-75.9794
0
LINE
8
BLACK
6
CONTINUOUS
10
150.299
20
-75.9794
11
150.3
21
-75.9795
0
LINE
8
BLACK
6
CONTINUOUS
10
150.3
20
-75.9795
11
150.302
21
-75.9804
0
LINE
8
BLACK
6
CONTINUOUS
10
150.302
20
-75.9804
11
150.304
21
-75.9812
0
LINE
8
BLACK
6
CONTINUOUS
10
150.304
20
-75.9812
11
150.421
21
-76.0435
0
LINE
8
BLACK
6
CONTINUOUS
10
150.421
20
-76.0435
11
150.421
21
-76.0435
0
LINE
8
BLACK
6
CONTINUOUS
10
150.421
20
-76.0435
11
150.421
21
-76.0435
0
LINE
8
BLACK
6
CONTINUOUS
10
150.421
20
-76.0435
11
150.421
21
-76.0437
0
LINE
8
BLACK
6
CONTINUOUS
10
150.421
20
-76.0437
11
150.423
21
-76.045
0
LINE
8
BLACK
6
CONTINUOUS
10
150.423
20
-76.045
11
150.425
21
-76.0462
0
LINE
8
BLACK
6
CONTINUOUS
10
150.425
20
-76.0462
11
150.528
21
-76.1301
0
LINE
8
BLACK
6
CONTINUOUS
10
150.528
20
-76.1301
11
150.528
21
-76.1301
0
LINE
8
BLACK
6
CONTINUOUS
10
150.528
20
-76.1301
11
150.528
21
-76.1301
0
LINE
8
BLACK
6
CONTINUOUS
10
150.528
20
-76.1301
11
150.528
21
-76.1303
0
LINE
8
BLACK
6
CONTINUOUS
10
150.528
20
-76.1303
11
150.53
21
-76.1319
0
LINE
8
BLACK
6
CONTINUOUS
10
150.53
20
-76.1319
11
150.531
21
-76.1336
0
LINE
8
BLACK
6
CONTINUOUS
10
150.531
20
-76.1336
11
150.616
21
-76.2358
0
LINE
8
BLACK
6
CONTINUOUS
10
150.616
20
-76.2358
11
150.616
21
-76.2361
0
LINE
8
BLACK
6
CONTINUOUS
10
150.616
20
-76.2361
11
150.617
21
-76.238
0
LINE
8
BLACK
6
CONTINUOUS
10
150.617
20
-76.238
11
150.619
21
-76.2399
0
LINE
8
BLACK
6
CONTINUOUS
10
150.619
20
-76.2399
11
150.682
21
-76.3566
0
LINE
8
BLACK
6
CONTINUOUS
10
150.682
20
-76.3566
11
150.682
21
-76.3569
0
LINE
8
BLACK
6
CONTINUOUS
10
150.682
20
-76.3569
11
150.683
21
-76.359
0
LINE
8
BLACK
6
CONTINUOUS
10
150.683
20
-76.359
11
150.684
21
-76.3611
0
LINE
8
BLACK
6
CONTINUOUS
10
150.684
20
-76.3611
11
150.723
21
-76.4879
0
LINE
8
BLACK
6
CONTINUOUS
10
150.723
20
-76.4879
11
150.723
21
-76.4882
0
LINE
8
BLACK
6
CONTINUOUS
10
150.723
20
-76.4882
11
150.724
21
-76.4904
0
LINE
8
BLACK
6
CONTINUOUS
10
150.724
20
-76.4904
11
150.724
21
-76.4927
0
LINE
8
BLACK
6
CONTINUOUS
10
150.724
20
-76.4927
11
150.738
21
-76.6246
0
LINE
8
BLACK
6
CONTINUOUS
10
150.738
20
-76.6246
11
150.738
21
-76.625
0
LINE
8
BLACK
6
CONTINUOUS
10
150.738
20
-76.625
11
150.738
21
-76.6261
0
LINE
8
BLACK
6
CONTINUOUS
10
150.738
20
-76.6261
11
150.738
21
-76.6272
0
LINE
8
BLACK
6
CONTINUOUS
10
150.738
20
-76.6272
11
150.738
21
-76.6308
0
LINE
8
BLACK
6
CONTINUOUS
10
150.738
20
-76.6308
11
150.738
21
-76.6308
0
LINE
8
BLACK
6
CONTINUOUS
10
150.738
20
-76.6308
11
150.738
21
-76.6319
0
LINE
8
BLACK
6
CONTINUOUS
10
150.738
20
-76.6319
11
150.738
21
-76.6321
0
LINE
8
BLACK
6
CONTINUOUS
10
150.738
20
-76.6321
11
150.718
21
-116.273
0
LINE
8
BLACK
6
CONTINUOUS
10
150.718
20
-116.273
11
150.718
21
-116.274
0
LINE
8
BLACK
6
CONTINUOUS
10
150.718
20
-116.274
11
150.718
21
-116.274
0
LINE
8
BLACK
6
CONTINUOUS
10
150.718
20
-116.274
11
150.707
21
-116.385
0
LINE
8
BLACK
6
CONTINUOUS
10
150.707
20
-116.385
11
150.707
21
-116.386
0
LINE
8
BLACK
6
CONTINUOUS
10
150.707
20
-116.386
11
150.707
21
-116.388
0
LINE
8
BLACK
6
CONTINUOUS
10
150.707
20
-116.388
11
150.706
21
-116.39
0
LINE
8
BLACK
6
CONTINUOUS
10
150.706
20
-116.39
11
150.674
21
-116.496
0
LINE
8
BLACK
6
CONTINUOUS
10
150.674
20
-116.496
11
150.674
21
-116.497
0
LINE
8
BLACK
6
CONTINUOUS
10
150.674
20
-116.497
11
150.673
21
-116.499
0
LINE
8
BLACK
6
CONTINUOUS
10
150.673
20
-116.499
11
150.672
21
-116.501
0
LINE
8
BLACK
6
CONTINUOUS
10
150.672
20
-116.501
11
150.62
21
-116.599
0
LINE
8
BLACK
6
CONTINUOUS
10
150.62
20
-116.599
11
150.62
21
-116.599
0
LINE
8
BLACK
6
CONTINUOUS
10
150.62
20
-116.599
11
150.618
21
-116.601
0
LINE
8
BLACK
6
CONTINUOUS
10
150.618
20
-116.601
11
150.617
21
-116.603
0
LINE
8
BLACK
6
CONTINUOUS
10
150.617
20
-116.603
11
150.547
21
-116.689
0
LINE
8
BLACK
6
CONTINUOUS
10
150.547
20
-116.689
11
150.547
21
-116.69
0
LINE
8
BLACK
6
CONTINUOUS
10
150.547
20
-116.69
11
150.545
21
-116.691
0
LINE
8
BLACK
6
CONTINUOUS
10
150.545
20
-116.691
11
150.543
21
-116.693
0
LINE
8
BLACK
6
CONTINUOUS
10
150.543
20
-116.693
11
150.458
21
-116.764
0
LINE
8
BLACK
6
CONTINUOUS
10
150.458
20
-116.764
11
150.457
21
-116.764
0
LINE
8
BLACK
6
CONTINUOUS
10
150.457
20
-116.764
11
150.456
21
-116.765
0
LINE
8
BLACK
6
CONTINUOUS
10
150.456
20
-116.765
11
150.454
21
-116.767
0
LINE
8
BLACK
6
CONTINUOUS
10
150.454
20
-116.767
11
150.356
21
-116.819
0
LINE
8
BLACK
6
CONTINUOUS
10
150.356
20
-116.819
11
150.355
21
-116.82
0
LINE
8
BLACK
6
CONTINUOUS
10
150.355
20
-116.82
11
150.353
21
-116.82
0
LINE
8
BLACK
6
CONTINUOUS
10
150.353
20
-116.82
11
150.351
21
-116.821
0
LINE
8
BLACK
6
CONTINUOUS
10
150.351
20
-116.821
11
150.245
21
-116.854
0
LINE
8
BLACK
6
CONTINUOUS
10
150.245
20
-116.854
11
150.245
21
-116.854
0
LINE
8
BLACK
6
CONTINUOUS
10
150.245
20
-116.854
11
150.242
21
-116.855
0
LINE
8
BLACK
6
CONTINUOUS
10
150.242
20
-116.855
11
150.24
21
-116.855
0
LINE
8
BLACK
6
CONTINUOUS
10
150.24
20
-116.855
11
150.13
21
-116.867
0
LINE
8
BLACK
6
CONTINUOUS
10
150.13
20
-116.867
11
150.129
21
-116.867
0
LINE
8
BLACK
6
CONTINUOUS
10
150.129
20
-116.867
11
150.128
21
-116.867
0
LINE
8
BLACK
6
CONTINUOUS
10
150.128
20
-116.867
11
150.127
21
-116.867
0
LINE
8
BLACK
6
CONTINUOUS
10
150.127
20
-116.867
11
150.124
21
-116.867
0
LINE
8
BLACK
6
CONTINUOUS
10
150.124
20
-116.867
11
150.124
21
-116.867
0
LINE
8
BLACK
6
CONTINUOUS
10
150.124
20
-116.867
11
150.123
21
-116.867
0
LINE
8
BLACK
6
CONTINUOUS
10
150.123
20
-116.867
11
125.094
21
-116.865
0
LINE
8
BLACK
6
CONTINUOUS
10
125.094
20
-116.865
11
125.093
21
-116.865
0
LINE
8
BLACK
6
CONTINUOUS
10
125.093
20
-116.865
11
125.093
21
-116.865
0
LINE
8
BLACK
6
CONTINUOUS
10
125.093
20
-116.865
11
124.994
21
-116.855
0
LINE
8
BLACK
6
CONTINUOUS
10
124.994
20
-116.855
11
124.994
21
-116.855
0
LINE
8
BLACK
6
CONTINUOUS
10
124.994
20
-116.855
11
124.991
21
-116.855
0
LINE
8
BLACK
6
CONTINUOUS
10
124.991
20
-116.855
11
124.989
21
-116.854
0
LINE
8
BLACK
6
CONTINUOUS
10
124.989
20
-116.854
11
124.894
21
-116.826
0
LINE
8
BLACK
6
CONTINUOUS
10
124.894
20
-116.826
11
124.894
21
-116.825
0
LINE
8
BLACK
6
CONTINUOUS
10
124.894
20
-116.825
11
124.892
21
-116.825
0
LINE
8
BLACK
6
CONTINUOUS
10
124.892
20
-116.825
11
124.89
21
-116.824
0
LINE
8
BLACK
6
CONTINUOUS
10
124.89
20
-116.824
11
124.802
21
-116.777
0
LINE
8
BLACK
6
CONTINUOUS
10
124.802
20
-116.777
11
124.802
21
-116.777
0
LINE
8
BLACK
6
CONTINUOUS
10
124.802
20
-116.777
11
124.8
21
-116.776
0
LINE
8
BLACK
6
CONTINUOUS
10
124.8
20
-116.776
11
124.798
21
-116.774
0
LINE
8
BLACK
6
CONTINUOUS
10
124.798
20
-116.774
11
124.721
21
-116.712
0
LINE
8
BLACK
6
CONTINUOUS
10
124.721
20
-116.712
11
124.721
21
-116.712
0
LINE
8
BLACK
6
CONTINUOUS
10
124.721
20
-116.712
11
124.719
21
-116.71
0
LINE
8
BLACK
6
CONTINUOUS
10
124.719
20
-116.71
11
124.718
21
-116.708
0
LINE
8
BLACK
6
CONTINUOUS
10
124.718
20
-116.708
11
124.655
21
-116.632
0
LINE
8
BLACK
6
CONTINUOUS
10
124.655
20
-116.632
11
124.654
21
-116.632
0
LINE
8
BLACK
6
CONTINUOUS
10
124.654
20
-116.632
11
124.653
21
-116.63
0
LINE
8
BLACK
6
CONTINUOUS
10
124.653
20
-116.63
11
124.652
21
-116.628
0
LINE
8
BLACK
6
CONTINUOUS
10
124.652
20
-116.628
11
124.605
21
-116.541
0
LINE
8
BLACK
6
CONTINUOUS
10
124.605
20
-116.541
11
124.605
21
-116.54
0
LINE
8
BLACK
6
CONTINUOUS
10
124.605
20
-116.54
11
124.604
21
-116.538
0
LINE
8
BLACK
6
CONTINUOUS
10
124.604
20
-116.538
11
124.603
21
-116.536
0
LINE
8
BLACK
6
CONTINUOUS
10
124.603
20
-116.536
11
124.573
21
-116.442
0
LINE
8
BLACK
6
CONTINUOUS
10
124.573
20
-116.442
11
124.573
21
-116.441
0
LINE
8
BLACK
6
CONTINUOUS
10
124.573
20
-116.441
11
124.573
21
-116.439
0
LINE
8
BLACK
6
CONTINUOUS
10
124.573
20
-116.439
11
124.573
21
-116.437
0
LINE
8
BLACK
6
CONTINUOUS
10
124.573
20
-116.437
11
124.562
21
-116.338
0
LINE
8
BLACK
6
CONTINUOUS
10
124.562
20
-116.338
11
124.562
21
-116.338
0
LINE
8
BLACK
6
CONTINUOUS
10
124.562
20
-116.338
11
124.562
21
-116.337
0
LINE
8
BLACK
6
CONTINUOUS
10
124.562
20
-116.337
11
124.562
21
-116.336
0
LINE
8
BLACK
6
CONTINUOUS
10
124.562
20
-116.336
11
124.562
21
-116.333
0
LINE
8
BLACK
6
CONTINUOUS
10
124.562
20
-116.333
11
124.562
21
-116.333
0
LINE
8
BLACK
6
CONTINUOUS
10
124.562
20
-116.333
11
124.562
21
-97.7901
0
LINE
8
BLACK
6
CONTINUOUS
10
124.562
20
-97.7901
11
124.562
21
-97.7901
0
LINE
8
BLACK
6
CONTINUOUS
10
124.562
20
-97.7901
11
124.562
21
-97.7878
0
LINE
8
BLACK
6
CONTINUOUS
10
124.562
20
-97.7878
11
124.552
21
-97.6929
0
LINE
8
BLACK
6
CONTINUOUS
10
124.552
20
-97.6929
11
124.524
21
-97.6029
0
LINE
8
BLACK
6
CONTINUOUS
10
124.524
20
-97.6029
11
124.479
21
-97.52
0
LINE
8
BLACK
6
CONTINUOUS
10
124.479
20
-97.52
11
124.419
21
-97.4474
0
LINE
8
BLACK
6
CONTINUOUS
10
124.419
20
-97.4474
11
124.346
21
-97.3878
0
LINE
8
BLACK
6
CONTINUOUS
10
124.346
20
-97.3878
11
124.263
21
-97.3436
0
LINE
8
BLACK
6
CONTINUOUS
10
124.263
20
-97.3436
11
124.173
21
-97.3163
0
LINE
8
BLACK
6
CONTINUOUS
10
124.173
20
-97.3163
11
124.078
21
-97.307
0
LINE
8
BLACK
6
CONTINUOUS
10
124.078
20
-97.307
11
119.76
21
-97.307
0
LINE
8
BLACK
6
CONTINUOUS
10
119.76
20
-97.307
11
119.759
21
-97.3069
0
LINE
8
BLACK
6
CONTINUOUS
10
119.759
20
-97.3069
11
119.759
21
-97.3069
0
LINE
8
BLACK
6
CONTINUOUS
10
119.759
20
-97.3069
11
119.66
21
-97.2972
0
LINE
8
BLACK
6
CONTINUOUS
10
119.66
20
-97.2972
11
119.66
21
-97.2972
0
LINE
8
BLACK
6
CONTINUOUS
10
119.66
20
-97.2972
11
119.657
21
-97.2967
0
LINE
8
BLACK
6
CONTINUOUS
10
119.657
20
-97.2967
11
119.655
21
-97.2963
0
LINE
8
BLACK
6
CONTINUOUS
10
119.655
20
-97.2963
11
119.56
21
-97.2676
0
LINE
8
BLACK
6
CONTINUOUS
10
119.56
20
-97.2676
11
119.56
21
-97.2675
0
LINE
8
BLACK
6
CONTINUOUS
10
119.56
20
-97.2675
11
119.558
21
-97.2666
0
LINE
8
BLACK
6
CONTINUOUS
10
119.558
20
-97.2666
11
119.556
21
-97.2657
0
LINE
8
BLACK
6
CONTINUOUS
10
119.556
20
-97.2657
11
119.468
21
-97.2192
0
LINE
8
BLACK
6
CONTINUOUS
10
119.468
20
-97.2192
11
119.468
21
-97.219
0
LINE
8
BLACK
6
CONTINUOUS
10
119.468
20
-97.219
11
119.466
21
-97.2178
0
LINE
8
BLACK
6
CONTINUOUS
10
119.466
20
-97.2178
11
119.464
21
-97.2165
0
LINE
8
BLACK
6
CONTINUOUS
10
119.464
20
-97.2165
11
119.387
21
-97.1538
0
LINE
8
BLACK
6
CONTINUOUS
10
119.387
20
-97.1538
11
119.387
21
-97.1536
0
LINE
8
BLACK
6
CONTINUOUS
10
119.387
20
-97.1536
11
119.385
21
-97.152
0
LINE
8
BLACK
6
CONTINUOUS
10
119.385
20
-97.152
11
119.384
21
-97.1504
0
LINE
8
BLACK
6
CONTINUOUS
10
119.384
20
-97.1504
11
119.321
21
-97.074
0
LINE
8
BLACK
6
CONTINUOUS
10
119.321
20
-97.074
11
119.32
21
-97.0737
0
LINE
8
BLACK
6
CONTINUOUS
10
119.32
20
-97.0737
11
119.319
21
-97.0718
0
LINE
8
BLACK
6
CONTINUOUS
10
119.319
20
-97.0718
11
119.318
21
-97.07
0
LINE
8
BLACK
6
CONTINUOUS
10
119.318
20
-97.07
11
119.271
21
-96.9827
0
LINE
8
BLACK
6
CONTINUOUS
10
119.271
20
-96.9827
11
119.271
21
-96.9824
0
LINE
8
BLACK
6
CONTINUOUS
10
119.271
20
-96.9824
11
119.27
21
-96.9803
0
LINE
8
BLACK
6
CONTINUOUS
10
119.27
20
-96.9803
11
119.269
21
-96.9783
0
LINE
8
BLACK
6
CONTINUOUS
10
119.269
20
-96.9783
11
119.239
21
-96.8835
0
LINE
8
BLACK
6
CONTINUOUS
10
119.239
20
-96.8835
11
119.239
21
-96.8832
0
LINE
8
BLACK
6
CONTINUOUS
10
119.239
20
-96.8832
11
119.239
21
-96.881
0
LINE
8
BLACK
6
CONTINUOUS
10
119.239
20
-96.881
11
119.239
21
-96.8788
0
LINE
8
BLACK
6
CONTINUOUS
10
119.239
20
-96.8788
11
119.228
21
-96.7802
0
LINE
8
BLACK
6
CONTINUOUS
10
119.228
20
-96.7802
11
119.228
21
-96.7798
0
LINE
8
BLACK
6
CONTINUOUS
10
119.228
20
-96.7798
11
119.228
21
-96.7787
0
LINE
8
BLACK
6
CONTINUOUS
10
119.228
20
-96.7787
11
119.228
21
-96.7776
0
LINE
8
BLACK
6
CONTINUOUS
10
119.228
20
-96.7776
11
119.228
21
-96.7752
0
LINE
8
BLACK
6
CONTINUOUS
10
119.228
20
-96.7752
11
119.228
21
-96.7752
0
LINE
8
BLACK
6
CONTINUOUS
10
119.228
20
-96.7752
11
119.228
21
-96.7744
0
LINE
8
BLACK
6
CONTINUOUS
10
119.228
20
-96.7744
11
119.228
21
-96.7741
0
LINE
8
BLACK
6
CONTINUOUS
10
119.228
20
-96.7741
11
119.228
21
-96.7737
0
LINE
8
BLACK
6
CONTINUOUS
10
119.228
20
-96.7737
11
119.228
21
-86.6128
0
LINE
8
BLACK
6
CONTINUOUS
10
119.228
20
-86.6128
11
119.228
21
-86.6128
0
LINE
8
BLACK
6
CONTINUOUS
10
119.228
20
-86.6128
11
119.226
21
-80.7208
0
LINE
8
BLACK
6
CONTINUOUS
10
119.226
20
-80.7208
11
119.226
21
-80.7196
0
LINE
8
BLACK
6
CONTINUOUS
10
119.226
20
-80.7196
11
119.226
21
-80.7196
0
LINE
8
BLACK
6
CONTINUOUS
10
119.226
20
-80.7196
11
119.233
21
-80.6492
0
LINE
8
BLACK
6
CONTINUOUS
10
119.233
20
-80.6492
11
119.233
21
-80.6488
0
LINE
8
BLACK
6
CONTINUOUS
10
119.233
20
-80.6488
11
119.233
21
-80.6466
0
LINE
8
BLACK
6
CONTINUOUS
10
119.233
20
-80.6466
11
119.233
21
-80.6444
0
LINE
8
BLACK
6
CONTINUOUS
10
119.233
20
-80.6444
11
119.254
21
-80.5766
0
LINE
8
BLACK
6
CONTINUOUS
10
119.254
20
-80.5766
11
119.254
21
-80.5763
0
LINE
8
BLACK
6
CONTINUOUS
10
119.254
20
-80.5763
11
119.255
21
-80.5742
0
LINE
8
BLACK
6
CONTINUOUS
10
119.255
20
-80.5742
11
119.256
21
-80.5721
0
LINE
8
BLACK
6
CONTINUOUS
10
119.256
20
-80.5721
11
119.289
21
-80.5097
0
LINE
8
BLACK
6
CONTINUOUS
10
119.289
20
-80.5097
11
119.289
21
-80.5094
0
LINE
8
BLACK
6
CONTINUOUS
10
119.289
20
-80.5094
11
119.29
21
-80.5075
0
LINE
8
BLACK
6
CONTINUOUS
10
119.29
20
-80.5075
11
119.292
21
-80.5056
0
LINE
8
BLACK
6
CONTINUOUS
10
119.292
20
-80.5056
11
119.336
21
-80.4508
0
LINE
8
BLACK
6
CONTINUOUS
10
119.336
20
-80.4508
11
119.337
21
-80.4505
0
LINE
8
BLACK
6
CONTINUOUS
10
119.337
20
-80.4505
11
119.338
21
-80.4489
0
LINE
8
BLACK
6
CONTINUOUS
10
119.338
20
-80.4489
11
119.34
21
-80.4473
0
LINE
8
BLACK
6
CONTINUOUS
10
119.34
20
-80.4473
11
119.394
21
-80.4022
0
LINE
8
BLACK
6
CONTINUOUS
10
119.394
20
-80.4022
11
119.395
21
-80.402
0
LINE
8
BLACK
6
CONTINUOUS
10
119.395
20
-80.402
11
119.397
21
-80.4008
0
LINE
8
BLACK
6
CONTINUOUS
10
119.397
20
-80.4008
11
119.398
21
-80.3995
0
LINE
8
BLACK
6
CONTINUOUS
10
119.398
20
-80.3995
11
119.461
21
-80.3658
0
LINE
8
BLACK
6
CONTINUOUS
10
119.461
20
-80.3658
11
119.461
21
-80.3657
0
LINE
8
BLACK
6
CONTINUOUS
10
119.461
20
-80.3657
11
119.463
21
-80.3648
0
LINE
8
BLACK
6
CONTINUOUS
10
119.463
20
-80.3648
11
119.465
21
-80.364
0
LINE
8
BLACK
6
CONTINUOUS
10
119.465
20
-80.364
11
119.533
21
-80.343
0
LINE
8
BLACK
6
CONTINUOUS
10
119.533
20
-80.343
11
119.533
21
-80.3429
0
LINE
8
BLACK
6
CONTINUOUS
10
119.533
20
-80.3429
11
119.535
21
-80.3425
0
LINE
8
BLACK
6
CONTINUOUS
10
119.535
20
-80.3425
11
119.537
21
-80.3421
0
LINE
8
BLACK
6
CONTINUOUS
10
119.537
20
-80.3421
11
119.608
21
-80.3347
0
LINE
8
BLACK
6
CONTINUOUS
10
119.608
20
-80.3347
11
119.608
21
-80.3346
0
LINE
8
BLACK
6
CONTINUOUS
10
119.608
20
-80.3346
11
119.611
21
-80.3346
0
LINE
8
BLACK
6
CONTINUOUS
10
119.611
20
-80.3346
11
119.613
21
-80.3346
0
LINE
8
BLACK
6
CONTINUOUS
10
119.613
20
-80.3346
11
119.683
21
-80.341
0
LINE
8
BLACK
6
CONTINUOUS
10
119.683
20
-80.341
11
119.684
21
-80.3411
0
LINE
8
BLACK
6
CONTINUOUS
10
119.684
20
-80.3411
11
119.686
21
-80.3415
0
LINE
8
BLACK
6
CONTINUOUS
10
119.686
20
-80.3415
11
119.688
21
-80.3419
0
LINE
8
BLACK
6
CONTINUOUS
10
119.688
20
-80.3419
11
119.756
21
-80.3619
0
LINE
8
BLACK
6
CONTINUOUS
10
119.756
20
-80.3619
11
119.756
21
-80.362
0
LINE
8
BLACK
6
CONTINUOUS
10
119.756
20
-80.362
11
119.758
21
-80.3629
0
LINE
8
BLACK
6
CONTINUOUS
10
119.758
20
-80.3629
11
119.76
21
-80.3637
0
LINE
8
BLACK
6
CONTINUOUS
10
119.76
20
-80.3637
11
119.823
21
-80.3965
0
LINE
8
BLACK
6
CONTINUOUS
10
119.823
20
-80.3965
11
119.823
21
-80.3967
0
LINE
8
BLACK
6
CONTINUOUS
10
119.823
20
-80.3967
11
119.825
21
-80.398
0
LINE
8
BLACK
6
CONTINUOUS
10
119.825
20
-80.398
11
119.827
21
-80.3992
0
LINE
8
BLACK
6
CONTINUOUS
10
119.827
20
-80.3992
11
119.882
21
-80.4435
0
LINE
8
BLACK
6
CONTINUOUS
10
119.882
20
-80.4435
11
119.882
21
-80.4435
0
LINE
8
BLACK
6
CONTINUOUS
10
119.882
20
-80.4435
11
119.882
21
-80.4435
0
LINE
8
BLACK
6
CONTINUOUS
10
119.882
20
-80.4435
11
119.883
21
-80.4437
0
LINE
8
BLACK
6
CONTINUOUS
10
119.883
20
-80.4437
11
119.884
21
-80.4454
0
LINE
8
BLACK
6
CONTINUOUS
10
119.884
20
-80.4454
11
119.886
21
-80.4469
0
LINE
8
BLACK
6
CONTINUOUS
10
119.886
20
-80.4469
11
119.931
21
-80.5011
0
LINE
8
BLACK
6
CONTINUOUS
10
119.931
20
-80.5011
11
119.931
21
-80.5014
0
LINE
8
BLACK
6
CONTINUOUS
10
119.931
20
-80.5014
11
119.933
21
-80.5032
0
LINE
8
BLACK
6
CONTINUOUS
10
119.933
20
-80.5032
11
119.934
21
-80.5049
0
LINE
8
BLACK
6
CONTINUOUS
10
119.934
20
-80.5049
11
119.964
21
-80.5589
0
LINE
8
BLACK
6
CONTINUOUS
10
119.964
20
-80.5589
11
119.964
21
-80.5591
0
LINE
8
BLACK
6
CONTINUOUS
10
119.964
20
-80.5591
11
122.215
21
-84.7397
0
LINE
8
BLACK
6
CONTINUOUS
10
122.215
20
-84.7397
11
122.217
21
-84.7437
0
LINE
8
BLACK
6
CONTINUOUS
10
122.217
20
-84.7437
11
122.236
21
-84.7692
0
LINE
8
BLACK
6
CONTINUOUS
10
122.236
20
-84.7692
11
122.259
21
-84.7898
0
LINE
8
BLACK
6
CONTINUOUS
10
122.259
20
-84.7898
11
122.286
21
-84.8056
0
LINE
8
BLACK
6
CONTINUOUS
10
122.286
20
-84.8056
11
122.315
21
-84.8159
0
LINE
8
BLACK
6
CONTINUOUS
10
122.315
20
-84.8159
11
122.346
21
-84.8203
0
LINE
8
BLACK
6
CONTINUOUS
10
122.346
20
-84.8203
11
122.377
21
-84.8187
0
LINE
8
BLACK
6
CONTINUOUS
10
122.377
20
-84.8187
11
122.407
21
-84.8111
0
LINE
8
BLACK
6
CONTINUOUS
10
122.407
20
-84.8111
11
122.436
21
-84.7972
0
LINE
8
BLACK
6
CONTINUOUS
10
122.436
20
-84.7972
11
133.041
21
-78.8499
0
LINE
8
BLACK
6
CONTINUOUS
10
133.041
20
-78.8499
11
133.086
21
-78.8196
0
LINE
8
BLACK
6
CONTINUOUS
10
133.086
20
-78.8196
11
133.123
21
-78.7821
0
LINE
8
BLACK
6
CONTINUOUS
10
133.123
20
-78.7821
11
133.152
21
-78.7381
0
LINE
8
BLACK
6
CONTINUOUS
10
133.152
20
-78.7381
11
133.172
21
-78.6893
0
LINE
8
BLACK
6
CONTINUOUS
10
133.172
20
-78.6893
11
133.182
21
-78.6375
0
LINE
8
BLACK
6
CONTINUOUS
10
133.182
20
-78.6375
11
133.182
21
-78.5848
0
LINE
8
BLACK
6
CONTINUOUS
10
133.182
20
-78.5848
11
133.171
21
-78.5331
0
LINE
8
BLACK
6
CONTINUOUS
10
133.171
20
-78.5331
11
133.151
21
-78.4836
0
LINE
8
BLACK
6
CONTINUOUS
10
133.151
20
-78.4836
11
131.986
21
-76.4404
0
LINE
8
BLACK
6
CONTINUOUS
10
131.986
20
-76.4404
11
131.986
21
-76.4403
0
LINE
8
BLACK
6
CONTINUOUS
10
131.986
20
-76.4403
11
131.957
21
-76.3884
0
LINE
8
BLACK
6
CONTINUOUS
10
131.957
20
-76.3884
11
131.957
21
-76.3881
0
LINE
8
BLACK
6
CONTINUOUS
10
131.957
20
-76.3881
11
131.956
21
-76.386
0
LINE
8
BLACK
6
CONTINUOUS
10
131.956
20
-76.386
11
131.955
21
-76.384
0
LINE
8
BLACK
6
CONTINUOUS
10
131.955
20
-76.384
11
131.936
21
-76.3264
0
LINE
8
BLACK
6
CONTINUOUS
10
131.936
20
-76.3264
11
131.936
21
-76.3261
0
LINE
8
BLACK
6
CONTINUOUS
10
131.936
20
-76.3261
11
131.936
21
-76.3239
0
LINE
8
BLACK
6
CONTINUOUS
10
131.936
20
-76.3239
11
131.935
21
-76.3217
0
LINE
8
BLACK
6
CONTINUOUS
10
131.935
20
-76.3217
11
131.928
21
-76.2616
0
LINE
8
BLACK
6
CONTINUOUS
10
131.928
20
-76.2616
11
131.928
21
-76.2612
0
LINE
8
BLACK
6
CONTINUOUS
10
131.928
20
-76.2612
11
131.928
21
-76.259
0
LINE
8
BLACK
6
CONTINUOUS
10
131.928
20
-76.259
11
131.928
21
-76.2567
0
LINE
8
BLACK
6
CONTINUOUS
10
131.928
20
-76.2567
11
131.933
21
-76.1964
0
LINE
8
BLACK
6
CONTINUOUS
10
131.933
20
-76.1964
11
131.933
21
-76.196
0
LINE
8
BLACK
6
CONTINUOUS
10
131.933
20
-76.196
11
131.933
21
-76.1938
0
LINE
8
BLACK
6
CONTINUOUS
10
131.933
20
-76.1938
11
131.934
21
-76.1916
0
LINE
8
BLACK
6
CONTINUOUS
10
131.934
20
-76.1916
11
131.95
21
-76.1333
0
LINE
8
BLACK
6
CONTINUOUS
10
131.95
20
-76.1333
11
131.95
21
-76.133
0
LINE
8
BLACK
6
CONTINUOUS
10
131.95
20
-76.133
11
131.951
21
-76.1309
0
LINE
8
BLACK
6
CONTINUOUS
10
131.951
20
-76.1309
11
131.952
21
-76.1288
0
LINE
8
BLACK
6
CONTINUOUS
10
131.952
20
-76.1288
11
131.979
21
-76.0748
0
LINE
8
BLACK
6
CONTINUOUS
10
131.979
20
-76.0748
11
131.979
21
-76.0747
0
LINE
8
BLACK
6
CONTINUOUS
10
131.979
20
-76.0747
11
131.979
21
-76.0747
0
LINE
8
BLACK
6
CONTINUOUS
10
131.979
20
-76.0747
11
131.979
21
-76.0744
0
LINE
8
BLACK
6
CONTINUOUS
10
131.979
20
-76.0744
11
131.98
21
-76.0726
0
LINE
8
BLACK
6
CONTINUOUS
10
131.98
20
-76.0726
11
131.981
21
-76.0706
0
LINE
8
BLACK
6
CONTINUOUS
10
131.981
20
-76.0706
11
132.019
21
-76.0229
0
LINE
8
BLACK
6
CONTINUOUS
10
132.019
20
-76.0229
11
132.019
21
-76.0227
0
LINE
8
BLACK
6
CONTINUOUS
10
132.019
20
-76.0227
11
132.021
21
-76.021
0
LINE
8
BLACK
6
CONTINUOUS
10
132.021
20
-76.021
11
132.022
21
-76.0194
0
LINE
8
BLACK
6
CONTINUOUS
10
132.022
20
-76.0194
11
132.068
21
-75.9798
0
LINE
8
BLACK
6
CONTINUOUS
10
132.068
20
-75.9798
11
132.068
21
-75.9796
0
LINE
8
BLACK
6
CONTINUOUS
10
132.068
20
-75.9796
11
132.07
21
-75.9783
0
LINE
8
BLACK
6
CONTINUOUS
10
132.07
20
-75.9783
11
132.072
21
-75.977
0
LINE
8
BLACK
6
CONTINUOUS
10
132.072
20
-75.977
11
132.124
21
-75.9471
0
LINE
8
BLACK
6
CONTINUOUS
10
132.124
20
-75.9471
11
132.125
21
-75.947
0
LINE
8
BLACK
6
CONTINUOUS
10
132.125
20
-75.947
11
132.127
21
-75.9461
0
LINE
8
BLACK
6
CONTINUOUS
10
132.127
20
-75.9461
11
132.129
21
-75.9451
0
LINE
8
BLACK
6
CONTINUOUS
10
132.129
20
-75.9451
11
132.186
21
-75.926
0
LINE
8
BLACK
6
CONTINUOUS
10
132.186
20
-75.926
11
132.186
21
-75.926
0
LINE
8
BLACK
6
CONTINUOUS
10
132.186
20
-75.926
11
132.187
21
-75.9259
0
LINE
8
BLACK
6
CONTINUOUS
10
132.187
20
-75.9259
11
132.189
21
-75.9254
0
LINE
8
BLACK
6
CONTINUOUS
10
132.189
20
-75.9254
11
132.191
21
-75.9249
0
LINE
8
BLACK
6
CONTINUOUS
10
132.191
20
-75.9249
11
132.251
21
-75.9173
0
LINE
8
BLACK
6
CONTINUOUS
10
132.251
20
-75.9173
11
132.251
21
-75.9173
0
LINE
8
BLACK
6
CONTINUOUS
10
132.251
20
-75.9173
11
132.253
21
-75.9173
0
LINE
8
BLACK
6
CONTINUOUS
10
132.253
20
-75.9173
11
132.254
21
-75.9171
0
LINE
8
BLACK
6
CONTINUOUS
10
132.254
20
-75.9171
11
132.262
21
-75.917
0
LINE
8
BLACK
6
CONTINUOUS
10
132.262
20
-75.917
11
132.262
21
-75.917
0
LINE
8
BLACK
6
CONTINUOUS
10
132.262
20
-75.917
11
132.263
21
-75.917
0
LINE
8
BLACK
6
CONTINUOUS
10
132.263
20
-75.917
11
132.263
21
-75.917
0
LINE
8
BLACK
6
CONTINUOUS
10
132.263
20
-75.917
11
132.263
21
-75.917
0
LINE
8
BLACK
6
CONTINUOUS
10
132.263
20
-75.917
11
150.034
21
-75.927
0
LINE
8
BLACK
6
CONTINUOUS
10
150.034
20
-75.927
11
150.035
21
-75.9271
0
LINE
8
BLACK
6
CONTINUOUS
10
150.035
20
-75.9271
11
150.035
21
-75.9271
0
LINE
8
BLACK
6
CONTINUOUS
10
150.035
20
-75.9271
11
150.168
21
-75.9401
0
LINE
8
BLACK
6
CONTINUOUS
10
150.168
20
-75.9401
11
150.168
21
-75.9401
0
LINE
8
BLACK
6
CONTINUOUS
10
150.168
20
-75.9401
11
150.168
21
-75.9401
0
LINE
8
BLACK
6
CONTINUOUS
10
122.346
20
-84.8704
11
122.343
21
-84.8702
0
LINE
8
BLACK
6
CONTINUOUS
10
122.343
20
-84.8702
11
122.341
21
-84.8701
0
LINE
8
BLACK
6
CONTINUOUS
10
122.341
20
-84.8701
11
122.306
21
-84.865
0
LINE
8
BLACK
6
CONTINUOUS
10
122.306
20
-84.865
11
122.305
21
-84.8649
0
LINE
8
BLACK
6
CONTINUOUS
10
122.305
20
-84.8649
11
122.303
21
-84.8644
0
LINE
8
BLACK
6
CONTINUOUS
10
122.303
20
-84.8644
11
122.301
21
-84.8638
0
LINE
8
BLACK
6
CONTINUOUS
10
122.301
20
-84.8638
11
122.267
21
-84.8519
0
LINE
8
BLACK
6
CONTINUOUS
10
122.267
20
-84.8519
11
122.267
21
-84.8519
0
LINE
8
BLACK
6
CONTINUOUS
10
122.267
20
-84.8519
11
122.267
21
-84.8519
0
LINE
8
BLACK
6
CONTINUOUS
10
122.267
20
-84.8519
11
122.267
21
-84.8518
0
LINE
8
BLACK
6
CONTINUOUS
10
122.267
20
-84.8518
11
122.265
21
-84.8508
0
LINE
8
BLACK
6
CONTINUOUS
10
122.265
20
-84.8508
11
122.263
21
-84.8498
0
LINE
8
BLACK
6
CONTINUOUS
10
122.263
20
-84.8498
11
122.232
21
-84.8316
0
LINE
8
BLACK
6
CONTINUOUS
10
122.232
20
-84.8316
11
122.231
21
-84.8314
0
LINE
8
BLACK
6
CONTINUOUS
10
122.231
20
-84.8314
11
122.23
21
-84.83
0
LINE
8
BLACK
6
CONTINUOUS
10
122.23
20
-84.83
11
122.228
21
-84.8287
0
LINE
8
BLACK
6
CONTINUOUS
10
122.228
20
-84.8287
11
122.201
21
-84.8048
0
LINE
8
BLACK
6
CONTINUOUS
10
122.201
20
-84.8048
11
122.201
21
-84.8046
0
LINE
8
BLACK
6
CONTINUOUS
10
122.201
20
-84.8046
11
122.199
21
-84.8029
0
LINE
8
BLACK
6
CONTINUOUS
10
122.199
20
-84.8029
11
122.198
21
-84.8012
0
LINE
8
BLACK
6
CONTINUOUS
10
122.198
20
-84.8012
11
122.176
21
-84.7726
0
LINE
8
BLACK
6
CONTINUOUS
10
122.176
20
-84.7726
11
122.176
21
-84.7723
0
LINE
8
BLACK
6
CONTINUOUS
10
122.176
20
-84.7723
11
122.175
21
-84.7712
0
LINE
8
BLACK
6
CONTINUOUS
10
122.175
20
-84.7712
11
122.175
21
-84.7702
0
LINE
8
BLACK
6
CONTINUOUS
10
122.175
20
-84.7702
11
122.172
21
-84.7653
0
LINE
8
BLACK
6
CONTINUOUS
10
122.172
20
-84.7653
11
122.172
21
-84.7649
0
LINE
8
BLACK
6
CONTINUOUS
10
122.172
20
-84.7649
11
119.921
21
-80.5841
0
LINE
8
BLACK
6
CONTINUOUS
10
119.921
20
-80.5841
11
119.891
21
-80.5315
0
LINE
8
BLACK
6
CONTINUOUS
10
119.891
20
-80.5315
11
119.849
21
-80.481
0
LINE
8
BLACK
6
CONTINUOUS
10
119.849
20
-80.481
11
119.798
21
-80.4397
0
LINE
8
BLACK
6
CONTINUOUS
10
119.798
20
-80.4397
11
119.739
21
-80.4092
0
LINE
8
BLACK
6
CONTINUOUS
10
119.739
20
-80.4092
11
119.676
21
-80.3906
0
LINE
8
BLACK
6
CONTINUOUS
10
119.676
20
-80.3906
11
119.611
21
-80.3846
0
LINE
8
BLACK
6
CONTINUOUS
10
119.611
20
-80.3846
11
119.545
21
-80.3915
0
LINE
8
BLACK
6
CONTINUOUS
10
119.545
20
-80.3915
11
119.482
21
-80.411
0
LINE
8
BLACK
6
CONTINUOUS
10
119.482
20
-80.411
11
119.424
21
-80.4423
0
LINE
8
BLACK
6
CONTINUOUS
10
119.424
20
-80.4423
11
119.374
21
-80.4843
0
LINE
8
BLACK
6
CONTINUOUS
10
119.374
20
-80.4843
11
119.332
21
-80.5353
0
LINE
8
BLACK
6
CONTINUOUS
10
119.332
20
-80.5353
11
119.301
21
-80.5934
0
LINE
8
BLACK
6
CONTINUOUS
10
119.301
20
-80.5934
11
119.282
21
-80.6565
0
LINE
8
BLACK
6
CONTINUOUS
10
119.282
20
-80.6565
11
119.276
21
-80.7232
0
LINE
8
BLACK
6
CONTINUOUS
10
119.276
20
-80.7232
11
119.278
21
-86.6128
0
LINE
8
BLACK
6
CONTINUOUS
10
119.278
20
-86.6128
11
119.278
21
-86.6128
0
LINE
8
BLACK
6
CONTINUOUS
10
119.278
20
-86.6128
11
119.278
21
-96.7739
0
LINE
8
BLACK
6
CONTINUOUS
10
119.278
20
-96.7739
11
119.278
21
-96.7762
0
LINE
8
BLACK
6
CONTINUOUS
10
119.278
20
-96.7762
11
119.288
21
-96.8711
0
LINE
8
BLACK
6
CONTINUOUS
10
119.288
20
-96.8711
11
119.316
21
-96.9611
0
LINE
8
BLACK
6
CONTINUOUS
10
119.316
20
-96.9611
11
119.361
21
-97.044
0
LINE
8
BLACK
6
CONTINUOUS
10
119.361
20
-97.044
11
119.421
21
-97.1166
0
LINE
8
BLACK
6
CONTINUOUS
10
119.421
20
-97.1166
11
119.494
21
-97.1762
0
LINE
8
BLACK
6
CONTINUOUS
10
119.494
20
-97.1762
11
119.577
21
-97.2204
0
LINE
8
BLACK
6
CONTINUOUS
10
119.577
20
-97.2204
11
119.667
21
-97.2477
0
LINE
8
BLACK
6
CONTINUOUS
10
119.667
20
-97.2477
11
119.762
21
-97.257
0
LINE
8
BLACK
6
CONTINUOUS
10
119.762
20
-97.257
11
124.08
21
-97.257
0
LINE
8
BLACK
6
CONTINUOUS
10
124.08
20
-97.257
11
124.081
21
-97.2571
0
LINE
8
BLACK
6
CONTINUOUS
10
124.081
20
-97.2571
11
124.081
21
-97.2571
0
LINE
8
BLACK
6
CONTINUOUS
10
124.081
20
-97.2571
11
124.18
21
-97.2668
0
LINE
8
BLACK
6
CONTINUOUS
10
124.18
20
-97.2668
11
124.18
21
-97.2668
0
LINE
8
BLACK
6
CONTINUOUS
10
124.18
20
-97.2668
11
124.183
21
-97.2673
0
LINE
8
BLACK
6
CONTINUOUS
10
124.183
20
-97.2673
11
124.185
21
-97.2677
0
LINE
8
BLACK
6
CONTINUOUS
10
124.185
20
-97.2677
11
124.28
21
-97.2964
0
LINE
8
BLACK
6
CONTINUOUS
10
124.28
20
-97.2964
11
124.28
21
-97.2965
0
LINE
8
BLACK
6
CONTINUOUS
10
124.28
20
-97.2965
11
124.282
21
-97.2974
0
LINE
8
BLACK
6
CONTINUOUS
10
124.282
20
-97.2974
11
124.284
21
-97.2983
0
LINE
8
BLACK
6
CONTINUOUS
10
124.284
20
-97.2983
11
124.372
21
-97.3448
0
LINE
8
BLACK
6
CONTINUOUS
10
124.372
20
-97.3448
11
124.372
21
-97.345
0
LINE
8
BLACK
6
CONTINUOUS
10
124.372
20
-97.345
11
124.374
21
-97.3462
0
LINE
8
BLACK
6
CONTINUOUS
10
124.374
20
-97.3462
11
124.376
21
-97.3475
0
LINE
8
BLACK
6
CONTINUOUS
10
124.376
20
-97.3475
11
124.453
21
-97.4102
0
LINE
8
BLACK
6
CONTINUOUS
10
124.453
20
-97.4102
11
124.453
21
-97.4104
0
LINE
8
BLACK
6
CONTINUOUS
10
124.453
20
-97.4104
11
124.455
21
-97.412
0
LINE
8
BLACK
6
CONTINUOUS
10
124.455
20
-97.412
11
124.456
21
-97.4136
0
LINE
8
BLACK
6
CONTINUOUS
10
124.456
20
-97.4136
11
124.519
21
-97.49
0
LINE
8
BLACK
6
CONTINUOUS
10
124.519
20
-97.49
11
124.52
21
-97.4903
0
LINE
8
BLACK
6
CONTINUOUS
10
124.52
20
-97.4903
11
124.521
21
-97.4922
0
LINE
8
BLACK
6
CONTINUOUS
10
124.521
20
-97.4922
11
124.522
21
-97.494
0
LINE
8
BLACK
6
CONTINUOUS
10
124.522
20
-97.494
11
124.569
21
-97.5813
0
LINE
8
BLACK
6
CONTINUOUS
10
124.569
20
-97.5813
11
124.569
21
-97.5816
0
LINE
8
BLACK
6
CONTINUOUS
10
124.569
20
-97.5816
11
124.57
21
-97.5837
0
LINE
8
BLACK
6
CONTINUOUS
10
124.57
20
-97.5837
11
124.571
21
-97.5857
0
LINE
8
BLACK
6
CONTINUOUS
10
124.571
20
-97.5857
11
124.601
21
-97.6805
0
LINE
8
BLACK
6
CONTINUOUS
10
124.601
20
-97.6805
11
124.601
21
-97.6808
0
LINE
8
BLACK
6
CONTINUOUS
10
124.601
20
-97.6808
11
124.601
21
-97.683
0
LINE
8
BLACK
6
CONTINUOUS
10
124.601
20
-97.683
11
124.601
21
-97.6852
0
LINE
8
BLACK
6
CONTINUOUS
10
124.601
20
-97.6852
11
124.612
21
-97.7838
0
LINE
8
BLACK
6
CONTINUOUS
10
124.612
20
-97.7838
11
124.612
21
-97.7842
0
LINE
8
BLACK
6
CONTINUOUS
10
124.612
20
-97.7842
11
124.612
21
-97.7853
0
LINE
8
BLACK
6
CONTINUOUS
10
124.612
20
-97.7853
11
124.612
21
-97.7864
0
LINE
8
BLACK
6
CONTINUOUS
10
124.612
20
-97.7864
11
124.612
21
-97.7887
0
LINE
8
BLACK
6
CONTINUOUS
10
124.612
20
-97.7887
11
124.612
21
-97.7888
0
LINE
8
BLACK
6
CONTINUOUS
10
124.612
20
-97.7888
11
124.612
21
-116.332
0
LINE
8
BLACK
6
CONTINUOUS
10
124.612
20
-116.332
11
124.612
21
-116.334
0
LINE
8
BLACK
6
CONTINUOUS
10
124.612
20
-116.334
11
124.622
21
-116.429
0
LINE
8
BLACK
6
CONTINUOUS
10
124.622
20
-116.429
11
124.65
21
-116.519
0
LINE
8
BLACK
6
CONTINUOUS
10
124.65
20
-116.519
11
124.695
21
-116.602
0
LINE
8
BLACK
6
CONTINUOUS
10
124.695
20
-116.602
11
124.755
21
-116.675
0
LINE
8
BLACK
6
CONTINUOUS
10
124.755
20
-116.675
11
124.828
21
-116.734
0
LINE
8
BLACK
6
CONTINUOUS
10
124.828
20
-116.734
11
124.911
21
-116.778
0
LINE
8
BLACK
6
CONTINUOUS
10
124.911
20
-116.778
11
125.001
21
-116.806
0
LINE
8
BLACK
6
CONTINUOUS
10
125.001
20
-116.806
11
125.096
21
-116.815
0
LINE
8
BLACK
6
CONTINUOUS
10
125.096
20
-116.815
11
150.123
21
-116.817
0
LINE
8
BLACK
6
CONTINUOUS
10
150.123
20
-116.817
11
150.123
21
-116.817
0
LINE
8
BLACK
6
CONTINUOUS
10
150.123
20
-116.817
11
150.126
21
-116.817
0
LINE
8
BLACK
6
CONTINUOUS
10
150.126
20
-116.817
11
150.233
21
-116.806
0
LINE
8
BLACK
6
CONTINUOUS
10
150.233
20
-116.806
11
150.334
21
-116.774
0
LINE
8
BLACK
6
CONTINUOUS
10
150.334
20
-116.774
11
150.428
21
-116.724
0
LINE
8
BLACK
6
CONTINUOUS
10
150.428
20
-116.724
11
150.51
21
-116.656
0
LINE
8
BLACK
6
CONTINUOUS
10
150.51
20
-116.656
11
150.577
21
-116.574
0
LINE
8
BLACK
6
CONTINUOUS
10
150.577
20
-116.574
11
150.627
21
-116.48
0
LINE
8
BLACK
6
CONTINUOUS
10
150.627
20
-116.48
11
150.658
21
-116.378
0
LINE
8
BLACK
6
CONTINUOUS
10
150.658
20
-116.378
11
150.668
21
-116.271
0
LINE
8
BLACK
6
CONTINUOUS
10
150.668
20
-116.271
11
150.688
21
-76.6321
0
LINE
8
BLACK
6
CONTINUOUS
10
150.688
20
-76.6321
11
150.688
21
-76.6286
0
LINE
8
BLACK
6
CONTINUOUS
10
150.688
20
-76.6286
11
150.675
21
-76.5003
0
LINE
8
BLACK
6
CONTINUOUS
10
150.675
20
-76.5003
11
150.637
21
-76.3782
0
LINE
8
BLACK
6
CONTINUOUS
10
150.637
20
-76.3782
11
150.576
21
-76.2658
0
LINE
8
BLACK
6
CONTINUOUS
10
150.576
20
-76.2658
11
150.494
21
-76.1673
0
LINE
8
BLACK
6
CONTINUOUS
10
150.494
20
-76.1673
11
150.395
21
-76.0865
0
LINE
8
BLACK
6
CONTINUOUS
10
150.395
20
-76.0865
11
150.283
21
-76.0265
0
LINE
8
BLACK
6
CONTINUOUS
10
150.283
20
-76.0265
11
150.16
21
-75.9896
0
LINE
8
BLACK
6
CONTINUOUS
10
150.16
20
-75.9896
11
150.032
21
-75.977
0
LINE
8
BLACK
6
CONTINUOUS
10
150.032
20
-75.977
11
132.263
21
-75.967
0
LINE
8
BLACK
6
CONTINUOUS
10
132.263
20
-75.967
11
132.256
21
-75.9671
0
LINE
8
BLACK
6
CONTINUOUS
10
132.256
20
-75.9671
11
132.2
21
-75.9742
0
LINE
8
BLACK
6
CONTINUOUS
10
132.2
20
-75.9742
11
132.147
21
-75.9918
0
LINE
8
BLACK
6
CONTINUOUS
10
132.147
20
-75.9918
11
132.099
21
-76.0193
0
LINE
8
BLACK
6
CONTINUOUS
10
132.099
20
-76.0193
11
132.057
21
-76.0556
0
LINE
8
BLACK
6
CONTINUOUS
10
132.057
20
-76.0556
11
132.022
21
-76.0995
0
LINE
8
BLACK
6
CONTINUOUS
10
132.022
20
-76.0995
11
131.997
21
-76.1491
0
LINE
8
BLACK
6
CONTINUOUS
10
131.997
20
-76.1491
11
131.982
21
-76.2027
0
LINE
8
BLACK
6
CONTINUOUS
10
131.982
20
-76.2027
11
131.978
21
-76.2581
0
LINE
8
BLACK
6
CONTINUOUS
10
131.978
20
-76.2581
11
131.985
21
-76.3133
0
LINE
8
BLACK
6
CONTINUOUS
10
131.985
20
-76.3133
11
132.002
21
-76.3662
0
LINE
8
BLACK
6
CONTINUOUS
10
132.002
20
-76.3662
11
132.03
21
-76.4168
0
LINE
8
BLACK
6
CONTINUOUS
10
132.03
20
-76.4168
11
133.196
21
-78.4612
0
LINE
8
BLACK
6
CONTINUOUS
10
133.196
20
-78.4612
11
133.197
21
-78.4646
0
LINE
8
BLACK
6
CONTINUOUS
10
133.197
20
-78.4646
11
133.197
21
-78.4649
0
LINE
8
BLACK
6
CONTINUOUS
10
133.197
20
-78.4649
11
133.219
21
-78.5162
0
LINE
8
BLACK
6
CONTINUOUS
10
133.219
20
-78.5162
11
133.219
21
-78.5165
0
LINE
8
BLACK
6
CONTINUOUS
10
133.219
20
-78.5165
11
133.219
21
-78.5187
0
LINE
8
BLACK
6
CONTINUOUS
10
133.219
20
-78.5187
11
133.22
21
-78.5208
0
LINE
8
BLACK
6
CONTINUOUS
10
133.22
20
-78.5208
11
133.231
21
-78.5773
0
LINE
8
BLACK
6
CONTINUOUS
10
133.231
20
-78.5773
11
133.231
21
-78.5777
0
LINE
8
BLACK
6
CONTINUOUS
10
133.231
20
-78.5777
11
133.232
21
-78.5799
0
LINE
8
BLACK
6
CONTINUOUS
10
133.232
20
-78.5799
11
133.232
21
-78.5822
0
LINE
8
BLACK
6
CONTINUOUS
10
133.232
20
-78.5822
11
133.232
21
-78.6398
0
LINE
8
BLACK
6
CONTINUOUS
10
133.232
20
-78.6398
11
133.232
21
-78.6402
0
LINE
8
BLACK
6
CONTINUOUS
10
133.232
20
-78.6402
11
133.232
21
-78.6424
0
LINE
8
BLACK
6
CONTINUOUS
10
133.232
20
-78.6424
11
133.232
21
-78.6447
0
LINE
8
BLACK
6
CONTINUOUS
10
133.232
20
-78.6447
11
133.22
21
-78.7012
0
LINE
8
BLACK
6
CONTINUOUS
10
133.22
20
-78.7012
11
133.22
21
-78.7016
0
LINE
8
BLACK
6
CONTINUOUS
10
133.22
20
-78.7016
11
133.22
21
-78.7038
0
LINE
8
BLACK
6
CONTINUOUS
10
133.22
20
-78.7038
11
133.219
21
-78.7059
0
LINE
8
BLACK
6
CONTINUOUS
10
133.219
20
-78.7059
11
133.197
21
-78.7593
0
LINE
8
BLACK
6
CONTINUOUS
10
133.197
20
-78.7593
11
133.197
21
-78.7596
0
LINE
8
BLACK
6
CONTINUOUS
10
133.197
20
-78.7596
11
133.196
21
-78.7616
0
LINE
8
BLACK
6
CONTINUOUS
10
133.196
20
-78.7616
11
133.195
21
-78.7636
0
LINE
8
BLACK
6
CONTINUOUS
10
133.195
20
-78.7636
11
133.163
21
-78.8117
0
LINE
8
BLACK
6
CONTINUOUS
10
133.163
20
-78.8117
11
133.163
21
-78.812
0
LINE
8
BLACK
6
CONTINUOUS
10
133.163
20
-78.812
11
133.162
21
-78.8137
0
LINE
8
BLACK
6
CONTINUOUS
10
133.162
20
-78.8137
11
133.16
21
-78.8155
0
LINE
8
BLACK
6
CONTINUOUS
10
133.16
20
-78.8155
11
133.12
21
-78.8565
0
LINE
8
BLACK
6
CONTINUOUS
10
133.12
20
-78.8565
11
133.12
21
-78.8565
0
LINE
8
BLACK
6
CONTINUOUS
10
133.12
20
-78.8565
11
133.12
21
-78.8565
0
LINE
8
BLACK
6
CONTINUOUS
10
133.12
20
-78.8565
11
133.119
21
-78.8567
0
LINE
8
BLACK
6
CONTINUOUS
10
133.119
20
-78.8567
11
133.118
21
-78.8582
0
LINE
8
BLACK
6
CONTINUOUS
10
133.118
20
-78.8582
11
133.116
21
-78.8596
0
LINE
8
BLACK
6
CONTINUOUS
10
133.116
20
-78.8596
11
133.068
21
-78.892
0
LINE
8
BLACK
6
CONTINUOUS
10
133.068
20
-78.892
11
133.068
21
-78.8922
0
LINE
8
BLACK
6
CONTINUOUS
10
133.068
20
-78.8922
11
133.067
21
-78.8927
0
LINE
8
BLACK
6
CONTINUOUS
10
133.067
20
-78.8927
11
133.066
21
-78.8933
0
LINE
8
BLACK
6
CONTINUOUS
10
133.066
20
-78.8933
11
133.065
21
-78.8939
0
LINE
8
BLACK
6
CONTINUOUS
10
133.065
20
-78.8939
11
122.459
21
-84.8418
0
LINE
8
BLACK
6
CONTINUOUS
10
122.459
20
-84.8418
11
122.458
21
-84.8421
0
LINE
8
BLACK
6
CONTINUOUS
10
122.458
20
-84.8421
11
122.426
21
-84.8574
0
LINE
8
BLACK
6
CONTINUOUS
10
122.426
20
-84.8574
11
122.425
21
-84.8575
0
LINE
8
BLACK
6
CONTINUOUS
10
122.425
20
-84.8575
11
122.423
21
-84.8582
0
LINE
8
BLACK
6
CONTINUOUS
10
122.423
20
-84.8582
11
122.421
21
-84.859
0
LINE
8
BLACK
6
CONTINUOUS
10
122.421
20
-84.859
11
122.386
21
-84.8678
0
LINE
8
BLACK
6
CONTINUOUS
10
122.386
20
-84.8678
11
122.386
21
-84.8679
0
LINE
8
BLACK
6
CONTINUOUS
10
122.386
20
-84.8679
11
122.384
21
-84.8682
0
LINE
8
BLACK
6
CONTINUOUS
10
122.384
20
-84.8682
11
122.382
21
-84.8685
0
LINE
8
BLACK
6
CONTINUOUS
10
122.382
20
-84.8685
11
122.346
21
-84.8703
0
LINE
8
BLACK
6
CONTINUOUS
10
122.346
20
-84.8703
11
122.346
21
-84.8703
0
LINE
8
BLACK
6
CONTINUOUS
10
122.346
20
-84.8703
11
122.346
21
-84.8704
  0
ENDSEC
  0
EOF
