  0
SECTION
  2
HEADER
  9
$ANGBASE
  50
0.0
  9
$ANGDIR
  70
1
  9
$MEASUREMENT
  70
1
  0
ENDSEC
  0
SECTION
  2
TABLES
  0
TABLE
  2
LTYPE
  70
4
  0
LTYPE
  5
40F
  2
CONTINUOUS
  70
0
  3
Solid line
  72
65
  73
0
  40
0.0
  0
LTYPE
  5
410
  2
DASHDOT
 70
0
  3
Dash Dot ____ _ ____ _
 72
65
 73
4
 40
2.0
 49
1.25
 49
-0.25
 49
0.25
 49
-0.25
  0
LTYPE
  5
411
  2
DASHED
 70
0
  3
Dashed __ __ __ __ __
 72
65
 73
2
 40
0.75
 49
0.5
 49
-0.25
  0
LTYPE
  5
43B
  2
DOTTED
 70
0
  3
Dotted .  .  .  .
 72
65
 73
2
 40
0.2
 49
0.0
 49
-0.2
  0
ENDTAB
  0
TABLE
  2
STYLE
  70
4
  0
STYLE
  2
KICAD
  70
0
  40
0
  41
1
  42
1
  50
0
  71
0
  3
isocp.shx
  0
STYLE
  2
KICADB
  70
0
  40
0
  41
1
  42
1
  50
0
  71
0
  3
isocp.shx
  0
STYLE
  2
KICADI
  70
0
  40
0
  41
1
  42
1
  50
15
  71
0
  3
isocp.shx
  0
STYLE
  2
KICADBI
  70
0
  40
0
  41
1
  42
1
  50
15
  71
0
  3
isocp.shx
  0
ENDTAB
  0
TABLE
  2
LAYER
  70
1
  0
LAYER
  2
BLACK
  70
0
  62
7
  6
CONTINUOUS
  0
ENDTAB
  0
ENDSEC
  0
SECTION
  2
ENTITIES
0
LINE
8
BLACK
6
CONTINUOUS
10
149.213
20
-113.239
11
149.532
21
-113.371
0
LINE
8
BLACK
6
CONTINUOUS
10
149.532
20
-113.371
11
149.819
21
-113.563
0
LINE
8
BLACK
6
CONTINUOUS
10
149.819
20
-113.563
11
150.062
21
-113.806
0
LINE
8
BLACK
6
CONTINUOUS
10
150.062
20
-113.806
11
150.254
21
-114.093
0
LINE
8
BLACK
6
CONTINUOUS
10
150.254
20
-114.093
11
150.386
21
-114.412
0
LINE
8
BLACK
6
CONTINUOUS
10
150.386
20
-114.412
11
150.453
21
-114.75
0
LINE
8
BLACK
6
CONTINUOUS
10
150.453
20
-114.75
11
150.453
21
-115.094
0
LINE
8
BLACK
6
CONTINUOUS
10
150.453
20
-115.094
11
150.386
21
-115.432
0
LINE
8
BLACK
6
CONTINUOUS
10
150.386
20
-115.432
11
150.254
21
-115.751
0
LINE
8
BLACK
6
CONTINUOUS
10
150.254
20
-115.751
11
150.062
21
-116.038
0
LINE
8
BLACK
6
CONTINUOUS
10
150.062
20
-116.038
11
149.819
21
-116.281
0
LINE
8
BLACK
6
CONTINUOUS
10
149.819
20
-116.281
11
149.532
21
-116.473
0
LINE
8
BLACK
6
CONTINUOUS
10
149.532
20
-116.473
11
149.213
21
-116.605
0
LINE
8
BLACK
6
CONTINUOUS
10
149.213
20
-116.605
11
148.875
21
-116.672
0
LINE
8
BLACK
6
CONTINUOUS
10
148.875
20
-116.672
11
148.531
21
-116.672
0
LINE
8
BLACK
6
CONTINUOUS
10
148.531
20
-116.672
11
148.193
21
-116.605
0
LINE
8
BLACK
6
CONTINUOUS
10
148.193
20
-116.605
11
147.874
21
-116.473
0
LINE
8
BLACK
6
CONTINUOUS
10
147.874
20
-116.473
11
147.587
21
-116.281
0
LINE
8
BLACK
6
CONTINUOUS
10
147.587
20
-116.281
11
147.344
21
-116.038
0
LINE
8
BLACK
6
CONTINUOUS
10
147.344
20
-116.038
11
147.152
21
-115.751
0
LINE
8
BLACK
6
CONTINUOUS
10
147.152
20
-115.751
11
147.02
21
-115.432
0
LINE
8
BLACK
6
CONTINUOUS
10
147.02
20
-115.432
11
146.953
21
-115.094
0
LINE
8
BLACK
6
CONTINUOUS
10
146.953
20
-115.094
11
146.953
21
-114.75
0
LINE
8
BLACK
6
CONTINUOUS
10
146.953
20
-114.75
11
147.02
21
-114.412
0
LINE
8
BLACK
6
CONTINUOUS
10
147.02
20
-114.412
11
147.152
21
-114.093
0
LINE
8
BLACK
6
CONTINUOUS
10
147.152
20
-114.093
11
147.344
21
-113.806
0
LINE
8
BLACK
6
CONTINUOUS
10
147.344
20
-113.806
11
147.587
21
-113.563
0
LINE
8
BLACK
6
CONTINUOUS
10
147.587
20
-113.563
11
147.874
21
-113.371
0
LINE
8
BLACK
6
CONTINUOUS
10
147.874
20
-113.371
11
148.193
21
-113.239
0
LINE
8
BLACK
6
CONTINUOUS
10
148.193
20
-113.239
11
148.531
21
-113.172
0
LINE
8
BLACK
6
CONTINUOUS
10
148.531
20
-113.172
11
148.875
21
-113.172
0
LINE
8
BLACK
6
CONTINUOUS
10
148.875
20
-113.172
11
149.213
21
-113.239
0
LINE
8
BLACK
6
CONTINUOUS
10
127.033
20
-113.199
11
127.352
21
-113.331
0
LINE
8
BLACK
6
CONTINUOUS
10
127.352
20
-113.331
11
127.639
21
-113.523
0
LINE
8
BLACK
6
CONTINUOUS
10
127.639
20
-113.523
11
127.882
21
-113.766
0
LINE
8
BLACK
6
CONTINUOUS
10
127.882
20
-113.766
11
128.074
21
-114.053
0
LINE
8
BLACK
6
CONTINUOUS
10
128.074
20
-114.053
11
128.206
21
-114.372
0
LINE
8
BLACK
6
CONTINUOUS
10
128.206
20
-114.372
11
128.273
21
-114.71
0
LINE
8
BLACK
6
CONTINUOUS
10
128.273
20
-114.71
11
128.273
21
-115.054
0
LINE
8
BLACK
6
CONTINUOUS
10
128.273
20
-115.054
11
128.206
21
-115.392
0
LINE
8
BLACK
6
CONTINUOUS
10
128.206
20
-115.392
11
128.074
21
-115.711
0
LINE
8
BLACK
6
CONTINUOUS
10
128.074
20
-115.711
11
127.882
21
-115.998
0
LINE
8
BLACK
6
CONTINUOUS
10
127.882
20
-115.998
11
127.639
21
-116.241
0
LINE
8
BLACK
6
CONTINUOUS
10
127.639
20
-116.241
11
127.352
21
-116.433
0
LINE
8
BLACK
6
CONTINUOUS
10
127.352
20
-116.433
11
127.033
21
-116.565
0
LINE
8
BLACK
6
CONTINUOUS
10
127.033
20
-116.565
11
126.695
21
-116.632
0
LINE
8
BLACK
6
CONTINUOUS
10
126.695
20
-116.632
11
126.351
21
-116.632
0
LINE
8
BLACK
6
CONTINUOUS
10
126.351
20
-116.632
11
126.013
21
-116.565
0
LINE
8
BLACK
6
CONTINUOUS
10
126.013
20
-116.565
11
125.694
21
-116.433
0
LINE
8
BLACK
6
CONTINUOUS
10
125.694
20
-116.433
11
125.407
21
-116.241
0
LINE
8
BLACK
6
CONTINUOUS
10
125.407
20
-116.241
11
125.164
21
-115.998
0
LINE
8
BLACK
6
CONTINUOUS
10
125.164
20
-115.998
11
124.972
21
-115.711
0
LINE
8
BLACK
6
CONTINUOUS
10
124.972
20
-115.711
11
124.84
21
-115.392
0
LINE
8
BLACK
6
CONTINUOUS
10
124.84
20
-115.392
11
124.773
21
-115.054
0
LINE
8
BLACK
6
CONTINUOUS
10
124.773
20
-115.054
11
124.773
21
-114.71
0
LINE
8
BLACK
6
CONTINUOUS
10
124.773
20
-114.71
11
124.84
21
-114.372
0
LINE
8
BLACK
6
CONTINUOUS
10
124.84
20
-114.372
11
124.972
21
-114.053
0
LINE
8
BLACK
6
CONTINUOUS
10
124.972
20
-114.053
11
125.164
21
-113.766
0
LINE
8
BLACK
6
CONTINUOUS
10
125.164
20
-113.766
11
125.407
21
-113.523
0
LINE
8
BLACK
6
CONTINUOUS
10
125.407
20
-113.523
11
125.694
21
-113.331
0
LINE
8
BLACK
6
CONTINUOUS
10
125.694
20
-113.331
11
126.013
21
-113.199
0
LINE
8
BLACK
6
CONTINUOUS
10
126.013
20
-113.199
11
126.351
21
-113.132
0
LINE
8
BLACK
6
CONTINUOUS
10
126.351
20
-113.132
11
126.695
21
-113.132
0
LINE
8
BLACK
6
CONTINUOUS
10
126.695
20
-113.132
11
127.033
21
-113.199
0
LINE
8
BLACK
6
CONTINUOUS
10
135.896
20
-110.112
11
136.056
21
-110.178
0
LINE
8
BLACK
6
CONTINUOUS
10
136.056
20
-110.178
11
136.199
21
-110.274
0
LINE
8
BLACK
6
CONTINUOUS
10
136.199
20
-110.274
11
136.322
21
-110.396
0
LINE
8
BLACK
6
CONTINUOUS
10
136.322
20
-110.396
11
136.417
21
-110.539
0
LINE
8
BLACK
6
CONTINUOUS
10
136.417
20
-110.539
11
136.484
21
-110.699
0
LINE
8
BLACK
6
CONTINUOUS
10
136.484
20
-110.699
11
136.517
21
-110.868
0
LINE
8
BLACK
6
CONTINUOUS
10
136.517
20
-110.868
11
136.517
21
-111.041
0
LINE
8
BLACK
6
CONTINUOUS
10
136.517
20
-111.041
11
136.484
21
-111.21
0
LINE
8
BLACK
6
CONTINUOUS
10
136.484
20
-111.21
11
136.417
21
-111.369
0
LINE
8
BLACK
6
CONTINUOUS
10
136.417
20
-111.369
11
136.322
21
-111.513
0
LINE
8
BLACK
6
CONTINUOUS
10
136.322
20
-111.513
11
136.199
21
-111.635
0
LINE
8
BLACK
6
CONTINUOUS
10
136.199
20
-111.635
11
136.056
21
-111.731
0
LINE
8
BLACK
6
CONTINUOUS
10
136.056
20
-111.731
11
135.896
21
-111.797
0
LINE
8
BLACK
6
CONTINUOUS
10
135.896
20
-111.797
11
135.727
21
-111.83
0
LINE
8
BLACK
6
CONTINUOUS
10
135.727
20
-111.83
11
135.555
21
-111.83
0
LINE
8
BLACK
6
CONTINUOUS
10
135.555
20
-111.83
11
135.385
21
-111.797
0
LINE
8
BLACK
6
CONTINUOUS
10
135.385
20
-111.797
11
135.226
21
-111.731
0
LINE
8
BLACK
6
CONTINUOUS
10
135.226
20
-111.731
11
135.082
21
-111.635
0
LINE
8
BLACK
6
CONTINUOUS
10
135.082
20
-111.635
11
134.96
21
-111.513
0
LINE
8
BLACK
6
CONTINUOUS
10
134.96
20
-111.513
11
134.864
21
-111.369
0
LINE
8
BLACK
6
CONTINUOUS
10
134.864
20
-111.369
11
134.798
21
-111.21
0
LINE
8
BLACK
6
CONTINUOUS
10
134.798
20
-111.21
11
134.765
21
-111.041
0
LINE
8
BLACK
6
CONTINUOUS
10
134.765
20
-111.041
11
134.765
21
-110.868
0
LINE
8
BLACK
6
CONTINUOUS
10
134.765
20
-110.868
11
134.798
21
-110.699
0
LINE
8
BLACK
6
CONTINUOUS
10
134.798
20
-110.699
11
134.864
21
-110.539
0
LINE
8
BLACK
6
CONTINUOUS
10
134.864
20
-110.539
11
134.96
21
-110.396
0
LINE
8
BLACK
6
CONTINUOUS
10
134.96
20
-110.396
11
135.082
21
-110.274
0
LINE
8
BLACK
6
CONTINUOUS
10
135.082
20
-110.274
11
135.226
21
-110.178
0
LINE
8
BLACK
6
CONTINUOUS
10
135.226
20
-110.178
11
135.385
21
-110.112
0
LINE
8
BLACK
6
CONTINUOUS
10
135.385
20
-110.112
11
135.555
21
-110.078
0
LINE
8
BLACK
6
CONTINUOUS
10
135.555
20
-110.078
11
135.727
21
-110.078
0
LINE
8
BLACK
6
CONTINUOUS
10
135.727
20
-110.078
11
135.896
21
-110.112
0
LINE
8
BLACK
6
CONTINUOUS
10
129.741
20
-106.287
11
130.103
21
-106.437
0
LINE
8
BLACK
6
CONTINUOUS
10
130.103
20
-106.437
11
130.43
21
-106.655
0
LINE
8
BLACK
6
CONTINUOUS
10
130.43
20
-106.655
11
130.708
21
-106.933
0
LINE
8
BLACK
6
CONTINUOUS
10
130.708
20
-106.933
11
130.926
21
-107.26
0
LINE
8
BLACK
6
CONTINUOUS
10
130.926
20
-107.26
11
131.076
21
-107.622
0
LINE
8
BLACK
6
CONTINUOUS
10
131.076
20
-107.622
11
131.153
21
-108.008
0
LINE
8
BLACK
6
CONTINUOUS
10
131.153
20
-108.008
11
131.153
21
-108.4
0
LINE
8
BLACK
6
CONTINUOUS
10
131.153
20
-108.4
11
131.076
21
-108.786
0
LINE
8
BLACK
6
CONTINUOUS
10
131.076
20
-108.786
11
130.926
21
-109.148
0
LINE
8
BLACK
6
CONTINUOUS
10
130.926
20
-109.148
11
130.708
21
-109.475
0
LINE
8
BLACK
6
CONTINUOUS
10
130.708
20
-109.475
11
130.43
21
-109.753
0
LINE
8
BLACK
6
CONTINUOUS
10
130.43
20
-109.753
11
130.103
21
-109.971
0
LINE
8
BLACK
6
CONTINUOUS
10
130.103
20
-109.971
11
129.741
21
-110.121
0
LINE
8
BLACK
6
CONTINUOUS
10
129.741
20
-110.121
11
129.355
21
-110.198
0
LINE
8
BLACK
6
CONTINUOUS
10
129.355
20
-110.198
11
128.963
21
-110.198
0
LINE
8
BLACK
6
CONTINUOUS
10
128.963
20
-110.198
11
128.577
21
-110.121
0
LINE
8
BLACK
6
CONTINUOUS
10
128.577
20
-110.121
11
128.215
21
-109.971
0
LINE
8
BLACK
6
CONTINUOUS
10
128.215
20
-109.971
11
127.888
21
-109.753
0
LINE
8
BLACK
6
CONTINUOUS
10
127.888
20
-109.753
11
127.61
21
-109.475
0
LINE
8
BLACK
6
CONTINUOUS
10
127.61
20
-109.475
11
127.392
21
-109.148
0
LINE
8
BLACK
6
CONTINUOUS
10
127.392
20
-109.148
11
127.242
21
-108.786
0
LINE
8
BLACK
6
CONTINUOUS
10
127.242
20
-108.786
11
127.165
21
-108.4
0
LINE
8
BLACK
6
CONTINUOUS
10
127.165
20
-108.4
11
127.165
21
-108.008
0
LINE
8
BLACK
6
CONTINUOUS
10
127.165
20
-108.008
11
127.242
21
-107.622
0
LINE
8
BLACK
6
CONTINUOUS
10
127.242
20
-107.622
11
127.392
21
-107.26
0
LINE
8
BLACK
6
CONTINUOUS
10
127.392
20
-107.26
11
127.61
21
-106.933
0
LINE
8
BLACK
6
CONTINUOUS
10
127.61
20
-106.933
11
127.888
21
-106.655
0
LINE
8
BLACK
6
CONTINUOUS
10
127.888
20
-106.655
11
128.215
21
-106.437
0
LINE
8
BLACK
6
CONTINUOUS
10
128.215
20
-106.437
11
128.577
21
-106.287
0
LINE
8
BLACK
6
CONTINUOUS
10
128.577
20
-106.287
11
128.963
21
-106.21
0
LINE
8
BLACK
6
CONTINUOUS
10
128.963
20
-106.21
11
129.355
21
-106.21
0
LINE
8
BLACK
6
CONTINUOUS
10
129.355
20
-106.21
11
129.741
21
-106.287
0
LINE
8
BLACK
6
CONTINUOUS
10
144.844
20
-106.739
11
145.121
21
-106.853
0
LINE
8
BLACK
6
CONTINUOUS
10
145.121
20
-106.853
11
145.37
21
-107.02
0
LINE
8
BLACK
6
CONTINUOUS
10
145.37
20
-107.02
11
145.583
21
-107.233
0
LINE
8
BLACK
6
CONTINUOUS
10
145.583
20
-107.233
11
145.75
21
-107.482
0
LINE
8
BLACK
6
CONTINUOUS
10
145.75
20
-107.482
11
145.864
21
-107.759
0
LINE
8
BLACK
6
CONTINUOUS
10
145.864
20
-107.759
11
145.923
21
-108.054
0
LINE
8
BLACK
6
CONTINUOUS
10
145.923
20
-108.054
11
145.923
21
-108.354
0
LINE
8
BLACK
6
CONTINUOUS
10
145.923
20
-108.354
11
145.864
21
-108.649
0
LINE
8
BLACK
6
CONTINUOUS
10
145.864
20
-108.649
11
145.75
21
-108.926
0
LINE
8
BLACK
6
CONTINUOUS
10
145.75
20
-108.926
11
145.583
21
-109.175
0
LINE
8
BLACK
6
CONTINUOUS
10
145.583
20
-109.175
11
145.37
21
-109.388
0
LINE
8
BLACK
6
CONTINUOUS
10
145.37
20
-109.388
11
145.121
21
-109.555
0
LINE
8
BLACK
6
CONTINUOUS
10
145.121
20
-109.555
11
144.844
21
-109.669
0
LINE
8
BLACK
6
CONTINUOUS
10
144.844
20
-109.669
11
144.549
21
-109.728
0
LINE
8
BLACK
6
CONTINUOUS
10
144.549
20
-109.728
11
144.249
21
-109.728
0
LINE
8
BLACK
6
CONTINUOUS
10
144.249
20
-109.728
11
143.954
21
-109.669
0
LINE
8
BLACK
6
CONTINUOUS
10
143.954
20
-109.669
11
143.677
21
-109.555
0
LINE
8
BLACK
6
CONTINUOUS
10
143.677
20
-109.555
11
143.428
21
-109.388
0
LINE
8
BLACK
6
CONTINUOUS
10
143.428
20
-109.388
11
143.215
21
-109.175
0
LINE
8
BLACK
6
CONTINUOUS
10
143.215
20
-109.175
11
143.048
21
-108.926
0
LINE
8
BLACK
6
CONTINUOUS
10
143.048
20
-108.926
11
142.934
21
-108.649
0
LINE
8
BLACK
6
CONTINUOUS
10
142.934
20
-108.649
11
142.875
21
-108.354
0
LINE
8
BLACK
6
CONTINUOUS
10
142.875
20
-108.354
11
142.875
21
-108.054
0
LINE
8
BLACK
6
CONTINUOUS
10
142.875
20
-108.054
11
142.934
21
-107.759
0
LINE
8
BLACK
6
CONTINUOUS
10
142.934
20
-107.759
11
143.048
21
-107.482
0
LINE
8
BLACK
6
CONTINUOUS
10
143.048
20
-107.482
11
143.215
21
-107.233
0
LINE
8
BLACK
6
CONTINUOUS
10
143.215
20
-107.233
11
143.428
21
-107.02
0
LINE
8
BLACK
6
CONTINUOUS
10
143.428
20
-107.02
11
143.677
21
-106.853
0
LINE
8
BLACK
6
CONTINUOUS
10
143.677
20
-106.853
11
143.954
21
-106.739
0
LINE
8
BLACK
6
CONTINUOUS
10
143.954
20
-106.739
11
144.249
21
-106.68
0
LINE
8
BLACK
6
CONTINUOUS
10
144.249
20
-106.68
11
144.549
21
-106.68
0
LINE
8
BLACK
6
CONTINUOUS
10
144.549
20
-106.68
11
144.844
21
-106.739
0
LINE
8
BLACK
6
CONTINUOUS
10
134.626
20
-107.912
11
134.786
21
-107.978
0
LINE
8
BLACK
6
CONTINUOUS
10
134.786
20
-107.978
11
134.929
21
-108.074
0
LINE
8
BLACK
6
CONTINUOUS
10
134.929
20
-108.074
11
135.052
21
-108.196
0
LINE
8
BLACK
6
CONTINUOUS
10
135.052
20
-108.196
11
135.147
21
-108.339
0
LINE
8
BLACK
6
CONTINUOUS
10
135.147
20
-108.339
11
135.214
21
-108.499
0
LINE
8
BLACK
6
CONTINUOUS
10
135.214
20
-108.499
11
135.247
21
-108.668
0
LINE
8
BLACK
6
CONTINUOUS
10
135.247
20
-108.668
11
135.247
21
-108.841
0
LINE
8
BLACK
6
CONTINUOUS
10
135.247
20
-108.841
11
135.214
21
-109.01
0
LINE
8
BLACK
6
CONTINUOUS
10
135.214
20
-109.01
11
135.147
21
-109.17
0
LINE
8
BLACK
6
CONTINUOUS
10
135.147
20
-109.17
11
135.052
21
-109.313
0
LINE
8
BLACK
6
CONTINUOUS
10
135.052
20
-109.313
11
134.929
21
-109.435
0
LINE
8
BLACK
6
CONTINUOUS
10
134.929
20
-109.435
11
134.786
21
-109.531
0
LINE
8
BLACK
6
CONTINUOUS
10
134.786
20
-109.531
11
134.626
21
-109.597
0
LINE
8
BLACK
6
CONTINUOUS
10
134.626
20
-109.597
11
134.457
21
-109.631
0
LINE
8
BLACK
6
CONTINUOUS
10
134.457
20
-109.631
11
134.285
21
-109.631
0
LINE
8
BLACK
6
CONTINUOUS
10
134.285
20
-109.631
11
134.115
21
-109.597
0
LINE
8
BLACK
6
CONTINUOUS
10
134.115
20
-109.597
11
133.956
21
-109.531
0
LINE
8
BLACK
6
CONTINUOUS
10
133.956
20
-109.531
11
133.812
21
-109.435
0
LINE
8
BLACK
6
CONTINUOUS
10
133.812
20
-109.435
11
133.69
21
-109.313
0
LINE
8
BLACK
6
CONTINUOUS
10
133.69
20
-109.313
11
133.594
21
-109.17
0
LINE
8
BLACK
6
CONTINUOUS
10
133.594
20
-109.17
11
133.528
21
-109.01
0
LINE
8
BLACK
6
CONTINUOUS
10
133.528
20
-109.01
11
133.495
21
-108.841
0
LINE
8
BLACK
6
CONTINUOUS
10
133.495
20
-108.841
11
133.495
21
-108.668
0
LINE
8
BLACK
6
CONTINUOUS
10
133.495
20
-108.668
11
133.528
21
-108.499
0
LINE
8
BLACK
6
CONTINUOUS
10
133.528
20
-108.499
11
133.594
21
-108.339
0
LINE
8
BLACK
6
CONTINUOUS
10
133.594
20
-108.339
11
133.69
21
-108.196
0
LINE
8
BLACK
6
CONTINUOUS
10
133.69
20
-108.196
11
133.812
21
-108.074
0
LINE
8
BLACK
6
CONTINUOUS
10
133.812
20
-108.074
11
133.956
21
-107.978
0
LINE
8
BLACK
6
CONTINUOUS
10
133.956
20
-107.978
11
134.115
21
-107.912
0
LINE
8
BLACK
6
CONTINUOUS
10
134.115
20
-107.912
11
134.285
21
-107.878
0
LINE
8
BLACK
6
CONTINUOUS
10
134.285
20
-107.878
11
134.457
21
-107.878
0
LINE
8
BLACK
6
CONTINUOUS
10
134.457
20
-107.878
11
134.626
21
-107.912
0
LINE
8
BLACK
6
CONTINUOUS
10
133.356
20
-105.712
11
133.516
21
-105.778
0
LINE
8
BLACK
6
CONTINUOUS
10
133.516
20
-105.778
11
133.659
21
-105.874
0
LINE
8
BLACK
6
CONTINUOUS
10
133.659
20
-105.874
11
133.782
21
-105.996
0
LINE
8
BLACK
6
CONTINUOUS
10
133.782
20
-105.996
11
133.877
21
-106.14
0
LINE
8
BLACK
6
CONTINUOUS
10
133.877
20
-106.14
11
133.944
21
-106.299
0
LINE
8
BLACK
6
CONTINUOUS
10
133.944
20
-106.299
11
133.977
21
-106.468
0
LINE
8
BLACK
6
CONTINUOUS
10
133.977
20
-106.468
11
133.977
21
-106.641
0
LINE
8
BLACK
6
CONTINUOUS
10
133.977
20
-106.641
11
133.944
21
-106.81
0
LINE
8
BLACK
6
CONTINUOUS
10
133.944
20
-106.81
11
133.877
21
-106.97
0
LINE
8
BLACK
6
CONTINUOUS
10
133.877
20
-106.97
11
133.782
21
-107.113
0
LINE
8
BLACK
6
CONTINUOUS
10
133.782
20
-107.113
11
133.659
21
-107.235
0
LINE
8
BLACK
6
CONTINUOUS
10
133.659
20
-107.235
11
133.516
21
-107.331
0
LINE
8
BLACK
6
CONTINUOUS
10
133.516
20
-107.331
11
133.356
21
-107.397
0
LINE
8
BLACK
6
CONTINUOUS
10
133.356
20
-107.397
11
133.187
21
-107.431
0
LINE
8
BLACK
6
CONTINUOUS
10
133.187
20
-107.431
11
133.015
21
-107.431
0
LINE
8
BLACK
6
CONTINUOUS
10
133.015
20
-107.431
11
132.845
21
-107.397
0
LINE
8
BLACK
6
CONTINUOUS
10
132.845
20
-107.397
11
132.686
21
-107.331
0
LINE
8
BLACK
6
CONTINUOUS
10
132.686
20
-107.331
11
132.542
21
-107.235
0
LINE
8
BLACK
6
CONTINUOUS
10
132.542
20
-107.235
11
132.42
21
-107.113
0
LINE
8
BLACK
6
CONTINUOUS
10
132.42
20
-107.113
11
132.324
21
-106.97
0
LINE
8
BLACK
6
CONTINUOUS
10
132.324
20
-106.97
11
132.258
21
-106.81
0
LINE
8
BLACK
6
CONTINUOUS
10
132.258
20
-106.81
11
132.225
21
-106.641
0
LINE
8
BLACK
6
CONTINUOUS
10
132.225
20
-106.641
11
132.225
21
-106.468
0
LINE
8
BLACK
6
CONTINUOUS
10
132.225
20
-106.468
11
132.258
21
-106.299
0
LINE
8
BLACK
6
CONTINUOUS
10
132.258
20
-106.299
11
132.324
21
-106.14
0
LINE
8
BLACK
6
CONTINUOUS
10
132.324
20
-106.14
11
132.42
21
-105.996
0
LINE
8
BLACK
6
CONTINUOUS
10
132.42
20
-105.996
11
132.542
21
-105.874
0
LINE
8
BLACK
6
CONTINUOUS
10
132.542
20
-105.874
11
132.686
21
-105.778
0
LINE
8
BLACK
6
CONTINUOUS
10
132.686
20
-105.778
11
132.845
21
-105.712
0
LINE
8
BLACK
6
CONTINUOUS
10
132.845
20
-105.712
11
133.015
21
-105.678
0
LINE
8
BLACK
6
CONTINUOUS
10
133.015
20
-105.678
11
133.187
21
-105.678
0
LINE
8
BLACK
6
CONTINUOUS
10
133.187
20
-105.678
11
133.356
21
-105.712
0
LINE
8
BLACK
6
CONTINUOUS
10
137.237
20
-103.975
11
137.365
21
-104.028
0
LINE
8
BLACK
6
CONTINUOUS
10
137.365
20
-104.028
11
137.479
21
-104.104
0
LINE
8
BLACK
6
CONTINUOUS
10
137.479
20
-104.104
11
137.577
21
-104.202
0
LINE
8
BLACK
6
CONTINUOUS
10
137.577
20
-104.202
11
137.653
21
-104.316
0
LINE
8
BLACK
6
CONTINUOUS
10
137.653
20
-104.316
11
137.706
21
-104.444
0
LINE
8
BLACK
6
CONTINUOUS
10
137.706
20
-104.444
11
137.733
21
-104.579
0
LINE
8
BLACK
6
CONTINUOUS
10
137.733
20
-104.579
11
137.733
21
-104.717
0
LINE
8
BLACK
6
CONTINUOUS
10
137.733
20
-104.717
11
137.706
21
-104.852
0
LINE
8
BLACK
6
CONTINUOUS
10
137.706
20
-104.852
11
137.653
21
-104.98
0
LINE
8
BLACK
6
CONTINUOUS
10
137.653
20
-104.98
11
137.577
21
-105.094
0
LINE
8
BLACK
6
CONTINUOUS
10
137.577
20
-105.094
11
137.479
21
-105.192
0
LINE
8
BLACK
6
CONTINUOUS
10
137.479
20
-105.192
11
137.365
21
-105.268
0
LINE
8
BLACK
6
CONTINUOUS
10
137.365
20
-105.268
11
137.237
21
-105.321
0
LINE
8
BLACK
6
CONTINUOUS
10
137.237
20
-105.321
11
137.102
21
-105.348
0
LINE
8
BLACK
6
CONTINUOUS
10
137.102
20
-105.348
11
136.964
21
-105.348
0
LINE
8
BLACK
6
CONTINUOUS
10
136.964
20
-105.348
11
136.829
21
-105.321
0
LINE
8
BLACK
6
CONTINUOUS
10
136.829
20
-105.321
11
136.701
21
-105.268
0
LINE
8
BLACK
6
CONTINUOUS
10
136.701
20
-105.268
11
136.587
21
-105.192
0
LINE
8
BLACK
6
CONTINUOUS
10
136.587
20
-105.192
11
136.489
21
-105.094
0
LINE
8
BLACK
6
CONTINUOUS
10
136.489
20
-105.094
11
136.413
21
-104.98
0
LINE
8
BLACK
6
CONTINUOUS
10
136.413
20
-104.98
11
136.36
21
-104.852
0
LINE
8
BLACK
6
CONTINUOUS
10
136.36
20
-104.852
11
136.333
21
-104.717
0
LINE
8
BLACK
6
CONTINUOUS
10
136.333
20
-104.717
11
136.333
21
-104.579
0
LINE
8
BLACK
6
CONTINUOUS
10
136.333
20
-104.579
11
136.36
21
-104.444
0
LINE
8
BLACK
6
CONTINUOUS
10
136.36
20
-104.444
11
136.413
21
-104.316
0
LINE
8
BLACK
6
CONTINUOUS
10
136.413
20
-104.316
11
136.489
21
-104.202
0
LINE
8
BLACK
6
CONTINUOUS
10
136.489
20
-104.202
11
136.587
21
-104.104
0
LINE
8
BLACK
6
CONTINUOUS
10
136.587
20
-104.104
11
136.701
21
-104.028
0
LINE
8
BLACK
6
CONTINUOUS
10
136.701
20
-104.028
11
136.829
21
-103.975
0
LINE
8
BLACK
6
CONTINUOUS
10
136.829
20
-103.975
11
136.964
21
-103.948
0
LINE
8
BLACK
6
CONTINUOUS
10
136.964
20
-103.948
11
137.102
21
-103.948
0
LINE
8
BLACK
6
CONTINUOUS
10
137.102
20
-103.948
11
137.237
21
-103.975
0
LINE
8
BLACK
6
CONTINUOUS
10
144.857
20
-103.975
11
144.985
21
-104.028
0
LINE
8
BLACK
6
CONTINUOUS
10
144.985
20
-104.028
11
145.099
21
-104.104
0
LINE
8
BLACK
6
CONTINUOUS
10
145.099
20
-104.104
11
145.197
21
-104.202
0
LINE
8
BLACK
6
CONTINUOUS
10
145.197
20
-104.202
11
145.273
21
-104.316
0
LINE
8
BLACK
6
CONTINUOUS
10
145.273
20
-104.316
11
145.326
21
-104.444
0
LINE
8
BLACK
6
CONTINUOUS
10
145.326
20
-104.444
11
145.353
21
-104.579
0
LINE
8
BLACK
6
CONTINUOUS
10
145.353
20
-104.579
11
145.353
21
-104.717
0
LINE
8
BLACK
6
CONTINUOUS
10
145.353
20
-104.717
11
145.326
21
-104.852
0
LINE
8
BLACK
6
CONTINUOUS
10
145.326
20
-104.852
11
145.273
21
-104.98
0
LINE
8
BLACK
6
CONTINUOUS
10
145.273
20
-104.98
11
145.197
21
-105.094
0
LINE
8
BLACK
6
CONTINUOUS
10
145.197
20
-105.094
11
145.099
21
-105.192
0
LINE
8
BLACK
6
CONTINUOUS
10
145.099
20
-105.192
11
144.985
21
-105.268
0
LINE
8
BLACK
6
CONTINUOUS
10
144.985
20
-105.268
11
144.857
21
-105.321
0
LINE
8
BLACK
6
CONTINUOUS
10
144.857
20
-105.321
11
144.722
21
-105.348
0
LINE
8
BLACK
6
CONTINUOUS
10
144.722
20
-105.348
11
144.584
21
-105.348
0
LINE
8
BLACK
6
CONTINUOUS
10
144.584
20
-105.348
11
144.449
21
-105.321
0
LINE
8
BLACK
6
CONTINUOUS
10
144.449
20
-105.321
11
144.321
21
-105.268
0
LINE
8
BLACK
6
CONTINUOUS
10
144.321
20
-105.268
11
144.207
21
-105.192
0
LINE
8
BLACK
6
CONTINUOUS
10
144.207
20
-105.192
11
144.109
21
-105.094
0
LINE
8
BLACK
6
CONTINUOUS
10
144.109
20
-105.094
11
144.033
21
-104.98
0
LINE
8
BLACK
6
CONTINUOUS
10
144.033
20
-104.98
11
143.98
21
-104.852
0
LINE
8
BLACK
6
CONTINUOUS
10
143.98
20
-104.852
11
143.953
21
-104.717
0
LINE
8
BLACK
6
CONTINUOUS
10
143.953
20
-104.717
11
143.953
21
-104.579
0
LINE
8
BLACK
6
CONTINUOUS
10
143.953
20
-104.579
11
143.98
21
-104.444
0
LINE
8
BLACK
6
CONTINUOUS
10
143.98
20
-104.444
11
144.033
21
-104.316
0
LINE
8
BLACK
6
CONTINUOUS
10
144.033
20
-104.316
11
144.109
21
-104.202
0
LINE
8
BLACK
6
CONTINUOUS
10
144.109
20
-104.202
11
144.207
21
-104.104
0
LINE
8
BLACK
6
CONTINUOUS
10
144.207
20
-104.104
11
144.321
21
-104.028
0
LINE
8
BLACK
6
CONTINUOUS
10
144.321
20
-104.028
11
144.449
21
-103.975
0
LINE
8
BLACK
6
CONTINUOUS
10
144.449
20
-103.975
11
144.584
21
-103.948
0
LINE
8
BLACK
6
CONTINUOUS
10
144.584
20
-103.948
11
144.722
21
-103.948
0
LINE
8
BLACK
6
CONTINUOUS
10
144.722
20
-103.948
11
144.857
21
-103.975
0
LINE
8
BLACK
6
CONTINUOUS
10
132.086
20
-103.512
11
132.246
21
-103.579
0
LINE
8
BLACK
6
CONTINUOUS
10
132.246
20
-103.579
11
132.389
21
-103.674
0
LINE
8
BLACK
6
CONTINUOUS
10
132.389
20
-103.674
11
132.512
21
-103.796
0
LINE
8
BLACK
6
CONTINUOUS
10
132.512
20
-103.796
11
132.607
21
-103.94
0
LINE
8
BLACK
6
CONTINUOUS
10
132.607
20
-103.94
11
132.674
21
-104.099
0
LINE
8
BLACK
6
CONTINUOUS
10
132.674
20
-104.099
11
132.707
21
-104.269
0
LINE
8
BLACK
6
CONTINUOUS
10
132.707
20
-104.269
11
132.707
21
-104.441
0
LINE
8
BLACK
6
CONTINUOUS
10
132.707
20
-104.441
11
132.674
21
-104.611
0
LINE
8
BLACK
6
CONTINUOUS
10
132.674
20
-104.611
11
132.607
21
-104.77
0
LINE
8
BLACK
6
CONTINUOUS
10
132.607
20
-104.77
11
132.512
21
-104.914
0
LINE
8
BLACK
6
CONTINUOUS
10
132.512
20
-104.914
11
132.389
21
-105.036
0
LINE
8
BLACK
6
CONTINUOUS
10
132.389
20
-105.036
11
132.246
21
-105.132
0
LINE
8
BLACK
6
CONTINUOUS
10
132.246
20
-105.132
11
132.086
21
-105.198
0
LINE
8
BLACK
6
CONTINUOUS
10
132.086
20
-105.198
11
131.917
21
-105.231
0
LINE
8
BLACK
6
CONTINUOUS
10
131.917
20
-105.231
11
131.745
21
-105.231
0
LINE
8
BLACK
6
CONTINUOUS
10
131.745
20
-105.231
11
131.575
21
-105.198
0
LINE
8
BLACK
6
CONTINUOUS
10
131.575
20
-105.198
11
131.416
21
-105.132
0
LINE
8
BLACK
6
CONTINUOUS
10
131.416
20
-105.132
11
131.272
21
-105.036
0
LINE
8
BLACK
6
CONTINUOUS
10
131.272
20
-105.036
11
131.15
21
-104.914
0
LINE
8
BLACK
6
CONTINUOUS
10
131.15
20
-104.914
11
131.054
21
-104.77
0
LINE
8
BLACK
6
CONTINUOUS
10
131.054
20
-104.77
11
130.988
21
-104.611
0
LINE
8
BLACK
6
CONTINUOUS
10
130.988
20
-104.611
11
130.955
21
-104.441
0
LINE
8
BLACK
6
CONTINUOUS
10
130.955
20
-104.441
11
130.955
21
-104.269
0
LINE
8
BLACK
6
CONTINUOUS
10
130.955
20
-104.269
11
130.988
21
-104.099
0
LINE
8
BLACK
6
CONTINUOUS
10
130.988
20
-104.099
11
131.054
21
-103.94
0
LINE
8
BLACK
6
CONTINUOUS
10
131.054
20
-103.94
11
131.15
21
-103.796
0
LINE
8
BLACK
6
CONTINUOUS
10
131.15
20
-103.796
11
131.272
21
-103.674
0
LINE
8
BLACK
6
CONTINUOUS
10
131.272
20
-103.674
11
131.416
21
-103.579
0
LINE
8
BLACK
6
CONTINUOUS
10
131.416
20
-103.579
11
131.575
21
-103.512
0
LINE
8
BLACK
6
CONTINUOUS
10
131.575
20
-103.512
11
131.745
21
-103.479
0
LINE
8
BLACK
6
CONTINUOUS
10
131.745
20
-103.479
11
131.917
21
-103.479
0
LINE
8
BLACK
6
CONTINUOUS
10
131.917
20
-103.479
11
132.086
21
-103.512
0
LINE
8
BLACK
6
CONTINUOUS
10
149.095
20
-102.492
11
149.254
21
-102.558
0
LINE
8
BLACK
6
CONTINUOUS
10
149.254
20
-102.558
11
149.398
21
-102.654
0
LINE
8
BLACK
6
CONTINUOUS
10
149.398
20
-102.654
11
149.52
21
-102.776
0
LINE
8
BLACK
6
CONTINUOUS
10
149.52
20
-102.776
11
149.616
21
-102.919
0
LINE
8
BLACK
6
CONTINUOUS
10
149.616
20
-102.919
11
149.682
21
-103.079
0
LINE
8
BLACK
6
CONTINUOUS
10
149.682
20
-103.079
11
149.715
21
-103.248
0
LINE
8
BLACK
6
CONTINUOUS
10
149.715
20
-103.248
11
149.715
21
-103.421
0
LINE
8
BLACK
6
CONTINUOUS
10
149.715
20
-103.421
11
149.682
21
-103.59
0
LINE
8
BLACK
6
CONTINUOUS
10
149.682
20
-103.59
11
149.616
21
-103.749
0
LINE
8
BLACK
6
CONTINUOUS
10
149.616
20
-103.749
11
149.52
21
-103.893
0
LINE
8
BLACK
6
CONTINUOUS
10
149.52
20
-103.893
11
149.398
21
-104.015
0
LINE
8
BLACK
6
CONTINUOUS
10
149.398
20
-104.015
11
149.254
21
-104.111
0
LINE
8
BLACK
6
CONTINUOUS
10
149.254
20
-104.111
11
149.095
21
-104.177
0
LINE
8
BLACK
6
CONTINUOUS
10
149.095
20
-104.177
11
148.925
21
-104.21
0
LINE
8
BLACK
6
CONTINUOUS
10
148.925
20
-104.21
11
148.753
21
-104.21
0
LINE
8
BLACK
6
CONTINUOUS
10
148.753
20
-104.21
11
148.584
21
-104.177
0
LINE
8
BLACK
6
CONTINUOUS
10
148.584
20
-104.177
11
148.424
21
-104.111
0
LINE
8
BLACK
6
CONTINUOUS
10
148.424
20
-104.111
11
148.281
21
-104.015
0
LINE
8
BLACK
6
CONTINUOUS
10
148.281
20
-104.015
11
148.158
21
-103.893
0
LINE
8
BLACK
6
CONTINUOUS
10
148.158
20
-103.893
11
148.063
21
-103.749
0
LINE
8
BLACK
6
CONTINUOUS
10
148.063
20
-103.749
11
147.996
21
-103.59
0
LINE
8
BLACK
6
CONTINUOUS
10
147.996
20
-103.59
11
147.963
21
-103.421
0
LINE
8
BLACK
6
CONTINUOUS
10
147.963
20
-103.421
11
147.963
21
-103.248
0
LINE
8
BLACK
6
CONTINUOUS
10
147.963
20
-103.248
11
147.996
21
-103.079
0
LINE
8
BLACK
6
CONTINUOUS
10
147.996
20
-103.079
11
148.063
21
-102.919
0
LINE
8
BLACK
6
CONTINUOUS
10
148.063
20
-102.919
11
148.158
21
-102.776
0
LINE
8
BLACK
6
CONTINUOUS
10
148.158
20
-102.776
11
148.281
21
-102.654
0
LINE
8
BLACK
6
CONTINUOUS
10
148.281
20
-102.654
11
148.424
21
-102.558
0
LINE
8
BLACK
6
CONTINUOUS
10
148.424
20
-102.558
11
148.584
21
-102.492
0
LINE
8
BLACK
6
CONTINUOUS
10
148.584
20
-102.492
11
148.753
21
-102.458
0
LINE
8
BLACK
6
CONTINUOUS
10
148.753
20
-102.458
11
148.925
21
-102.458
0
LINE
8
BLACK
6
CONTINUOUS
10
148.925
20
-102.458
11
149.095
21
-102.492
0
LINE
8
BLACK
6
CONTINUOUS
10
130.816
20
-101.313
11
130.976
21
-101.379
0
LINE
8
BLACK
6
CONTINUOUS
10
130.976
20
-101.379
11
131.119
21
-101.475
0
LINE
8
BLACK
6
CONTINUOUS
10
131.119
20
-101.475
11
131.242
21
-101.597
0
LINE
8
BLACK
6
CONTINUOUS
10
131.242
20
-101.597
11
131.337
21
-101.74
0
LINE
8
BLACK
6
CONTINUOUS
10
131.337
20
-101.74
11
131.404
21
-101.9
0
LINE
8
BLACK
6
CONTINUOUS
10
131.404
20
-101.9
11
131.437
21
-102.069
0
LINE
8
BLACK
6
CONTINUOUS
10
131.437
20
-102.069
11
131.437
21
-102.242
0
LINE
8
BLACK
6
CONTINUOUS
10
131.437
20
-102.242
11
131.404
21
-102.411
0
LINE
8
BLACK
6
CONTINUOUS
10
131.404
20
-102.411
11
131.337
21
-102.57
0
LINE
8
BLACK
6
CONTINUOUS
10
131.337
20
-102.57
11
131.242
21
-102.714
0
LINE
8
BLACK
6
CONTINUOUS
10
131.242
20
-102.714
11
131.119
21
-102.836
0
LINE
8
BLACK
6
CONTINUOUS
10
131.119
20
-102.836
11
130.976
21
-102.932
0
LINE
8
BLACK
6
CONTINUOUS
10
130.976
20
-102.932
11
130.816
21
-102.998
0
LINE
8
BLACK
6
CONTINUOUS
10
130.816
20
-102.998
11
130.647
21
-103.032
0
LINE
8
BLACK
6
CONTINUOUS
10
130.647
20
-103.032
11
130.475
21
-103.032
0
LINE
8
BLACK
6
CONTINUOUS
10
130.475
20
-103.032
11
130.305
21
-102.998
0
LINE
8
BLACK
6
CONTINUOUS
10
130.305
20
-102.998
11
130.146
21
-102.932
0
LINE
8
BLACK
6
CONTINUOUS
10
130.146
20
-102.932
11
130.002
21
-102.836
0
LINE
8
BLACK
6
CONTINUOUS
10
130.002
20
-102.836
11
129.88
21
-102.714
0
LINE
8
BLACK
6
CONTINUOUS
10
129.88
20
-102.714
11
129.784
21
-102.57
0
LINE
8
BLACK
6
CONTINUOUS
10
129.784
20
-102.57
11
129.718
21
-102.411
0
LINE
8
BLACK
6
CONTINUOUS
10
129.718
20
-102.411
11
129.685
21
-102.242
0
LINE
8
BLACK
6
CONTINUOUS
10
129.685
20
-102.242
11
129.685
21
-102.069
0
LINE
8
BLACK
6
CONTINUOUS
10
129.685
20
-102.069
11
129.718
21
-101.9
0
LINE
8
BLACK
6
CONTINUOUS
10
129.718
20
-101.9
11
129.784
21
-101.74
0
LINE
8
BLACK
6
CONTINUOUS
10
129.784
20
-101.74
11
129.88
21
-101.597
0
LINE
8
BLACK
6
CONTINUOUS
10
129.88
20
-101.597
11
130.002
21
-101.475
0
LINE
8
BLACK
6
CONTINUOUS
10
130.002
20
-101.475
11
130.146
21
-101.379
0
LINE
8
BLACK
6
CONTINUOUS
10
130.146
20
-101.379
11
130.305
21
-101.313
0
LINE
8
BLACK
6
CONTINUOUS
10
130.305
20
-101.313
11
130.475
21
-101.279
0
LINE
8
BLACK
6
CONTINUOUS
10
130.475
20
-101.279
11
130.647
21
-101.279
0
LINE
8
BLACK
6
CONTINUOUS
10
130.647
20
-101.279
11
130.816
21
-101.313
0
LINE
8
BLACK
6
CONTINUOUS
10
137.669
20
-100.505
11
137.828
21
-100.571
0
LINE
8
BLACK
6
CONTINUOUS
10
137.828
20
-100.571
11
137.972
21
-100.666
0
LINE
8
BLACK
6
CONTINUOUS
10
137.972
20
-100.666
11
138.094
21
-100.788
0
LINE
8
BLACK
6
CONTINUOUS
10
138.094
20
-100.788
11
138.189
21
-100.932
0
LINE
8
BLACK
6
CONTINUOUS
10
138.189
20
-100.932
11
138.255
21
-101.091
0
LINE
8
BLACK
6
CONTINUOUS
10
138.255
20
-101.091
11
138.289
21
-101.26
0
LINE
8
BLACK
6
CONTINUOUS
10
138.289
20
-101.26
11
138.289
21
-101.432
0
LINE
8
BLACK
6
CONTINUOUS
10
138.289
20
-101.432
11
138.255
21
-101.601
0
LINE
8
BLACK
6
CONTINUOUS
10
138.255
20
-101.601
11
138.189
21
-101.76
0
LINE
8
BLACK
6
CONTINUOUS
10
138.189
20
-101.76
11
138.094
21
-101.904
0
LINE
8
BLACK
6
CONTINUOUS
10
138.094
20
-101.904
11
137.972
21
-102.026
0
LINE
8
BLACK
6
CONTINUOUS
10
137.972
20
-102.026
11
137.828
21
-102.121
0
LINE
8
BLACK
6
CONTINUOUS
10
137.828
20
-102.121
11
137.669
21
-102.187
0
LINE
8
BLACK
6
CONTINUOUS
10
137.669
20
-102.187
11
137.5
21
-102.221
0
LINE
8
BLACK
6
CONTINUOUS
10
137.5
20
-102.221
11
137.328
21
-102.221
0
LINE
8
BLACK
6
CONTINUOUS
10
137.328
20
-102.221
11
137.159
21
-102.187
0
LINE
8
BLACK
6
CONTINUOUS
10
137.159
20
-102.187
11
137
21
-102.121
0
LINE
8
BLACK
6
CONTINUOUS
10
137
20
-102.121
11
136.856
21
-102.026
0
LINE
8
BLACK
6
CONTINUOUS
10
136.856
20
-102.026
11
136.734
21
-101.904
0
LINE
8
BLACK
6
CONTINUOUS
10
136.734
20
-101.904
11
136.639
21
-101.76
0
LINE
8
BLACK
6
CONTINUOUS
10
136.639
20
-101.76
11
136.573
21
-101.601
0
LINE
8
BLACK
6
CONTINUOUS
10
136.573
20
-101.601
11
136.539
21
-101.432
0
LINE
8
BLACK
6
CONTINUOUS
10
136.539
20
-101.432
11
136.539
21
-101.26
0
LINE
8
BLACK
6
CONTINUOUS
10
136.539
20
-101.26
11
136.573
21
-101.091
0
LINE
8
BLACK
6
CONTINUOUS
10
136.573
20
-101.091
11
136.639
21
-100.932
0
LINE
8
BLACK
6
CONTINUOUS
10
136.639
20
-100.932
11
136.734
21
-100.788
0
LINE
8
BLACK
6
CONTINUOUS
10
136.734
20
-100.788
11
136.856
21
-100.666
0
LINE
8
BLACK
6
CONTINUOUS
10
136.856
20
-100.666
11
137
21
-100.571
0
LINE
8
BLACK
6
CONTINUOUS
10
137
20
-100.571
11
137.159
21
-100.505
0
LINE
8
BLACK
6
CONTINUOUS
10
137.159
20
-100.505
11
137.328
21
-100.471
0
LINE
8
BLACK
6
CONTINUOUS
10
137.328
20
-100.471
11
137.5
21
-100.471
0
LINE
8
BLACK
6
CONTINUOUS
10
137.5
20
-100.471
11
137.669
21
-100.505
0
LINE
8
BLACK
6
CONTINUOUS
10
147.825
20
-100.292
11
147.984
21
-100.358
0
LINE
8
BLACK
6
CONTINUOUS
10
147.984
20
-100.358
11
148.128
21
-100.454
0
LINE
8
BLACK
6
CONTINUOUS
10
148.128
20
-100.454
11
148.25
21
-100.576
0
LINE
8
BLACK
6
CONTINUOUS
10
148.25
20
-100.576
11
148.346
21
-100.719
0
LINE
8
BLACK
6
CONTINUOUS
10
148.346
20
-100.719
11
148.412
21
-100.879
0
LINE
8
BLACK
6
CONTINUOUS
10
148.412
20
-100.879
11
148.445
21
-101.048
0
LINE
8
BLACK
6
CONTINUOUS
10
148.445
20
-101.048
11
148.445
21
-101.221
0
LINE
8
BLACK
6
CONTINUOUS
10
148.445
20
-101.221
11
148.412
21
-101.39
0
LINE
8
BLACK
6
CONTINUOUS
10
148.412
20
-101.39
11
148.346
21
-101.55
0
LINE
8
BLACK
6
CONTINUOUS
10
148.346
20
-101.55
11
148.25
21
-101.693
0
LINE
8
BLACK
6
CONTINUOUS
10
148.25
20
-101.693
11
148.128
21
-101.815
0
LINE
8
BLACK
6
CONTINUOUS
10
148.128
20
-101.815
11
147.984
21
-101.911
0
LINE
8
BLACK
6
CONTINUOUS
10
147.984
20
-101.911
11
147.825
21
-101.977
0
LINE
8
BLACK
6
CONTINUOUS
10
147.825
20
-101.977
11
147.655
21
-102.011
0
LINE
8
BLACK
6
CONTINUOUS
10
147.655
20
-102.011
11
147.483
21
-102.011
0
LINE
8
BLACK
6
CONTINUOUS
10
147.483
20
-102.011
11
147.314
21
-101.977
0
LINE
8
BLACK
6
CONTINUOUS
10
147.314
20
-101.977
11
147.154
21
-101.911
0
LINE
8
BLACK
6
CONTINUOUS
10
147.154
20
-101.911
11
147.011
21
-101.815
0
LINE
8
BLACK
6
CONTINUOUS
10
147.011
20
-101.815
11
146.888
21
-101.693
0
LINE
8
BLACK
6
CONTINUOUS
10
146.888
20
-101.693
11
146.793
21
-101.55
0
LINE
8
BLACK
6
CONTINUOUS
10
146.793
20
-101.55
11
146.726
21
-101.39
0
LINE
8
BLACK
6
CONTINUOUS
10
146.726
20
-101.39
11
146.693
21
-101.221
0
LINE
8
BLACK
6
CONTINUOUS
10
146.693
20
-101.221
11
146.693
21
-101.048
0
LINE
8
BLACK
6
CONTINUOUS
10
146.693
20
-101.048
11
146.726
21
-100.879
0
LINE
8
BLACK
6
CONTINUOUS
10
146.726
20
-100.879
11
146.793
21
-100.719
0
LINE
8
BLACK
6
CONTINUOUS
10
146.793
20
-100.719
11
146.888
21
-100.576
0
LINE
8
BLACK
6
CONTINUOUS
10
146.888
20
-100.576
11
147.011
21
-100.454
0
LINE
8
BLACK
6
CONTINUOUS
10
147.011
20
-100.454
11
147.154
21
-100.358
0
LINE
8
BLACK
6
CONTINUOUS
10
147.154
20
-100.358
11
147.314
21
-100.292
0
LINE
8
BLACK
6
CONTINUOUS
10
147.314
20
-100.292
11
147.483
21
-100.258
0
LINE
8
BLACK
6
CONTINUOUS
10
147.483
20
-100.258
11
147.655
21
-100.258
0
LINE
8
BLACK
6
CONTINUOUS
10
147.655
20
-100.258
11
147.825
21
-100.292
0
LINE
8
BLACK
6
CONTINUOUS
10
129.546
20
-99.1131
11
129.706
21
-99.1791
0
LINE
8
BLACK
6
CONTINUOUS
10
129.706
20
-99.1791
11
129.849
21
-99.275
0
LINE
8
BLACK
6
CONTINUOUS
10
129.849
20
-99.275
11
129.972
21
-99.3971
0
LINE
8
BLACK
6
CONTINUOUS
10
129.972
20
-99.3971
11
130.067
21
-99.5406
0
LINE
8
BLACK
6
CONTINUOUS
10
130.067
20
-99.5406
11
130.134
21
-99.7001
0
LINE
8
BLACK
6
CONTINUOUS
10
130.134
20
-99.7001
11
130.167
21
-99.8694
0
LINE
8
BLACK
6
CONTINUOUS
10
130.167
20
-99.8694
11
130.167
21
-100.042
0
LINE
8
BLACK
6
CONTINUOUS
10
130.167
20
-100.042
11
130.134
21
-100.211
0
LINE
8
BLACK
6
CONTINUOUS
10
130.134
20
-100.211
11
130.067
21
-100.371
0
LINE
8
BLACK
6
CONTINUOUS
10
130.067
20
-100.371
11
129.972
21
-100.514
0
LINE
8
BLACK
6
CONTINUOUS
10
129.972
20
-100.514
11
129.849
21
-100.636
0
LINE
8
BLACK
6
CONTINUOUS
10
129.849
20
-100.636
11
129.706
21
-100.732
0
LINE
8
BLACK
6
CONTINUOUS
10
129.706
20
-100.732
11
129.546
21
-100.798
0
LINE
8
BLACK
6
CONTINUOUS
10
129.546
20
-100.798
11
129.377
21
-100.832
0
LINE
8
BLACK
6
CONTINUOUS
10
129.377
20
-100.832
11
129.205
21
-100.832
0
LINE
8
BLACK
6
CONTINUOUS
10
129.205
20
-100.832
11
129.035
21
-100.798
0
LINE
8
BLACK
6
CONTINUOUS
10
129.035
20
-100.798
11
128.876
21
-100.732
0
LINE
8
BLACK
6
CONTINUOUS
10
128.876
20
-100.732
11
128.732
21
-100.636
0
LINE
8
BLACK
6
CONTINUOUS
10
128.732
20
-100.636
11
128.61
21
-100.514
0
LINE
8
BLACK
6
CONTINUOUS
10
128.61
20
-100.514
11
128.514
21
-100.371
0
LINE
8
BLACK
6
CONTINUOUS
10
128.514
20
-100.371
11
128.448
21
-100.211
0
LINE
8
BLACK
6
CONTINUOUS
10
128.448
20
-100.211
11
128.415
21
-100.042
0
LINE
8
BLACK
6
CONTINUOUS
10
128.415
20
-100.042
11
128.415
21
-99.8694
0
LINE
8
BLACK
6
CONTINUOUS
10
128.415
20
-99.8694
11
128.448
21
-99.7001
0
LINE
8
BLACK
6
CONTINUOUS
10
128.448
20
-99.7001
11
128.514
21
-99.5406
0
LINE
8
BLACK
6
CONTINUOUS
10
128.514
20
-99.5406
11
128.61
21
-99.3971
0
LINE
8
BLACK
6
CONTINUOUS
10
128.61
20
-99.3971
11
128.732
21
-99.275
0
LINE
8
BLACK
6
CONTINUOUS
10
128.732
20
-99.275
11
128.876
21
-99.1791
0
LINE
8
BLACK
6
CONTINUOUS
10
128.876
20
-99.1791
11
129.035
21
-99.1131
0
LINE
8
BLACK
6
CONTINUOUS
10
129.035
20
-99.1131
11
129.205
21
-99.0794
0
LINE
8
BLACK
6
CONTINUOUS
10
129.205
20
-99.0794
11
129.377
21
-99.0794
0
LINE
8
BLACK
6
CONTINUOUS
10
129.377
20
-99.0794
11
129.546
21
-99.1131
0
LINE
8
BLACK
6
CONTINUOUS
10
146.555
20
-98.0922
11
146.714
21
-98.1582
0
LINE
8
BLACK
6
CONTINUOUS
10
146.714
20
-98.1582
11
146.858
21
-98.2541
0
LINE
8
BLACK
6
CONTINUOUS
10
146.858
20
-98.2541
11
146.98
21
-98.3762
0
LINE
8
BLACK
6
CONTINUOUS
10
146.98
20
-98.3762
11
147.076
21
-98.5197
0
LINE
8
BLACK
6
CONTINUOUS
10
147.076
20
-98.5197
11
147.142
21
-98.6792
0
LINE
8
BLACK
6
CONTINUOUS
10
147.142
20
-98.6792
11
147.175
21
-98.8485
0
LINE
8
BLACK
6
CONTINUOUS
10
147.175
20
-98.8485
11
147.175
21
-99.0211
0
LINE
8
BLACK
6
CONTINUOUS
10
147.175
20
-99.0211
11
147.142
21
-99.1904
0
LINE
8
BLACK
6
CONTINUOUS
10
147.142
20
-99.1904
11
147.076
21
-99.3499
0
LINE
8
BLACK
6
CONTINUOUS
10
147.076
20
-99.3499
11
146.98
21
-99.4934
0
LINE
8
BLACK
6
CONTINUOUS
10
146.98
20
-99.4934
11
146.858
21
-99.6155
0
LINE
8
BLACK
6
CONTINUOUS
10
146.858
20
-99.6155
11
146.714
21
-99.7114
0
LINE
8
BLACK
6
CONTINUOUS
10
146.714
20
-99.7114
11
146.555
21
-99.7774
0
LINE
8
BLACK
6
CONTINUOUS
10
146.555
20
-99.7774
11
146.385
21
-99.8111
0
LINE
8
BLACK
6
CONTINUOUS
10
146.385
20
-99.8111
11
146.213
21
-99.8111
0
LINE
8
BLACK
6
CONTINUOUS
10
146.213
20
-99.8111
11
146.044
21
-99.7774
0
LINE
8
BLACK
6
CONTINUOUS
10
146.044
20
-99.7774
11
145.884
21
-99.7114
0
LINE
8
BLACK
6
CONTINUOUS
10
145.884
20
-99.7114
11
145.741
21
-99.6155
0
LINE
8
BLACK
6
CONTINUOUS
10
145.741
20
-99.6155
11
145.618
21
-99.4934
0
LINE
8
BLACK
6
CONTINUOUS
10
145.618
20
-99.4934
11
145.523
21
-99.3499
0
LINE
8
BLACK
6
CONTINUOUS
10
145.523
20
-99.3499
11
145.456
21
-99.1904
0
LINE
8
BLACK
6
CONTINUOUS
10
145.456
20
-99.1904
11
145.423
21
-99.0211
0
LINE
8
BLACK
6
CONTINUOUS
10
145.423
20
-99.0211
11
145.423
21
-98.8485
0
LINE
8
BLACK
6
CONTINUOUS
10
145.423
20
-98.8485
11
145.456
21
-98.6792
0
LINE
8
BLACK
6
CONTINUOUS
10
145.456
20
-98.6792
11
145.523
21
-98.5197
0
LINE
8
BLACK
6
CONTINUOUS
10
145.523
20
-98.5197
11
145.618
21
-98.3762
0
LINE
8
BLACK
6
CONTINUOUS
10
145.618
20
-98.3762
11
145.741
21
-98.2541
0
LINE
8
BLACK
6
CONTINUOUS
10
145.741
20
-98.2541
11
145.884
21
-98.1582
0
LINE
8
BLACK
6
CONTINUOUS
10
145.884
20
-98.1582
11
146.044
21
-98.0922
0
LINE
8
BLACK
6
CONTINUOUS
10
146.044
20
-98.0922
11
146.213
21
-98.0585
0
LINE
8
BLACK
6
CONTINUOUS
10
146.213
20
-98.0585
11
146.385
21
-98.0585
0
LINE
8
BLACK
6
CONTINUOUS
10
146.385
20
-98.0585
11
146.555
21
-98.0922
0
LINE
8
BLACK
6
CONTINUOUS
10
133.168
20
-96.9881
11
133.332
21
-97.0559
0
LINE
8
BLACK
6
CONTINUOUS
10
133.332
20
-97.0559
11
133.479
21
-97.1544
0
LINE
8
BLACK
6
CONTINUOUS
10
133.479
20
-97.1544
11
133.605
21
-97.2798
0
LINE
8
BLACK
6
CONTINUOUS
10
133.605
20
-97.2798
11
133.703
21
-97.4272
0
LINE
8
BLACK
6
CONTINUOUS
10
133.703
20
-97.4272
11
133.771
21
-97.591
0
LINE
8
BLACK
6
CONTINUOUS
10
133.771
20
-97.591
11
133.805
21
-97.7649
0
LINE
8
BLACK
6
CONTINUOUS
10
133.805
20
-97.7649
11
133.805
21
-97.9421
0
LINE
8
BLACK
6
CONTINUOUS
10
133.805
20
-97.9421
11
133.771
21
-98.116
0
LINE
8
BLACK
6
CONTINUOUS
10
133.771
20
-98.116
11
133.703
21
-98.2798
0
LINE
8
BLACK
6
CONTINUOUS
10
133.703
20
-98.2798
11
133.605
21
-98.4272
0
LINE
8
BLACK
6
CONTINUOUS
10
133.605
20
-98.4272
11
133.479
21
-98.5526
0
LINE
8
BLACK
6
CONTINUOUS
10
133.479
20
-98.5526
11
133.332
21
-98.6511
0
LINE
8
BLACK
6
CONTINUOUS
10
133.332
20
-98.6511
11
133.168
21
-98.7189
0
LINE
8
BLACK
6
CONTINUOUS
10
133.168
20
-98.7189
11
132.994
21
-98.7535
0
LINE
8
BLACK
6
CONTINUOUS
10
132.994
20
-98.7535
11
132.817
21
-98.7535
0
LINE
8
BLACK
6
CONTINUOUS
10
132.817
20
-98.7535
11
132.643
21
-98.7189
0
LINE
8
BLACK
6
CONTINUOUS
10
132.643
20
-98.7189
11
132.479
21
-98.6511
0
LINE
8
BLACK
6
CONTINUOUS
10
132.479
20
-98.6511
11
132.332
21
-98.5526
0
LINE
8
BLACK
6
CONTINUOUS
10
132.332
20
-98.5526
11
132.206
21
-98.4272
0
LINE
8
BLACK
6
CONTINUOUS
10
132.206
20
-98.4272
11
132.108
21
-98.2798
0
LINE
8
BLACK
6
CONTINUOUS
10
132.108
20
-98.2798
11
132.04
21
-98.116
0
LINE
8
BLACK
6
CONTINUOUS
10
132.04
20
-98.116
11
132.005
21
-97.9421
0
LINE
8
BLACK
6
CONTINUOUS
10
132.005
20
-97.9421
11
132.005
21
-97.7649
0
LINE
8
BLACK
6
CONTINUOUS
10
132.005
20
-97.7649
11
132.04
21
-97.591
0
LINE
8
BLACK
6
CONTINUOUS
10
132.04
20
-97.591
11
132.108
21
-97.4272
0
LINE
8
BLACK
6
CONTINUOUS
10
132.108
20
-97.4272
11
132.206
21
-97.2798
0
LINE
8
BLACK
6
CONTINUOUS
10
132.206
20
-97.2798
11
132.332
21
-97.1544
0
LINE
8
BLACK
6
CONTINUOUS
10
132.332
20
-97.1544
11
132.479
21
-97.0559
0
LINE
8
BLACK
6
CONTINUOUS
10
132.479
20
-97.0559
11
132.643
21
-96.9881
0
LINE
8
BLACK
6
CONTINUOUS
10
132.643
20
-96.9881
11
132.817
21
-96.9535
0
LINE
8
BLACK
6
CONTINUOUS
10
132.817
20
-96.9535
11
132.994
21
-96.9535
0
LINE
8
BLACK
6
CONTINUOUS
10
132.994
20
-96.9535
11
133.168
21
-96.9881
0
LINE
8
BLACK
6
CONTINUOUS
10
128.276
20
-96.9133
11
128.436
21
-96.9794
0
LINE
8
BLACK
6
CONTINUOUS
10
128.436
20
-96.9794
11
128.579
21
-97.0753
0
LINE
8
BLACK
6
CONTINUOUS
10
128.579
20
-97.0753
11
128.702
21
-97.1974
0
LINE
8
BLACK
6
CONTINUOUS
10
128.702
20
-97.1974
11
128.797
21
-97.3409
0
LINE
8
BLACK
6
CONTINUOUS
10
128.797
20
-97.3409
11
128.864
21
-97.5004
0
LINE
8
BLACK
6
CONTINUOUS
10
128.864
20
-97.5004
11
128.897
21
-97.6697
0
LINE
8
BLACK
6
CONTINUOUS
10
128.897
20
-97.6697
11
128.897
21
-97.8423
0
LINE
8
BLACK
6
CONTINUOUS
10
128.897
20
-97.8423
11
128.864
21
-98.0116
0
LINE
8
BLACK
6
CONTINUOUS
10
128.864
20
-98.0116
11
128.797
21
-98.1711
0
LINE
8
BLACK
6
CONTINUOUS
10
128.797
20
-98.1711
11
128.702
21
-98.3146
0
LINE
8
BLACK
6
CONTINUOUS
10
128.702
20
-98.3146
11
128.579
21
-98.4366
0
LINE
8
BLACK
6
CONTINUOUS
10
128.579
20
-98.4366
11
128.436
21
-98.5325
0
LINE
8
BLACK
6
CONTINUOUS
10
128.436
20
-98.5325
11
128.276
21
-98.5986
0
LINE
8
BLACK
6
CONTINUOUS
10
128.276
20
-98.5986
11
128.107
21
-98.6323
0
LINE
8
BLACK
6
CONTINUOUS
10
128.107
20
-98.6323
11
127.935
21
-98.6323
0
LINE
8
BLACK
6
CONTINUOUS
10
127.935
20
-98.6323
11
127.765
21
-98.5986
0
LINE
8
BLACK
6
CONTINUOUS
10
127.765
20
-98.5986
11
127.606
21
-98.5325
0
LINE
8
BLACK
6
CONTINUOUS
10
127.606
20
-98.5325
11
127.462
21
-98.4366
0
LINE
8
BLACK
6
CONTINUOUS
10
127.462
20
-98.4366
11
127.34
21
-98.3146
0
LINE
8
BLACK
6
CONTINUOUS
10
127.34
20
-98.3146
11
127.244
21
-98.1711
0
LINE
8
BLACK
6
CONTINUOUS
10
127.244
20
-98.1711
11
127.178
21
-98.0116
0
LINE
8
BLACK
6
CONTINUOUS
10
127.178
20
-98.0116
11
127.145
21
-97.8423
0
LINE
8
BLACK
6
CONTINUOUS
10
127.145
20
-97.8423
11
127.145
21
-97.6697
0
LINE
8
BLACK
6
CONTINUOUS
10
127.145
20
-97.6697
11
127.178
21
-97.5004
0
LINE
8
BLACK
6
CONTINUOUS
10
127.178
20
-97.5004
11
127.244
21
-97.3409
0
LINE
8
BLACK
6
CONTINUOUS
10
127.244
20
-97.3409
11
127.34
21
-97.1974
0
LINE
8
BLACK
6
CONTINUOUS
10
127.34
20
-97.1974
11
127.462
21
-97.0753
0
LINE
8
BLACK
6
CONTINUOUS
10
127.462
20
-97.0753
11
127.606
21
-96.9794
0
LINE
8
BLACK
6
CONTINUOUS
10
127.606
20
-96.9794
11
127.765
21
-96.9133
0
LINE
8
BLACK
6
CONTINUOUS
10
127.765
20
-96.9133
11
127.935
21
-96.8797
0
LINE
8
BLACK
6
CONTINUOUS
10
127.935
20
-96.8797
11
128.107
21
-96.8797
0
LINE
8
BLACK
6
CONTINUOUS
10
128.107
20
-96.8797
11
128.276
21
-96.9133
0
LINE
8
BLACK
6
CONTINUOUS
10
137.996
20
-94.3487
11
138.358
21
-94.499
0
LINE
8
BLACK
6
CONTINUOUS
10
138.358
20
-94.499
11
138.685
21
-94.7172
0
LINE
8
BLACK
6
CONTINUOUS
10
138.685
20
-94.7172
11
138.963
21
-94.995
0
LINE
8
BLACK
6
CONTINUOUS
10
138.963
20
-94.995
11
139.181
21
-95.3215
0
LINE
8
BLACK
6
CONTINUOUS
10
139.181
20
-95.3215
11
139.331
21
-95.6844
0
LINE
8
BLACK
6
CONTINUOUS
10
139.331
20
-95.6844
11
139.408
21
-96.0696
0
LINE
8
BLACK
6
CONTINUOUS
10
139.408
20
-96.0696
11
139.408
21
-96.4624
0
LINE
8
BLACK
6
CONTINUOUS
10
139.408
20
-96.4624
11
139.331
21
-96.8476
0
LINE
8
BLACK
6
CONTINUOUS
10
139.331
20
-96.8476
11
139.181
21
-97.2105
0
LINE
8
BLACK
6
CONTINUOUS
10
139.181
20
-97.2105
11
138.963
21
-97.537
0
LINE
8
BLACK
6
CONTINUOUS
10
138.963
20
-97.537
11
138.685
21
-97.8148
0
LINE
8
BLACK
6
CONTINUOUS
10
138.685
20
-97.8148
11
138.358
21
-98.033
0
LINE
8
BLACK
6
CONTINUOUS
10
138.358
20
-98.033
11
137.996
21
-98.1833
0
LINE
8
BLACK
6
CONTINUOUS
10
137.996
20
-98.1833
11
137.61
21
-98.2599
0
LINE
8
BLACK
6
CONTINUOUS
10
137.61
20
-98.2599
11
137.218
21
-98.2599
0
LINE
8
BLACK
6
CONTINUOUS
10
137.218
20
-98.2599
11
136.832
21
-98.1833
0
LINE
8
BLACK
6
CONTINUOUS
10
136.832
20
-98.1833
11
136.47
21
-98.033
0
LINE
8
BLACK
6
CONTINUOUS
10
136.47
20
-98.033
11
136.143
21
-97.8148
0
LINE
8
BLACK
6
CONTINUOUS
10
136.143
20
-97.8148
11
135.865
21
-97.537
0
LINE
8
BLACK
6
CONTINUOUS
10
135.865
20
-97.537
11
135.647
21
-97.2105
0
LINE
8
BLACK
6
CONTINUOUS
10
135.647
20
-97.2105
11
135.497
21
-96.8476
0
LINE
8
BLACK
6
CONTINUOUS
10
135.497
20
-96.8476
11
135.42
21
-96.4624
0
LINE
8
BLACK
6
CONTINUOUS
10
135.42
20
-96.4624
11
135.42
21
-96.0696
0
LINE
8
BLACK
6
CONTINUOUS
10
135.42
20
-96.0696
11
135.497
21
-95.6844
0
LINE
8
BLACK
6
CONTINUOUS
10
135.497
20
-95.6844
11
135.647
21
-95.3215
0
LINE
8
BLACK
6
CONTINUOUS
10
135.647
20
-95.3215
11
135.865
21
-94.995
0
LINE
8
BLACK
6
CONTINUOUS
10
135.865
20
-94.995
11
136.143
21
-94.7172
0
LINE
8
BLACK
6
CONTINUOUS
10
136.143
20
-94.7172
11
136.47
21
-94.499
0
LINE
8
BLACK
6
CONTINUOUS
10
136.47
20
-94.499
11
136.832
21
-94.3487
0
LINE
8
BLACK
6
CONTINUOUS
10
136.832
20
-94.3487
11
137.218
21
-94.2721
0
LINE
8
BLACK
6
CONTINUOUS
10
137.218
20
-94.2721
11
137.61
21
-94.2721
0
LINE
8
BLACK
6
CONTINUOUS
10
137.61
20
-94.2721
11
137.996
21
-94.3487
0
LINE
8
BLACK
6
CONTINUOUS
10
145.285
20
-95.8925
11
145.444
21
-95.9585
0
LINE
8
BLACK
6
CONTINUOUS
10
145.444
20
-95.9585
11
145.588
21
-96.0544
0
LINE
8
BLACK
6
CONTINUOUS
10
145.588
20
-96.0544
11
145.71
21
-96.1765
0
LINE
8
BLACK
6
CONTINUOUS
10
145.71
20
-96.1765
11
145.806
21
-96.32
0
LINE
8
BLACK
6
CONTINUOUS
10
145.806
20
-96.32
11
145.872
21
-96.4795
0
LINE
8
BLACK
6
CONTINUOUS
10
145.872
20
-96.4795
11
145.905
21
-96.6488
0
LINE
8
BLACK
6
CONTINUOUS
10
145.905
20
-96.6488
11
145.905
21
-96.8214
0
LINE
8
BLACK
6
CONTINUOUS
10
145.905
20
-96.8214
11
145.872
21
-96.9907
0
LINE
8
BLACK
6
CONTINUOUS
10
145.872
20
-96.9907
11
145.806
21
-97.1502
0
LINE
8
BLACK
6
CONTINUOUS
10
145.806
20
-97.1502
11
145.71
21
-97.2937
0
LINE
8
BLACK
6
CONTINUOUS
10
145.71
20
-97.2937
11
145.588
21
-97.4158
0
LINE
8
BLACK
6
CONTINUOUS
10
145.588
20
-97.4158
11
145.444
21
-97.5117
0
LINE
8
BLACK
6
CONTINUOUS
10
145.444
20
-97.5117
11
145.285
21
-97.5777
0
LINE
8
BLACK
6
CONTINUOUS
10
145.285
20
-97.5777
11
145.115
21
-97.6114
0
LINE
8
BLACK
6
CONTINUOUS
10
145.115
20
-97.6114
11
144.943
21
-97.6114
0
LINE
8
BLACK
6
CONTINUOUS
10
144.943
20
-97.6114
11
144.774
21
-97.5777
0
LINE
8
BLACK
6
CONTINUOUS
10
144.774
20
-97.5777
11
144.614
21
-97.5117
0
LINE
8
BLACK
6
CONTINUOUS
10
144.614
20
-97.5117
11
144.471
21
-97.4158
0
LINE
8
BLACK
6
CONTINUOUS
10
144.471
20
-97.4158
11
144.348
21
-97.2937
0
LINE
8
BLACK
6
CONTINUOUS
10
144.348
20
-97.2937
11
144.253
21
-97.1502
0
LINE
8
BLACK
6
CONTINUOUS
10
144.253
20
-97.1502
11
144.186
21
-96.9907
0
LINE
8
BLACK
6
CONTINUOUS
10
144.186
20
-96.9907
11
144.153
21
-96.8214
0
LINE
8
BLACK
6
CONTINUOUS
10
144.153
20
-96.8214
11
144.153
21
-96.6488
0
LINE
8
BLACK
6
CONTINUOUS
10
144.153
20
-96.6488
11
144.186
21
-96.4795
0
LINE
8
BLACK
6
CONTINUOUS
10
144.186
20
-96.4795
11
144.253
21
-96.32
0
LINE
8
BLACK
6
CONTINUOUS
10
144.253
20
-96.32
11
144.348
21
-96.1765
0
LINE
8
BLACK
6
CONTINUOUS
10
144.348
20
-96.1765
11
144.471
21
-96.0544
0
LINE
8
BLACK
6
CONTINUOUS
10
144.471
20
-96.0544
11
144.614
21
-95.9585
0
LINE
8
BLACK
6
CONTINUOUS
10
144.614
20
-95.9585
11
144.774
21
-95.8925
0
LINE
8
BLACK
6
CONTINUOUS
10
144.774
20
-95.8925
11
144.943
21
-95.8588
0
LINE
8
BLACK
6
CONTINUOUS
10
144.943
20
-95.8588
11
145.115
21
-95.8588
0
LINE
8
BLACK
6
CONTINUOUS
10
145.115
20
-95.8588
11
145.285
21
-95.8925
0
LINE
8
BLACK
6
CONTINUOUS
10
121.703
20
-93.6793
11
122.022
21
-93.8112
0
LINE
8
BLACK
6
CONTINUOUS
10
122.022
20
-93.8112
11
122.309
21
-94.0027
0
LINE
8
BLACK
6
CONTINUOUS
10
122.309
20
-94.0027
11
122.552
21
-94.2464
0
LINE
8
BLACK
6
CONTINUOUS
10
122.552
20
-94.2464
11
122.744
21
-94.5331
0
LINE
8
BLACK
6
CONTINUOUS
10
122.744
20
-94.5331
11
122.876
21
-94.8515
0
LINE
8
BLACK
6
CONTINUOUS
10
122.876
20
-94.8515
11
122.943
21
-95.1896
0
LINE
8
BLACK
6
CONTINUOUS
10
122.943
20
-95.1896
11
122.943
21
-95.5344
0
LINE
8
BLACK
6
CONTINUOUS
10
122.943
20
-95.5344
11
122.876
21
-95.8725
0
LINE
8
BLACK
6
CONTINUOUS
10
122.876
20
-95.8725
11
122.744
21
-96.1909
0
LINE
8
BLACK
6
CONTINUOUS
10
122.744
20
-96.1909
11
122.552
21
-96.4776
0
LINE
8
BLACK
6
CONTINUOUS
10
122.552
20
-96.4776
11
122.309
21
-96.7213
0
LINE
8
BLACK
6
CONTINUOUS
10
122.309
20
-96.7213
11
122.022
21
-96.9128
0
LINE
8
BLACK
6
CONTINUOUS
10
122.022
20
-96.9128
11
121.703
21
-97.0447
0
LINE
8
BLACK
6
CONTINUOUS
10
121.703
20
-97.0447
11
121.365
21
-97.112
0
LINE
8
BLACK
6
CONTINUOUS
10
121.365
20
-97.112
11
121.021
21
-97.112
0
LINE
8
BLACK
6
CONTINUOUS
10
121.021
20
-97.112
11
120.683
21
-97.0447
0
LINE
8
BLACK
6
CONTINUOUS
10
120.683
20
-97.0447
11
120.364
21
-96.9128
0
LINE
8
BLACK
6
CONTINUOUS
10
120.364
20
-96.9128
11
120.077
21
-96.7213
0
LINE
8
BLACK
6
CONTINUOUS
10
120.077
20
-96.7213
11
119.834
21
-96.4776
0
LINE
8
BLACK
6
CONTINUOUS
10
119.834
20
-96.4776
11
119.642
21
-96.1909
0
LINE
8
BLACK
6
CONTINUOUS
10
119.642
20
-96.1909
11
119.51
21
-95.8725
0
LINE
8
BLACK
6
CONTINUOUS
10
119.51
20
-95.8725
11
119.443
21
-95.5344
0
LINE
8
BLACK
6
CONTINUOUS
10
119.443
20
-95.5344
11
119.443
21
-95.1896
0
LINE
8
BLACK
6
CONTINUOUS
10
119.443
20
-95.1896
11
119.51
21
-94.8515
0
LINE
8
BLACK
6
CONTINUOUS
10
119.51
20
-94.8515
11
119.642
21
-94.5331
0
LINE
8
BLACK
6
CONTINUOUS
10
119.642
20
-94.5331
11
119.834
21
-94.2464
0
LINE
8
BLACK
6
CONTINUOUS
10
119.834
20
-94.2464
11
120.077
21
-94.0027
0
LINE
8
BLACK
6
CONTINUOUS
10
120.077
20
-94.0027
11
120.364
21
-93.8112
0
LINE
8
BLACK
6
CONTINUOUS
10
120.364
20
-93.8112
11
120.683
21
-93.6793
0
LINE
8
BLACK
6
CONTINUOUS
10
120.683
20
-93.6793
11
121.021
21
-93.612
0
LINE
8
BLACK
6
CONTINUOUS
10
121.021
20
-93.612
11
121.365
21
-93.612
0
LINE
8
BLACK
6
CONTINUOUS
10
121.365
20
-93.612
11
121.703
21
-93.6793
0
LINE
8
BLACK
6
CONTINUOUS
10
127.006
20
-94.7136
11
127.166
21
-94.7797
0
LINE
8
BLACK
6
CONTINUOUS
10
127.166
20
-94.7797
11
127.309
21
-94.8756
0
LINE
8
BLACK
6
CONTINUOUS
10
127.309
20
-94.8756
11
127.432
21
-94.9977
0
LINE
8
BLACK
6
CONTINUOUS
10
127.432
20
-94.9977
11
127.527
21
-95.1412
0
LINE
8
BLACK
6
CONTINUOUS
10
127.527
20
-95.1412
11
127.594
21
-95.3007
0
LINE
8
BLACK
6
CONTINUOUS
10
127.594
20
-95.3007
11
127.627
21
-95.47
0
LINE
8
BLACK
6
CONTINUOUS
10
127.627
20
-95.47
11
127.627
21
-95.6426
0
LINE
8
BLACK
6
CONTINUOUS
10
127.627
20
-95.6426
11
127.594
21
-95.8119
0
LINE
8
BLACK
6
CONTINUOUS
10
127.594
20
-95.8119
11
127.527
21
-95.9714
0
LINE
8
BLACK
6
CONTINUOUS
10
127.527
20
-95.9714
11
127.432
21
-96.1149
0
LINE
8
BLACK
6
CONTINUOUS
10
127.432
20
-96.1149
11
127.309
21
-96.2369
0
LINE
8
BLACK
6
CONTINUOUS
10
127.309
20
-96.2369
11
127.166
21
-96.3328
0
LINE
8
BLACK
6
CONTINUOUS
10
127.166
20
-96.3328
11
127.006
21
-96.3989
0
LINE
8
BLACK
6
CONTINUOUS
10
127.006
20
-96.3989
11
126.837
21
-96.4326
0
LINE
8
BLACK
6
CONTINUOUS
10
126.837
20
-96.4326
11
126.665
21
-96.4326
0
LINE
8
BLACK
6
CONTINUOUS
10
126.665
20
-96.4326
11
126.495
21
-96.3989
0
LINE
8
BLACK
6
CONTINUOUS
10
126.495
20
-96.3989
11
126.336
21
-96.3328
0
LINE
8
BLACK
6
CONTINUOUS
10
126.336
20
-96.3328
11
126.192
21
-96.2369
0
LINE
8
BLACK
6
CONTINUOUS
10
126.192
20
-96.2369
11
126.07
21
-96.1149
0
LINE
8
BLACK
6
CONTINUOUS
10
126.07
20
-96.1149
11
125.974
21
-95.9714
0
LINE
8
BLACK
6
CONTINUOUS
10
125.974
20
-95.9714
11
125.908
21
-95.8119
0
LINE
8
BLACK
6
CONTINUOUS
10
125.908
20
-95.8119
11
125.875
21
-95.6426
0
LINE
8
BLACK
6
CONTINUOUS
10
125.875
20
-95.6426
11
125.875
21
-95.47
0
LINE
8
BLACK
6
CONTINUOUS
10
125.875
20
-95.47
11
125.908
21
-95.3007
0
LINE
8
BLACK
6
CONTINUOUS
10
125.908
20
-95.3007
11
125.974
21
-95.1412
0
LINE
8
BLACK
6
CONTINUOUS
10
125.974
20
-95.1412
11
126.07
21
-94.9977
0
LINE
8
BLACK
6
CONTINUOUS
10
126.07
20
-94.9977
11
126.192
21
-94.8756
0
LINE
8
BLACK
6
CONTINUOUS
10
126.192
20
-94.8756
11
126.336
21
-94.7797
0
LINE
8
BLACK
6
CONTINUOUS
10
126.336
20
-94.7797
11
126.495
21
-94.7136
0
LINE
8
BLACK
6
CONTINUOUS
10
126.495
20
-94.7136
11
126.665
21
-94.68
0
LINE
8
BLACK
6
CONTINUOUS
10
126.665
20
-94.68
11
126.837
21
-94.68
0
LINE
8
BLACK
6
CONTINUOUS
10
126.837
20
-94.68
11
127.006
21
-94.7136
0
LINE
8
BLACK
6
CONTINUOUS
10
133.805
20
-96.2135
11
132.005
21
-96.2135
0
LINE
8
BLACK
6
CONTINUOUS
10
132.005
20
-96.2135
11
132.005
21
-94.4135
0
LINE
8
BLACK
6
CONTINUOUS
10
132.005
20
-94.4135
11
133.805
21
-94.4135
0
LINE
8
BLACK
6
CONTINUOUS
10
133.805
20
-94.4135
11
133.805
21
-96.2135
0
LINE
8
BLACK
6
CONTINUOUS
10
144.015
20
-93.6928
11
144.174
21
-93.7588
0
LINE
8
BLACK
6
CONTINUOUS
10
144.174
20
-93.7588
11
144.318
21
-93.8547
0
LINE
8
BLACK
6
CONTINUOUS
10
144.318
20
-93.8547
11
144.44
21
-93.9768
0
LINE
8
BLACK
6
CONTINUOUS
10
144.44
20
-93.9768
11
144.536
21
-94.1203
0
LINE
8
BLACK
6
CONTINUOUS
10
144.536
20
-94.1203
11
144.602
21
-94.2798
0
LINE
8
BLACK
6
CONTINUOUS
10
144.602
20
-94.2798
11
144.635
21
-94.4491
0
LINE
8
BLACK
6
CONTINUOUS
10
144.635
20
-94.4491
11
144.635
21
-94.6217
0
LINE
8
BLACK
6
CONTINUOUS
10
144.635
20
-94.6217
11
144.602
21
-94.791
0
LINE
8
BLACK
6
CONTINUOUS
10
144.602
20
-94.791
11
144.536
21
-94.9505
0
LINE
8
BLACK
6
CONTINUOUS
10
144.536
20
-94.9505
11
144.44
21
-95.094
0
LINE
8
BLACK
6
CONTINUOUS
10
144.44
20
-95.094
11
144.318
21
-95.216
0
LINE
8
BLACK
6
CONTINUOUS
10
144.318
20
-95.216
11
144.174
21
-95.3119
0
LINE
8
BLACK
6
CONTINUOUS
10
144.174
20
-95.3119
11
144.015
21
-95.378
0
LINE
8
BLACK
6
CONTINUOUS
10
144.015
20
-95.378
11
143.845
21
-95.4117
0
LINE
8
BLACK
6
CONTINUOUS
10
143.845
20
-95.4117
11
143.673
21
-95.4117
0
LINE
8
BLACK
6
CONTINUOUS
10
143.673
20
-95.4117
11
143.504
21
-95.378
0
LINE
8
BLACK
6
CONTINUOUS
10
143.504
20
-95.378
11
143.344
21
-95.3119
0
LINE
8
BLACK
6
CONTINUOUS
10
143.344
20
-95.3119
11
143.201
21
-95.216
0
LINE
8
BLACK
6
CONTINUOUS
10
143.201
20
-95.216
11
143.078
21
-95.094
0
LINE
8
BLACK
6
CONTINUOUS
10
143.078
20
-95.094
11
142.983
21
-94.9505
0
LINE
8
BLACK
6
CONTINUOUS
10
142.983
20
-94.9505
11
142.916
21
-94.791
0
LINE
8
BLACK
6
CONTINUOUS
10
142.916
20
-94.791
11
142.883
21
-94.6217
0
LINE
8
BLACK
6
CONTINUOUS
10
142.883
20
-94.6217
11
142.883
21
-94.4491
0
LINE
8
BLACK
6
CONTINUOUS
10
142.883
20
-94.4491
11
142.916
21
-94.2798
0
LINE
8
BLACK
6
CONTINUOUS
10
142.916
20
-94.2798
11
142.983
21
-94.1203
0
LINE
8
BLACK
6
CONTINUOUS
10
142.983
20
-94.1203
11
143.078
21
-93.9768
0
LINE
8
BLACK
6
CONTINUOUS
10
143.078
20
-93.9768
11
143.201
21
-93.8547
0
LINE
8
BLACK
6
CONTINUOUS
10
143.201
20
-93.8547
11
143.344
21
-93.7588
0
LINE
8
BLACK
6
CONTINUOUS
10
143.344
20
-93.7588
11
143.504
21
-93.6928
0
LINE
8
BLACK
6
CONTINUOUS
10
143.504
20
-93.6928
11
143.673
21
-93.6591
0
LINE
8
BLACK
6
CONTINUOUS
10
143.673
20
-93.6591
11
143.845
21
-93.6591
0
LINE
8
BLACK
6
CONTINUOUS
10
143.845
20
-93.6591
11
144.015
21
-93.6928
0
LINE
8
BLACK
6
CONTINUOUS
10
125.736
20
-92.5139
11
125.896
21
-92.58
0
LINE
8
BLACK
6
CONTINUOUS
10
125.896
20
-92.58
11
126.039
21
-92.6759
0
LINE
8
BLACK
6
CONTINUOUS
10
126.039
20
-92.6759
11
126.162
21
-92.798
0
LINE
8
BLACK
6
CONTINUOUS
10
126.162
20
-92.798
11
126.257
21
-92.9415
0
LINE
8
BLACK
6
CONTINUOUS
10
126.257
20
-92.9415
11
126.324
21
-93.101
0
LINE
8
BLACK
6
CONTINUOUS
10
126.324
20
-93.101
11
126.357
21
-93.2703
0
LINE
8
BLACK
6
CONTINUOUS
10
126.357
20
-93.2703
11
126.357
21
-93.4429
0
LINE
8
BLACK
6
CONTINUOUS
10
126.357
20
-93.4429
11
126.324
21
-93.6122
0
LINE
8
BLACK
6
CONTINUOUS
10
126.324
20
-93.6122
11
126.257
21
-93.7716
0
LINE
8
BLACK
6
CONTINUOUS
10
126.257
20
-93.7716
11
126.162
21
-93.9152
0
LINE
8
BLACK
6
CONTINUOUS
10
126.162
20
-93.9152
11
126.039
21
-94.0372
0
LINE
8
BLACK
6
CONTINUOUS
10
126.039
20
-94.0372
11
125.896
21
-94.1331
0
LINE
8
BLACK
6
CONTINUOUS
10
125.896
20
-94.1331
11
125.736
21
-94.1992
0
LINE
8
BLACK
6
CONTINUOUS
10
125.736
20
-94.1992
11
125.567
21
-94.2329
0
LINE
8
BLACK
6
CONTINUOUS
10
125.567
20
-94.2329
11
125.395
21
-94.2329
0
LINE
8
BLACK
6
CONTINUOUS
10
125.395
20
-94.2329
11
125.225
21
-94.1992
0
LINE
8
BLACK
6
CONTINUOUS
10
125.225
20
-94.1992
11
125.066
21
-94.1331
0
LINE
8
BLACK
6
CONTINUOUS
10
125.066
20
-94.1331
11
124.922
21
-94.0372
0
LINE
8
BLACK
6
CONTINUOUS
10
124.922
20
-94.0372
11
124.8
21
-93.9152
0
LINE
8
BLACK
6
CONTINUOUS
10
124.8
20
-93.9152
11
124.704
21
-93.7716
0
LINE
8
BLACK
6
CONTINUOUS
10
124.704
20
-93.7716
11
124.638
21
-93.6122
0
LINE
8
BLACK
6
CONTINUOUS
10
124.638
20
-93.6122
11
124.605
21
-93.4429
0
LINE
8
BLACK
6
CONTINUOUS
10
124.605
20
-93.4429
11
124.605
21
-93.2703
0
LINE
8
BLACK
6
CONTINUOUS
10
124.605
20
-93.2703
11
124.638
21
-93.101
0
LINE
8
BLACK
6
CONTINUOUS
10
124.638
20
-93.101
11
124.704
21
-92.9415
0
LINE
8
BLACK
6
CONTINUOUS
10
124.704
20
-92.9415
11
124.8
21
-92.798
0
LINE
8
BLACK
6
CONTINUOUS
10
124.8
20
-92.798
11
124.922
21
-92.6759
0
LINE
8
BLACK
6
CONTINUOUS
10
124.922
20
-92.6759
11
125.066
21
-92.58
0
LINE
8
BLACK
6
CONTINUOUS
10
125.066
20
-92.58
11
125.225
21
-92.5139
0
LINE
8
BLACK
6
CONTINUOUS
10
125.225
20
-92.5139
11
125.395
21
-92.4803
0
LINE
8
BLACK
6
CONTINUOUS
10
125.395
20
-92.4803
11
125.567
21
-92.4803
0
LINE
8
BLACK
6
CONTINUOUS
10
125.567
20
-92.4803
11
125.736
21
-92.5139
0
LINE
8
BLACK
6
CONTINUOUS
10
142.745
20
-91.4931
11
142.904
21
-91.5591
0
LINE
8
BLACK
6
CONTINUOUS
10
142.904
20
-91.5591
11
143.048
21
-91.655
0
LINE
8
BLACK
6
CONTINUOUS
10
143.048
20
-91.655
11
143.17
21
-91.7771
0
LINE
8
BLACK
6
CONTINUOUS
10
143.17
20
-91.7771
11
143.266
21
-91.9206
0
LINE
8
BLACK
6
CONTINUOUS
10
143.266
20
-91.9206
11
143.332
21
-92.0801
0
LINE
8
BLACK
6
CONTINUOUS
10
143.332
20
-92.0801
11
143.365
21
-92.2494
0
LINE
8
BLACK
6
CONTINUOUS
10
143.365
20
-92.2494
11
143.365
21
-92.422
0
LINE
8
BLACK
6
CONTINUOUS
10
143.365
20
-92.422
11
143.332
21
-92.5913
0
LINE
8
BLACK
6
CONTINUOUS
10
143.332
20
-92.5913
11
143.266
21
-92.7508
0
LINE
8
BLACK
6
CONTINUOUS
10
143.266
20
-92.7508
11
143.17
21
-92.8943
0
LINE
8
BLACK
6
CONTINUOUS
10
143.17
20
-92.8943
11
143.048
21
-93.0163
0
LINE
8
BLACK
6
CONTINUOUS
10
143.048
20
-93.0163
11
142.904
21
-93.1122
0
LINE
8
BLACK
6
CONTINUOUS
10
142.904
20
-93.1122
11
142.745
21
-93.1783
0
LINE
8
BLACK
6
CONTINUOUS
10
142.745
20
-93.1783
11
142.575
21
-93.212
0
LINE
8
BLACK
6
CONTINUOUS
10
142.575
20
-93.212
11
142.403
21
-93.212
0
LINE
8
BLACK
6
CONTINUOUS
10
142.403
20
-93.212
11
142.234
21
-93.1783
0
LINE
8
BLACK
6
CONTINUOUS
10
142.234
20
-93.1783
11
142.074
21
-93.1122
0
LINE
8
BLACK
6
CONTINUOUS
10
142.074
20
-93.1122
11
141.931
21
-93.0163
0
LINE
8
BLACK
6
CONTINUOUS
10
141.931
20
-93.0163
11
141.808
21
-92.8943
0
LINE
8
BLACK
6
CONTINUOUS
10
141.808
20
-92.8943
11
141.713
21
-92.7508
0
LINE
8
BLACK
6
CONTINUOUS
10
141.713
20
-92.7508
11
141.646
21
-92.5913
0
LINE
8
BLACK
6
CONTINUOUS
10
141.646
20
-92.5913
11
141.613
21
-92.422
0
LINE
8
BLACK
6
CONTINUOUS
10
141.613
20
-92.422
11
141.613
21
-92.2494
0
LINE
8
BLACK
6
CONTINUOUS
10
141.613
20
-92.2494
11
141.646
21
-92.0801
0
LINE
8
BLACK
6
CONTINUOUS
10
141.646
20
-92.0801
11
141.713
21
-91.9206
0
LINE
8
BLACK
6
CONTINUOUS
10
141.713
20
-91.9206
11
141.808
21
-91.7771
0
LINE
8
BLACK
6
CONTINUOUS
10
141.808
20
-91.7771
11
141.931
21
-91.655
0
LINE
8
BLACK
6
CONTINUOUS
10
141.931
20
-91.655
11
142.074
21
-91.5591
0
LINE
8
BLACK
6
CONTINUOUS
10
142.074
20
-91.5591
11
142.234
21
-91.4931
0
LINE
8
BLACK
6
CONTINUOUS
10
142.234
20
-91.4931
11
142.403
21
-91.4594
0
LINE
8
BLACK
6
CONTINUOUS
10
142.403
20
-91.4594
11
142.575
21
-91.4594
0
LINE
8
BLACK
6
CONTINUOUS
10
142.575
20
-91.4594
11
142.745
21
-91.4931
0
LINE
8
BLACK
6
CONTINUOUS
10
137.669
20
-90.3446
11
137.828
21
-90.4106
0
LINE
8
BLACK
6
CONTINUOUS
10
137.828
20
-90.4106
11
137.972
21
-90.5063
0
LINE
8
BLACK
6
CONTINUOUS
10
137.972
20
-90.5063
11
138.094
21
-90.6282
0
LINE
8
BLACK
6
CONTINUOUS
10
138.094
20
-90.6282
11
138.189
21
-90.7715
0
LINE
8
BLACK
6
CONTINUOUS
10
138.189
20
-90.7715
11
138.255
21
-90.9308
0
LINE
8
BLACK
6
CONTINUOUS
10
138.255
20
-90.9308
11
138.289
21
-91.0998
0
LINE
8
BLACK
6
CONTINUOUS
10
138.289
20
-91.0998
11
138.289
21
-91.2722
0
LINE
8
BLACK
6
CONTINUOUS
10
138.289
20
-91.2722
11
138.255
21
-91.4412
0
LINE
8
BLACK
6
CONTINUOUS
10
138.255
20
-91.4412
11
138.189
21
-91.6005
0
LINE
8
BLACK
6
CONTINUOUS
10
138.189
20
-91.6005
11
138.094
21
-91.7438
0
LINE
8
BLACK
6
CONTINUOUS
10
138.094
20
-91.7438
11
137.972
21
-91.8657
0
LINE
8
BLACK
6
CONTINUOUS
10
137.972
20
-91.8657
11
137.828
21
-91.9614
0
LINE
8
BLACK
6
CONTINUOUS
10
137.828
20
-91.9614
11
137.669
21
-92.0274
0
LINE
8
BLACK
6
CONTINUOUS
10
137.669
20
-92.0274
11
137.5
21
-92.061
0
LINE
8
BLACK
6
CONTINUOUS
10
137.5
20
-92.061
11
137.328
21
-92.061
0
LINE
8
BLACK
6
CONTINUOUS
10
137.328
20
-92.061
11
137.159
21
-92.0274
0
LINE
8
BLACK
6
CONTINUOUS
10
137.159
20
-92.0274
11
137
21
-91.9614
0
LINE
8
BLACK
6
CONTINUOUS
10
137
20
-91.9614
11
136.856
21
-91.8657
0
LINE
8
BLACK
6
CONTINUOUS
10
136.856
20
-91.8657
11
136.734
21
-91.7438
0
LINE
8
BLACK
6
CONTINUOUS
10
136.734
20
-91.7438
11
136.639
21
-91.6005
0
LINE
8
BLACK
6
CONTINUOUS
10
136.639
20
-91.6005
11
136.573
21
-91.4412
0
LINE
8
BLACK
6
CONTINUOUS
10
136.573
20
-91.4412
11
136.539
21
-91.2722
0
LINE
8
BLACK
6
CONTINUOUS
10
136.539
20
-91.2722
11
136.539
21
-91.0998
0
LINE
8
BLACK
6
CONTINUOUS
10
136.539
20
-91.0998
11
136.573
21
-90.9308
0
LINE
8
BLACK
6
CONTINUOUS
10
136.573
20
-90.9308
11
136.639
21
-90.7715
0
LINE
8
BLACK
6
CONTINUOUS
10
136.639
20
-90.7715
11
136.734
21
-90.6282
0
LINE
8
BLACK
6
CONTINUOUS
10
136.734
20
-90.6282
11
136.856
21
-90.5063
0
LINE
8
BLACK
6
CONTINUOUS
10
136.856
20
-90.5063
11
137
21
-90.4106
0
LINE
8
BLACK
6
CONTINUOUS
10
137
20
-90.4106
11
137.159
21
-90.3446
0
LINE
8
BLACK
6
CONTINUOUS
10
137.159
20
-90.3446
11
137.328
21
-90.311
0
LINE
8
BLACK
6
CONTINUOUS
10
137.328
20
-90.311
11
137.5
21
-90.311
0
LINE
8
BLACK
6
CONTINUOUS
10
137.5
20
-90.311
11
137.669
21
-90.3446
0
LINE
8
BLACK
6
CONTINUOUS
10
124.466
20
-90.3142
11
124.626
21
-90.3803
0
LINE
8
BLACK
6
CONTINUOUS
10
124.626
20
-90.3803
11
124.769
21
-90.4762
0
LINE
8
BLACK
6
CONTINUOUS
10
124.769
20
-90.4762
11
124.892
21
-90.5982
0
LINE
8
BLACK
6
CONTINUOUS
10
124.892
20
-90.5982
11
124.987
21
-90.7418
0
LINE
8
BLACK
6
CONTINUOUS
10
124.987
20
-90.7418
11
125.054
21
-90.9012
0
LINE
8
BLACK
6
CONTINUOUS
10
125.054
20
-90.9012
11
125.087
21
-91.0705
0
LINE
8
BLACK
6
CONTINUOUS
10
125.087
20
-91.0705
11
125.087
21
-91.2432
0
LINE
8
BLACK
6
CONTINUOUS
10
125.087
20
-91.2432
11
125.054
21
-91.4125
0
LINE
8
BLACK
6
CONTINUOUS
10
125.054
20
-91.4125
11
124.987
21
-91.5719
0
LINE
8
BLACK
6
CONTINUOUS
10
124.987
20
-91.5719
11
124.892
21
-91.7155
0
LINE
8
BLACK
6
CONTINUOUS
10
124.892
20
-91.7155
11
124.769
21
-91.8375
0
LINE
8
BLACK
6
CONTINUOUS
10
124.769
20
-91.8375
11
124.626
21
-91.9334
0
LINE
8
BLACK
6
CONTINUOUS
10
124.626
20
-91.9334
11
124.466
21
-91.9995
0
LINE
8
BLACK
6
CONTINUOUS
10
124.466
20
-91.9995
11
124.297
21
-92.0332
0
LINE
8
BLACK
6
CONTINUOUS
10
124.297
20
-92.0332
11
124.125
21
-92.0332
0
LINE
8
BLACK
6
CONTINUOUS
10
124.125
20
-92.0332
11
123.955
21
-91.9995
0
LINE
8
BLACK
6
CONTINUOUS
10
123.955
20
-91.9995
11
123.796
21
-91.9334
0
LINE
8
BLACK
6
CONTINUOUS
10
123.796
20
-91.9334
11
123.652
21
-91.8375
0
LINE
8
BLACK
6
CONTINUOUS
10
123.652
20
-91.8375
11
123.53
21
-91.7155
0
LINE
8
BLACK
6
CONTINUOUS
10
123.53
20
-91.7155
11
123.434
21
-91.5719
0
LINE
8
BLACK
6
CONTINUOUS
10
123.434
20
-91.5719
11
123.368
21
-91.4125
0
LINE
8
BLACK
6
CONTINUOUS
10
123.368
20
-91.4125
11
123.335
21
-91.2432
0
LINE
8
BLACK
6
CONTINUOUS
10
123.335
20
-91.2432
11
123.335
21
-91.0705
0
LINE
8
BLACK
6
CONTINUOUS
10
123.335
20
-91.0705
11
123.368
21
-90.9012
0
LINE
8
BLACK
6
CONTINUOUS
10
123.368
20
-90.9012
11
123.434
21
-90.7418
0
LINE
8
BLACK
6
CONTINUOUS
10
123.434
20
-90.7418
11
123.53
21
-90.5982
0
LINE
8
BLACK
6
CONTINUOUS
10
123.53
20
-90.5982
11
123.652
21
-90.4762
0
LINE
8
BLACK
6
CONTINUOUS
10
123.652
20
-90.4762
11
123.796
21
-90.3803
0
LINE
8
BLACK
6
CONTINUOUS
10
123.796
20
-90.3803
11
123.955
21
-90.3142
0
LINE
8
BLACK
6
CONTINUOUS
10
123.955
20
-90.3142
11
124.125
21
-90.2806
0
LINE
8
BLACK
6
CONTINUOUS
10
124.125
20
-90.2806
11
124.297
21
-90.2806
0
LINE
8
BLACK
6
CONTINUOUS
10
124.297
20
-90.2806
11
124.466
21
-90.3142
0
LINE
8
BLACK
6
CONTINUOUS
10
141.475
20
-89.2933
11
141.634
21
-89.3594
0
LINE
8
BLACK
6
CONTINUOUS
10
141.634
20
-89.3594
11
141.778
21
-89.4553
0
LINE
8
BLACK
6
CONTINUOUS
10
141.778
20
-89.4553
11
141.9
21
-89.5774
0
LINE
8
BLACK
6
CONTINUOUS
10
141.9
20
-89.5774
11
141.996
21
-89.7209
0
LINE
8
BLACK
6
CONTINUOUS
10
141.996
20
-89.7209
11
142.062
21
-89.8804
0
LINE
8
BLACK
6
CONTINUOUS
10
142.062
20
-89.8804
11
142.095
21
-90.0497
0
LINE
8
BLACK
6
CONTINUOUS
10
142.095
20
-90.0497
11
142.095
21
-90.2223
0
LINE
8
BLACK
6
CONTINUOUS
10
142.095
20
-90.2223
11
142.062
21
-90.3916
0
LINE
8
BLACK
6
CONTINUOUS
10
142.062
20
-90.3916
11
141.996
21
-90.5511
0
LINE
8
BLACK
6
CONTINUOUS
10
141.996
20
-90.5511
11
141.9
21
-90.6946
0
LINE
8
BLACK
6
CONTINUOUS
10
141.9
20
-90.6946
11
141.778
21
-90.8166
0
LINE
8
BLACK
6
CONTINUOUS
10
141.778
20
-90.8166
11
141.634
21
-90.9125
0
LINE
8
BLACK
6
CONTINUOUS
10
141.634
20
-90.9125
11
141.475
21
-90.9786
0
LINE
8
BLACK
6
CONTINUOUS
10
141.475
20
-90.9786
11
141.305
21
-91.0123
0
LINE
8
BLACK
6
CONTINUOUS
10
141.305
20
-91.0123
11
141.133
21
-91.0123
0
LINE
8
BLACK
6
CONTINUOUS
10
141.133
20
-91.0123
11
140.964
21
-90.9786
0
LINE
8
BLACK
6
CONTINUOUS
10
140.964
20
-90.9786
11
140.804
21
-90.9125
0
LINE
8
BLACK
6
CONTINUOUS
10
140.804
20
-90.9125
11
140.661
21
-90.8166
0
LINE
8
BLACK
6
CONTINUOUS
10
140.661
20
-90.8166
11
140.538
21
-90.6946
0
LINE
8
BLACK
6
CONTINUOUS
10
140.538
20
-90.6946
11
140.443
21
-90.5511
0
LINE
8
BLACK
6
CONTINUOUS
10
140.443
20
-90.5511
11
140.376
21
-90.3916
0
LINE
8
BLACK
6
CONTINUOUS
10
140.376
20
-90.3916
11
140.343
21
-90.2223
0
LINE
8
BLACK
6
CONTINUOUS
10
140.343
20
-90.2223
11
140.343
21
-90.0497
0
LINE
8
BLACK
6
CONTINUOUS
10
140.343
20
-90.0497
11
140.376
21
-89.8804
0
LINE
8
BLACK
6
CONTINUOUS
10
140.376
20
-89.8804
11
140.443
21
-89.7209
0
LINE
8
BLACK
6
CONTINUOUS
10
140.443
20
-89.7209
11
140.538
21
-89.5774
0
LINE
8
BLACK
6
CONTINUOUS
10
140.538
20
-89.5774
11
140.661
21
-89.4553
0
LINE
8
BLACK
6
CONTINUOUS
10
140.661
20
-89.4553
11
140.804
21
-89.3594
0
LINE
8
BLACK
6
CONTINUOUS
10
140.804
20
-89.3594
11
140.964
21
-89.2933
0
LINE
8
BLACK
6
CONTINUOUS
10
140.964
20
-89.2933
11
141.133
21
-89.2597
0
LINE
8
BLACK
6
CONTINUOUS
10
141.133
20
-89.2597
11
141.305
21
-89.2597
0
LINE
8
BLACK
6
CONTINUOUS
10
141.305
20
-89.2597
11
141.475
21
-89.2933
0
LINE
8
BLACK
6
CONTINUOUS
10
123.196
20
-88.1145
11
123.356
21
-88.1806
0
LINE
8
BLACK
6
CONTINUOUS
10
123.356
20
-88.1806
11
123.499
21
-88.2765
0
LINE
8
BLACK
6
CONTINUOUS
10
123.499
20
-88.2765
11
123.622
21
-88.3985
0
LINE
8
BLACK
6
CONTINUOUS
10
123.622
20
-88.3985
11
123.717
21
-88.5421
0
LINE
8
BLACK
6
CONTINUOUS
10
123.717
20
-88.5421
11
123.784
21
-88.7015
0
LINE
8
BLACK
6
CONTINUOUS
10
123.784
20
-88.7015
11
123.817
21
-88.8708
0
LINE
8
BLACK
6
CONTINUOUS
10
123.817
20
-88.8708
11
123.817
21
-89.0435
0
LINE
8
BLACK
6
CONTINUOUS
10
123.817
20
-89.0435
11
123.784
21
-89.2128
0
LINE
8
BLACK
6
CONTINUOUS
10
123.784
20
-89.2128
11
123.717
21
-89.3722
0
LINE
8
BLACK
6
CONTINUOUS
10
123.717
20
-89.3722
11
123.622
21
-89.5158
0
LINE
8
BLACK
6
CONTINUOUS
10
123.622
20
-89.5158
11
123.499
21
-89.6378
0
LINE
8
BLACK
6
CONTINUOUS
10
123.499
20
-89.6378
11
123.356
21
-89.7337
0
LINE
8
BLACK
6
CONTINUOUS
10
123.356
20
-89.7337
11
123.196
21
-89.7998
0
LINE
8
BLACK
6
CONTINUOUS
10
123.196
20
-89.7998
11
123.027
21
-89.8335
0
LINE
8
BLACK
6
CONTINUOUS
10
123.027
20
-89.8335
11
122.855
21
-89.8335
0
LINE
8
BLACK
6
CONTINUOUS
10
122.855
20
-89.8335
11
122.685
21
-89.7998
0
LINE
8
BLACK
6
CONTINUOUS
10
122.685
20
-89.7998
11
122.526
21
-89.7337
0
LINE
8
BLACK
6
CONTINUOUS
10
122.526
20
-89.7337
11
122.382
21
-89.6378
0
LINE
8
BLACK
6
CONTINUOUS
10
122.382
20
-89.6378
11
122.26
21
-89.5158
0
LINE
8
BLACK
6
CONTINUOUS
10
122.26
20
-89.5158
11
122.164
21
-89.3722
0
LINE
8
BLACK
6
CONTINUOUS
10
122.164
20
-89.3722
11
122.098
21
-89.2128
0
LINE
8
BLACK
6
CONTINUOUS
10
122.098
20
-89.2128
11
122.065
21
-89.0435
0
LINE
8
BLACK
6
CONTINUOUS
10
122.065
20
-89.0435
11
122.065
21
-88.8708
0
LINE
8
BLACK
6
CONTINUOUS
10
122.065
20
-88.8708
11
122.098
21
-88.7015
0
LINE
8
BLACK
6
CONTINUOUS
10
122.098
20
-88.7015
11
122.164
21
-88.5421
0
LINE
8
BLACK
6
CONTINUOUS
10
122.164
20
-88.5421
11
122.26
21
-88.3985
0
LINE
8
BLACK
6
CONTINUOUS
10
122.26
20
-88.3985
11
122.382
21
-88.2765
0
LINE
8
BLACK
6
CONTINUOUS
10
122.382
20
-88.2765
11
122.526
21
-88.1806
0
LINE
8
BLACK
6
CONTINUOUS
10
122.526
20
-88.1806
11
122.685
21
-88.1145
0
LINE
8
BLACK
6
CONTINUOUS
10
122.685
20
-88.1145
11
122.855
21
-88.0809
0
LINE
8
BLACK
6
CONTINUOUS
10
122.855
20
-88.0809
11
123.027
21
-88.0809
0
LINE
8
BLACK
6
CONTINUOUS
10
123.027
20
-88.0809
11
123.196
21
-88.1145
0
LINE
8
BLACK
6
CONTINUOUS
10
140.205
20
-87.0936
11
140.364
21
-87.1597
0
LINE
8
BLACK
6
CONTINUOUS
10
140.364
20
-87.1597
11
140.508
21
-87.2556
0
LINE
8
BLACK
6
CONTINUOUS
10
140.508
20
-87.2556
11
140.63
21
-87.3777
0
LINE
8
BLACK
6
CONTINUOUS
10
140.63
20
-87.3777
11
140.726
21
-87.5212
0
LINE
8
BLACK
6
CONTINUOUS
10
140.726
20
-87.5212
11
140.792
21
-87.6807
0
LINE
8
BLACK
6
CONTINUOUS
10
140.792
20
-87.6807
11
140.825
21
-87.85
0
LINE
8
BLACK
6
CONTINUOUS
10
140.825
20
-87.85
11
140.825
21
-88.0226
0
LINE
8
BLACK
6
CONTINUOUS
10
140.825
20
-88.0226
11
140.792
21
-88.1919
0
LINE
8
BLACK
6
CONTINUOUS
10
140.792
20
-88.1919
11
140.726
21
-88.3513
0
LINE
8
BLACK
6
CONTINUOUS
10
140.726
20
-88.3513
11
140.63
21
-88.4949
0
LINE
8
BLACK
6
CONTINUOUS
10
140.63
20
-88.4949
11
140.508
21
-88.6169
0
LINE
8
BLACK
6
CONTINUOUS
10
140.508
20
-88.6169
11
140.364
21
-88.7128
0
LINE
8
BLACK
6
CONTINUOUS
10
140.364
20
-88.7128
11
140.205
21
-88.7789
0
LINE
8
BLACK
6
CONTINUOUS
10
140.205
20
-88.7789
11
140.035
21
-88.8126
0
LINE
8
BLACK
6
CONTINUOUS
10
140.035
20
-88.8126
11
139.863
21
-88.8126
0
LINE
8
BLACK
6
CONTINUOUS
10
139.863
20
-88.8126
11
139.694
21
-88.7789
0
LINE
8
BLACK
6
CONTINUOUS
10
139.694
20
-88.7789
11
139.534
21
-88.7128
0
LINE
8
BLACK
6
CONTINUOUS
10
139.534
20
-88.7128
11
139.391
21
-88.6169
0
LINE
8
BLACK
6
CONTINUOUS
10
139.391
20
-88.6169
11
139.268
21
-88.4949
0
LINE
8
BLACK
6
CONTINUOUS
10
139.268
20
-88.4949
11
139.173
21
-88.3513
0
LINE
8
BLACK
6
CONTINUOUS
10
139.173
20
-88.3513
11
139.106
21
-88.1919
0
LINE
8
BLACK
6
CONTINUOUS
10
139.106
20
-88.1919
11
139.073
21
-88.0226
0
LINE
8
BLACK
6
CONTINUOUS
10
139.073
20
-88.0226
11
139.073
21
-87.85
0
LINE
8
BLACK
6
CONTINUOUS
10
139.073
20
-87.85
11
139.106
21
-87.6807
0
LINE
8
BLACK
6
CONTINUOUS
10
139.106
20
-87.6807
11
139.173
21
-87.5212
0
LINE
8
BLACK
6
CONTINUOUS
10
139.173
20
-87.5212
11
139.268
21
-87.3777
0
LINE
8
BLACK
6
CONTINUOUS
10
139.268
20
-87.3777
11
139.391
21
-87.2556
0
LINE
8
BLACK
6
CONTINUOUS
10
139.391
20
-87.2556
11
139.534
21
-87.1597
0
LINE
8
BLACK
6
CONTINUOUS
10
139.534
20
-87.1597
11
139.694
21
-87.0936
0
LINE
8
BLACK
6
CONTINUOUS
10
139.694
20
-87.0936
11
139.863
21
-87.06
0
LINE
8
BLACK
6
CONTINUOUS
10
139.863
20
-87.06
11
140.035
21
-87.06
0
LINE
8
BLACK
6
CONTINUOUS
10
140.035
20
-87.06
11
140.205
21
-87.0936
0
LINE
8
BLACK
6
CONTINUOUS
10
122.868
20
-87.0782
11
121.35
21
-87.9545
0
LINE
8
BLACK
6
CONTINUOUS
10
121.35
20
-87.9545
11
120.474
21
-86.4367
0
LINE
8
BLACK
6
CONTINUOUS
10
120.474
20
-86.4367
11
121.992
21
-85.5604
0
LINE
8
BLACK
6
CONTINUOUS
10
121.992
20
-85.5604
11
122.868
21
-87.0782
0
LINE
8
BLACK
6
CONTINUOUS
10
138.935
20
-84.8939
11
139.094
21
-84.96
0
LINE
8
BLACK
6
CONTINUOUS
10
139.094
20
-84.96
11
139.238
21
-85.0559
0
LINE
8
BLACK
6
CONTINUOUS
10
139.238
20
-85.0559
11
139.36
21
-85.178
0
LINE
8
BLACK
6
CONTINUOUS
10
139.36
20
-85.178
11
139.456
21
-85.3215
0
LINE
8
BLACK
6
CONTINUOUS
10
139.456
20
-85.3215
11
139.522
21
-85.481
0
LINE
8
BLACK
6
CONTINUOUS
10
139.522
20
-85.481
11
139.555
21
-85.6503
0
LINE
8
BLACK
6
CONTINUOUS
10
139.555
20
-85.6503
11
139.555
21
-85.8229
0
LINE
8
BLACK
6
CONTINUOUS
10
139.555
20
-85.8229
11
139.522
21
-85.9922
0
LINE
8
BLACK
6
CONTINUOUS
10
139.522
20
-85.9922
11
139.456
21
-86.1516
0
LINE
8
BLACK
6
CONTINUOUS
10
139.456
20
-86.1516
11
139.36
21
-86.2952
0
LINE
8
BLACK
6
CONTINUOUS
10
139.36
20
-86.2952
11
139.238
21
-86.4172
0
LINE
8
BLACK
6
CONTINUOUS
10
139.238
20
-86.4172
11
139.094
21
-86.5131
0
LINE
8
BLACK
6
CONTINUOUS
10
139.094
20
-86.5131
11
138.935
21
-86.5792
0
LINE
8
BLACK
6
CONTINUOUS
10
138.935
20
-86.5792
11
138.765
21
-86.6129
0
LINE
8
BLACK
6
CONTINUOUS
10
138.765
20
-86.6129
11
138.593
21
-86.6129
0
LINE
8
BLACK
6
CONTINUOUS
10
138.593
20
-86.6129
11
138.424
21
-86.5792
0
LINE
8
BLACK
6
CONTINUOUS
10
138.424
20
-86.5792
11
138.264
21
-86.5131
0
LINE
8
BLACK
6
CONTINUOUS
10
138.264
20
-86.5131
11
138.121
21
-86.4172
0
LINE
8
BLACK
6
CONTINUOUS
10
138.121
20
-86.4172
11
137.998
21
-86.2952
0
LINE
8
BLACK
6
CONTINUOUS
10
137.998
20
-86.2952
11
137.903
21
-86.1516
0
LINE
8
BLACK
6
CONTINUOUS
10
137.903
20
-86.1516
11
137.836
21
-85.9922
0
LINE
8
BLACK
6
CONTINUOUS
10
137.836
20
-85.9922
11
137.803
21
-85.8229
0
LINE
8
BLACK
6
CONTINUOUS
10
137.803
20
-85.8229
11
137.803
21
-85.6503
0
LINE
8
BLACK
6
CONTINUOUS
10
137.803
20
-85.6503
11
137.836
21
-85.481
0
LINE
8
BLACK
6
CONTINUOUS
10
137.836
20
-85.481
11
137.903
21
-85.3215
0
LINE
8
BLACK
6
CONTINUOUS
10
137.903
20
-85.3215
11
137.998
21
-85.178
0
LINE
8
BLACK
6
CONTINUOUS
10
137.998
20
-85.178
11
138.121
21
-85.0559
0
LINE
8
BLACK
6
CONTINUOUS
10
138.121
20
-85.0559
11
138.264
21
-84.96
0
LINE
8
BLACK
6
CONTINUOUS
10
138.264
20
-84.96
11
138.424
21
-84.8939
0
LINE
8
BLACK
6
CONTINUOUS
10
138.424
20
-84.8939
11
138.593
21
-84.8603
0
LINE
8
BLACK
6
CONTINUOUS
10
138.593
20
-84.8603
11
138.765
21
-84.8603
0
LINE
8
BLACK
6
CONTINUOUS
10
138.765
20
-84.8603
11
138.935
21
-84.8939
0
LINE
8
BLACK
6
CONTINUOUS
10
129.741
20
-82.4107
11
130.103
21
-82.561
0
LINE
8
BLACK
6
CONTINUOUS
10
130.103
20
-82.561
11
130.43
21
-82.7792
0
LINE
8
BLACK
6
CONTINUOUS
10
130.43
20
-82.7792
11
130.708
21
-83.057
0
LINE
8
BLACK
6
CONTINUOUS
10
130.708
20
-83.057
11
130.926
21
-83.3835
0
LINE
8
BLACK
6
CONTINUOUS
10
130.926
20
-83.3835
11
131.076
21
-83.7464
0
LINE
8
BLACK
6
CONTINUOUS
10
131.076
20
-83.7464
11
131.153
21
-84.1316
0
LINE
8
BLACK
6
CONTINUOUS
10
131.153
20
-84.1316
11
131.153
21
-84.5244
0
LINE
8
BLACK
6
CONTINUOUS
10
131.153
20
-84.5244
11
131.076
21
-84.9096
0
LINE
8
BLACK
6
CONTINUOUS
10
131.076
20
-84.9096
11
130.926
21
-85.2725
0
LINE
8
BLACK
6
CONTINUOUS
10
130.926
20
-85.2725
11
130.708
21
-85.599
0
LINE
8
BLACK
6
CONTINUOUS
10
130.708
20
-85.599
11
130.43
21
-85.8768
0
LINE
8
BLACK
6
CONTINUOUS
10
130.43
20
-85.8768
11
130.103
21
-86.095
0
LINE
8
BLACK
6
CONTINUOUS
10
130.103
20
-86.095
11
129.741
21
-86.2453
0
LINE
8
BLACK
6
CONTINUOUS
10
129.741
20
-86.2453
11
129.355
21
-86.3219
0
LINE
8
BLACK
6
CONTINUOUS
10
129.355
20
-86.3219
11
128.963
21
-86.3219
0
LINE
8
BLACK
6
CONTINUOUS
10
128.963
20
-86.3219
11
128.577
21
-86.2453
0
LINE
8
BLACK
6
CONTINUOUS
10
128.577
20
-86.2453
11
128.215
21
-86.095
0
LINE
8
BLACK
6
CONTINUOUS
10
128.215
20
-86.095
11
127.888
21
-85.8768
0
LINE
8
BLACK
6
CONTINUOUS
10
127.888
20
-85.8768
11
127.61
21
-85.599
0
LINE
8
BLACK
6
CONTINUOUS
10
127.61
20
-85.599
11
127.392
21
-85.2725
0
LINE
8
BLACK
6
CONTINUOUS
10
127.392
20
-85.2725
11
127.242
21
-84.9096
0
LINE
8
BLACK
6
CONTINUOUS
10
127.242
20
-84.9096
11
127.165
21
-84.5244
0
LINE
8
BLACK
6
CONTINUOUS
10
127.165
20
-84.5244
11
127.165
21
-84.1316
0
LINE
8
BLACK
6
CONTINUOUS
10
127.165
20
-84.1316
11
127.242
21
-83.7464
0
LINE
8
BLACK
6
CONTINUOUS
10
127.242
20
-83.7464
11
127.392
21
-83.3835
0
LINE
8
BLACK
6
CONTINUOUS
10
127.392
20
-83.3835
11
127.61
21
-83.057
0
LINE
8
BLACK
6
CONTINUOUS
10
127.61
20
-83.057
11
127.888
21
-82.7792
0
LINE
8
BLACK
6
CONTINUOUS
10
127.888
20
-82.7792
11
128.215
21
-82.561
0
LINE
8
BLACK
6
CONTINUOUS
10
128.215
20
-82.561
11
128.577
21
-82.4107
0
LINE
8
BLACK
6
CONTINUOUS
10
128.577
20
-82.4107
11
128.963
21
-82.3341
0
LINE
8
BLACK
6
CONTINUOUS
10
128.963
20
-82.3341
11
129.355
21
-82.3341
0
LINE
8
BLACK
6
CONTINUOUS
10
129.355
20
-82.3341
11
129.741
21
-82.4107
0
LINE
8
BLACK
6
CONTINUOUS
10
144.844
20
-82.8626
11
145.121
21
-82.9774
0
LINE
8
BLACK
6
CONTINUOUS
10
145.121
20
-82.9774
11
145.37
21
-83.1442
0
LINE
8
BLACK
6
CONTINUOUS
10
145.37
20
-83.1442
11
145.583
21
-83.3565
0
LINE
8
BLACK
6
CONTINUOUS
10
145.583
20
-83.3565
11
145.75
21
-83.6061
0
LINE
8
BLACK
6
CONTINUOUS
10
145.75
20
-83.6061
11
145.864
21
-83.8835
0
LINE
8
BLACK
6
CONTINUOUS
10
145.864
20
-83.8835
11
145.923
21
-84.1779
0
LINE
8
BLACK
6
CONTINUOUS
10
145.923
20
-84.1779
11
145.923
21
-84.4781
0
LINE
8
BLACK
6
CONTINUOUS
10
145.923
20
-84.4781
11
145.864
21
-84.7725
0
LINE
8
BLACK
6
CONTINUOUS
10
145.864
20
-84.7725
11
145.75
21
-85.0499
0
LINE
8
BLACK
6
CONTINUOUS
10
145.75
20
-85.0499
11
145.583
21
-85.2995
0
LINE
8
BLACK
6
CONTINUOUS
10
145.583
20
-85.2995
11
145.37
21
-85.5118
0
LINE
8
BLACK
6
CONTINUOUS
10
145.37
20
-85.5118
11
145.121
21
-85.6786
0
LINE
8
BLACK
6
CONTINUOUS
10
145.121
20
-85.6786
11
144.844
21
-85.7934
0
LINE
8
BLACK
6
CONTINUOUS
10
144.844
20
-85.7934
11
144.549
21
-85.852
0
LINE
8
BLACK
6
CONTINUOUS
10
144.549
20
-85.852
11
144.249
21
-85.852
0
LINE
8
BLACK
6
CONTINUOUS
10
144.249
20
-85.852
11
143.954
21
-85.7934
0
LINE
8
BLACK
6
CONTINUOUS
10
143.954
20
-85.7934
11
143.677
21
-85.6786
0
LINE
8
BLACK
6
CONTINUOUS
10
143.677
20
-85.6786
11
143.428
21
-85.5118
0
LINE
8
BLACK
6
CONTINUOUS
10
143.428
20
-85.5118
11
143.215
21
-85.2995
0
LINE
8
BLACK
6
CONTINUOUS
10
143.215
20
-85.2995
11
143.048
21
-85.0499
0
LINE
8
BLACK
6
CONTINUOUS
10
143.048
20
-85.0499
11
142.934
21
-84.7725
0
LINE
8
BLACK
6
CONTINUOUS
10
142.934
20
-84.7725
11
142.875
21
-84.4781
0
LINE
8
BLACK
6
CONTINUOUS
10
142.875
20
-84.4781
11
142.875
21
-84.1779
0
LINE
8
BLACK
6
CONTINUOUS
10
142.875
20
-84.1779
11
142.934
21
-83.8835
0
LINE
8
BLACK
6
CONTINUOUS
10
142.934
20
-83.8835
11
143.048
21
-83.6061
0
LINE
8
BLACK
6
CONTINUOUS
10
143.048
20
-83.6061
11
143.215
21
-83.3565
0
LINE
8
BLACK
6
CONTINUOUS
10
143.215
20
-83.3565
11
143.428
21
-83.1442
0
LINE
8
BLACK
6
CONTINUOUS
10
143.428
20
-83.1442
11
143.677
21
-82.9774
0
LINE
8
BLACK
6
CONTINUOUS
10
143.677
20
-82.9774
11
143.954
21
-82.8626
0
LINE
8
BLACK
6
CONTINUOUS
10
143.954
20
-82.8626
11
144.249
21
-82.804
0
LINE
8
BLACK
6
CONTINUOUS
10
144.249
20
-82.804
11
144.549
21
-82.804
0
LINE
8
BLACK
6
CONTINUOUS
10
144.549
20
-82.804
11
144.844
21
-82.8626
0
LINE
8
BLACK
6
CONTINUOUS
10
137.665
20
-82.6942
11
137.824
21
-82.7603
0
LINE
8
BLACK
6
CONTINUOUS
10
137.824
20
-82.7603
11
137.968
21
-82.8562
0
LINE
8
BLACK
6
CONTINUOUS
10
137.968
20
-82.8562
11
138.09
21
-82.9782
0
LINE
8
BLACK
6
CONTINUOUS
10
138.09
20
-82.9782
11
138.186
21
-83.1218
0
LINE
8
BLACK
6
CONTINUOUS
10
138.186
20
-83.1218
11
138.252
21
-83.2812
0
LINE
8
BLACK
6
CONTINUOUS
10
138.252
20
-83.2812
11
138.285
21
-83.4505
0
LINE
8
BLACK
6
CONTINUOUS
10
138.285
20
-83.4505
11
138.285
21
-83.6232
0
LINE
8
BLACK
6
CONTINUOUS
10
138.285
20
-83.6232
11
138.252
21
-83.7925
0
LINE
8
BLACK
6
CONTINUOUS
10
138.252
20
-83.7925
11
138.186
21
-83.9519
0
LINE
8
BLACK
6
CONTINUOUS
10
138.186
20
-83.9519
11
138.09
21
-84.0955
0
LINE
8
BLACK
6
CONTINUOUS
10
138.09
20
-84.0955
11
137.968
21
-84.2175
0
LINE
8
BLACK
6
CONTINUOUS
10
137.968
20
-84.2175
11
137.824
21
-84.3134
0
LINE
8
BLACK
6
CONTINUOUS
10
137.824
20
-84.3134
11
137.665
21
-84.3795
0
LINE
8
BLACK
6
CONTINUOUS
10
137.665
20
-84.3795
11
137.495
21
-84.4132
0
LINE
8
BLACK
6
CONTINUOUS
10
137.495
20
-84.4132
11
137.323
21
-84.4132
0
LINE
8
BLACK
6
CONTINUOUS
10
137.323
20
-84.4132
11
137.154
21
-84.3795
0
LINE
8
BLACK
6
CONTINUOUS
10
137.154
20
-84.3795
11
136.994
21
-84.3134
0
LINE
8
BLACK
6
CONTINUOUS
10
136.994
20
-84.3134
11
136.851
21
-84.2175
0
LINE
8
BLACK
6
CONTINUOUS
10
136.851
20
-84.2175
11
136.728
21
-84.0955
0
LINE
8
BLACK
6
CONTINUOUS
10
136.728
20
-84.0955
11
136.633
21
-83.9519
0
LINE
8
BLACK
6
CONTINUOUS
10
136.633
20
-83.9519
11
136.566
21
-83.7925
0
LINE
8
BLACK
6
CONTINUOUS
10
136.566
20
-83.7925
11
136.533
21
-83.6232
0
LINE
8
BLACK
6
CONTINUOUS
10
136.533
20
-83.6232
11
136.533
21
-83.4505
0
LINE
8
BLACK
6
CONTINUOUS
10
136.533
20
-83.4505
11
136.566
21
-83.2812
0
LINE
8
BLACK
6
CONTINUOUS
10
136.566
20
-83.2812
11
136.633
21
-83.1218
0
LINE
8
BLACK
6
CONTINUOUS
10
136.633
20
-83.1218
11
136.728
21
-82.9782
0
LINE
8
BLACK
6
CONTINUOUS
10
136.728
20
-82.9782
11
136.851
21
-82.8562
0
LINE
8
BLACK
6
CONTINUOUS
10
136.851
20
-82.8562
11
136.994
21
-82.7603
0
LINE
8
BLACK
6
CONTINUOUS
10
136.994
20
-82.7603
11
137.154
21
-82.6942
0
LINE
8
BLACK
6
CONTINUOUS
10
137.154
20
-82.6942
11
137.323
21
-82.6606
0
LINE
8
BLACK
6
CONTINUOUS
10
137.323
20
-82.6606
11
137.495
21
-82.6606
0
LINE
8
BLACK
6
CONTINUOUS
10
137.495
20
-82.6606
11
137.665
21
-82.6942
0
LINE
8
BLACK
6
CONTINUOUS
10
136.395
20
-80.4945
11
136.554
21
-80.5606
0
LINE
8
BLACK
6
CONTINUOUS
10
136.554
20
-80.5606
11
136.698
21
-80.6565
0
LINE
8
BLACK
6
CONTINUOUS
10
136.698
20
-80.6565
11
136.82
21
-80.7785
0
LINE
8
BLACK
6
CONTINUOUS
10
136.82
20
-80.7785
11
136.916
21
-80.9221
0
LINE
8
BLACK
6
CONTINUOUS
10
136.916
20
-80.9221
11
136.982
21
-81.0815
0
LINE
8
BLACK
6
CONTINUOUS
10
136.982
20
-81.0815
11
137.015
21
-81.2508
0
LINE
8
BLACK
6
CONTINUOUS
10
137.015
20
-81.2508
11
137.015
21
-81.4235
0
LINE
8
BLACK
6
CONTINUOUS
10
137.015
20
-81.4235
11
136.982
21
-81.5928
0
LINE
8
BLACK
6
CONTINUOUS
10
136.982
20
-81.5928
11
136.916
21
-81.7522
0
LINE
8
BLACK
6
CONTINUOUS
10
136.916
20
-81.7522
11
136.82
21
-81.8958
0
LINE
8
BLACK
6
CONTINUOUS
10
136.82
20
-81.8958
11
136.698
21
-82.0178
0
LINE
8
BLACK
6
CONTINUOUS
10
136.698
20
-82.0178
11
136.554
21
-82.1137
0
LINE
8
BLACK
6
CONTINUOUS
10
136.554
20
-82.1137
11
136.395
21
-82.1798
0
LINE
8
BLACK
6
CONTINUOUS
10
136.395
20
-82.1798
11
136.225
21
-82.2135
0
LINE
8
BLACK
6
CONTINUOUS
10
136.225
20
-82.2135
11
136.053
21
-82.2135
0
LINE
8
BLACK
6
CONTINUOUS
10
136.053
20
-82.2135
11
135.884
21
-82.1798
0
LINE
8
BLACK
6
CONTINUOUS
10
135.884
20
-82.1798
11
135.724
21
-82.1137
0
LINE
8
BLACK
6
CONTINUOUS
10
135.724
20
-82.1137
11
135.581
21
-82.0178
0
LINE
8
BLACK
6
CONTINUOUS
10
135.581
20
-82.0178
11
135.458
21
-81.8958
0
LINE
8
BLACK
6
CONTINUOUS
10
135.458
20
-81.8958
11
135.363
21
-81.7522
0
LINE
8
BLACK
6
CONTINUOUS
10
135.363
20
-81.7522
11
135.296
21
-81.5928
0
LINE
8
BLACK
6
CONTINUOUS
10
135.296
20
-81.5928
11
135.263
21
-81.4235
0
LINE
8
BLACK
6
CONTINUOUS
10
135.263
20
-81.4235
11
135.263
21
-81.2508
0
LINE
8
BLACK
6
CONTINUOUS
10
135.263
20
-81.2508
11
135.296
21
-81.0815
0
LINE
8
BLACK
6
CONTINUOUS
10
135.296
20
-81.0815
11
135.363
21
-80.9221
0
LINE
8
BLACK
6
CONTINUOUS
10
135.363
20
-80.9221
11
135.458
21
-80.7785
0
LINE
8
BLACK
6
CONTINUOUS
10
135.458
20
-80.7785
11
135.581
21
-80.6565
0
LINE
8
BLACK
6
CONTINUOUS
10
135.581
20
-80.6565
11
135.724
21
-80.5606
0
LINE
8
BLACK
6
CONTINUOUS
10
135.724
20
-80.5606
11
135.884
21
-80.4945
0
LINE
8
BLACK
6
CONTINUOUS
10
135.884
20
-80.4945
11
136.053
21
-80.4609
0
LINE
8
BLACK
6
CONTINUOUS
10
136.053
20
-80.4609
11
136.225
21
-80.4609
0
LINE
8
BLACK
6
CONTINUOUS
10
136.225
20
-80.4609
11
136.395
21
-80.4945
0
LINE
8
BLACK
6
CONTINUOUS
10
135.125
20
-78.2948
11
135.284
21
-78.3609
0
LINE
8
BLACK
6
CONTINUOUS
10
135.284
20
-78.3609
11
135.428
21
-78.4568
0
LINE
8
BLACK
6
CONTINUOUS
10
135.428
20
-78.4568
11
135.55
21
-78.5788
0
LINE
8
BLACK
6
CONTINUOUS
10
135.55
20
-78.5788
11
135.646
21
-78.7224
0
LINE
8
BLACK
6
CONTINUOUS
10
135.646
20
-78.7224
11
135.712
21
-78.8818
0
LINE
8
BLACK
6
CONTINUOUS
10
135.712
20
-78.8818
11
135.745
21
-79.0511
0
LINE
8
BLACK
6
CONTINUOUS
10
135.745
20
-79.0511
11
135.745
21
-79.2238
0
LINE
8
BLACK
6
CONTINUOUS
10
135.745
20
-79.2238
11
135.712
21
-79.3931
0
LINE
8
BLACK
6
CONTINUOUS
10
135.712
20
-79.3931
11
135.646
21
-79.5525
0
LINE
8
BLACK
6
CONTINUOUS
10
135.646
20
-79.5525
11
135.55
21
-79.6961
0
LINE
8
BLACK
6
CONTINUOUS
10
135.55
20
-79.6961
11
135.428
21
-79.8181
0
LINE
8
BLACK
6
CONTINUOUS
10
135.428
20
-79.8181
11
135.284
21
-79.914
0
LINE
8
BLACK
6
CONTINUOUS
10
135.284
20
-79.914
11
135.125
21
-79.9801
0
LINE
8
BLACK
6
CONTINUOUS
10
135.125
20
-79.9801
11
134.955
21
-80.0137
0
LINE
8
BLACK
6
CONTINUOUS
10
134.955
20
-80.0137
11
134.783
21
-80.0137
0
LINE
8
BLACK
6
CONTINUOUS
10
134.783
20
-80.0137
11
134.614
21
-79.9801
0
LINE
8
BLACK
6
CONTINUOUS
10
134.614
20
-79.9801
11
134.454
21
-79.914
0
LINE
8
BLACK
6
CONTINUOUS
10
134.454
20
-79.914
11
134.311
21
-79.8181
0
LINE
8
BLACK
6
CONTINUOUS
10
134.311
20
-79.8181
11
134.188
21
-79.6961
0
LINE
8
BLACK
6
CONTINUOUS
10
134.188
20
-79.6961
11
134.093
21
-79.5525
0
LINE
8
BLACK
6
CONTINUOUS
10
134.093
20
-79.5525
11
134.026
21
-79.3931
0
LINE
8
BLACK
6
CONTINUOUS
10
134.026
20
-79.3931
11
133.993
21
-79.2238
0
LINE
8
BLACK
6
CONTINUOUS
10
133.993
20
-79.2238
11
133.993
21
-79.0511
0
LINE
8
BLACK
6
CONTINUOUS
10
133.993
20
-79.0511
11
134.026
21
-78.8818
0
LINE
8
BLACK
6
CONTINUOUS
10
134.026
20
-78.8818
11
134.093
21
-78.7224
0
LINE
8
BLACK
6
CONTINUOUS
10
134.093
20
-78.7224
11
134.188
21
-78.5788
0
LINE
8
BLACK
6
CONTINUOUS
10
134.188
20
-78.5788
11
134.311
21
-78.4568
0
LINE
8
BLACK
6
CONTINUOUS
10
134.311
20
-78.4568
11
134.454
21
-78.3609
0
LINE
8
BLACK
6
CONTINUOUS
10
134.454
20
-78.3609
11
134.614
21
-78.2948
0
LINE
8
BLACK
6
CONTINUOUS
10
134.614
20
-78.2948
11
134.783
21
-78.2611
0
LINE
8
BLACK
6
CONTINUOUS
10
134.783
20
-78.2611
11
134.955
21
-78.2611
0
LINE
8
BLACK
6
CONTINUOUS
10
134.955
20
-78.2611
11
135.125
21
-78.2948
0
LINE
8
BLACK
6
CONTINUOUS
10
149.273
20
-76.2093
11
149.592
21
-76.3412
0
LINE
8
BLACK
6
CONTINUOUS
10
149.592
20
-76.3412
11
149.879
21
-76.5327
0
LINE
8
BLACK
6
CONTINUOUS
10
149.879
20
-76.5327
11
150.122
21
-76.7764
0
LINE
8
BLACK
6
CONTINUOUS
10
150.122
20
-76.7764
11
150.314
21
-77.0631
0
LINE
8
BLACK
6
CONTINUOUS
10
150.314
20
-77.0631
11
150.446
21
-77.3815
0
LINE
8
BLACK
6
CONTINUOUS
10
150.446
20
-77.3815
11
150.513
21
-77.7196
0
LINE
8
BLACK
6
CONTINUOUS
10
150.513
20
-77.7196
11
150.513
21
-78.0644
0
LINE
8
BLACK
6
CONTINUOUS
10
150.513
20
-78.0644
11
150.446
21
-78.4025
0
LINE
8
BLACK
6
CONTINUOUS
10
150.446
20
-78.4025
11
150.314
21
-78.7209
0
LINE
8
BLACK
6
CONTINUOUS
10
150.314
20
-78.7209
11
150.122
21
-79.0076
0
LINE
8
BLACK
6
CONTINUOUS
10
150.122
20
-79.0076
11
149.879
21
-79.2513
0
LINE
8
BLACK
6
CONTINUOUS
10
149.879
20
-79.2513
11
149.592
21
-79.4428
0
LINE
8
BLACK
6
CONTINUOUS
10
149.592
20
-79.4428
11
149.273
21
-79.5747
0
LINE
8
BLACK
6
CONTINUOUS
10
149.273
20
-79.5747
11
148.935
21
-79.642
0
LINE
8
BLACK
6
CONTINUOUS
10
148.935
20
-79.642
11
148.591
21
-79.642
0
LINE
8
BLACK
6
CONTINUOUS
10
148.591
20
-79.642
11
148.253
21
-79.5747
0
LINE
8
BLACK
6
CONTINUOUS
10
148.253
20
-79.5747
11
147.934
21
-79.4428
0
LINE
8
BLACK
6
CONTINUOUS
10
147.934
20
-79.4428
11
147.647
21
-79.2513
0
LINE
8
BLACK
6
CONTINUOUS
10
147.647
20
-79.2513
11
147.404
21
-79.0076
0
LINE
8
BLACK
6
CONTINUOUS
10
147.404
20
-79.0076
11
147.212
21
-78.7209
0
LINE
8
BLACK
6
CONTINUOUS
10
147.212
20
-78.7209
11
147.08
21
-78.4025
0
LINE
8
BLACK
6
CONTINUOUS
10
147.08
20
-78.4025
11
147.013
21
-78.0644
0
LINE
8
BLACK
6
CONTINUOUS
10
147.013
20
-78.0644
11
147.013
21
-77.7196
0
LINE
8
BLACK
6
CONTINUOUS
10
147.013
20
-77.7196
11
147.08
21
-77.3815
0
LINE
8
BLACK
6
CONTINUOUS
10
147.08
20
-77.3815
11
147.212
21
-77.0631
0
LINE
8
BLACK
6
CONTINUOUS
10
147.212
20
-77.0631
11
147.404
21
-76.7764
0
LINE
8
BLACK
6
CONTINUOUS
10
147.404
20
-76.7764
11
147.647
21
-76.5327
0
LINE
8
BLACK
6
CONTINUOUS
10
147.647
20
-76.5327
11
147.934
21
-76.3412
0
LINE
8
BLACK
6
CONTINUOUS
10
147.934
20
-76.3412
11
148.253
21
-76.2093
0
LINE
8
BLACK
6
CONTINUOUS
10
148.253
20
-76.2093
11
148.591
21
-76.142
0
LINE
8
BLACK
6
CONTINUOUS
10
148.591
20
-76.142
11
148.935
21
-76.142
0
LINE
8
BLACK
6
CONTINUOUS
10
148.935
20
-76.142
11
149.273
21
-76.2093
  0
ENDSEC
  0
EOF
